RecursiveMonoVar-StrictRegularItalic.ufo
<glyph name="exclam" format="1">
  <advance width="600"/>
  <unicode hex="0021"/>
  <outline>
    <contour>
      <point x="330" y="256" type="line"/>
      <point x="357" y="338"/>
      <point x="384" y="420"/>
      <point x="411" y="502" type="curve"/>
      <point x="458" y="689" type="line" smooth="yes"/>
      <point x="460" y="696"/>
      <point x="456" y="700"/>
      <point x="450" y="700" type="curve" smooth="yes"/>
      <point x="414" y="700"/>
      <point x="383" y="700"/>
      <point x="357" y="700" type="curve"/>
      <point x="347" y="662"/>
      <point x="338" y="627"/>
      <point x="329" y="590" type="curve" smooth="yes"/>
      <point x="307" y="502" type="line"/>
      <point x="266" y="268"/>
      <point x="265" y="263"/>
      <point x="268" y="259" type="curve" smooth="yes"/>
      <point x="270" y="257"/>
      <point x="272" y="256"/>
      <point x="276" y="256" type="curve"/>
    </contour>
    <contour>
      <point x="306" y="-7" type="curve"/>
      <point x="339" y="127" type="line" smooth="yes"/>
      <point x="341" y="133"/>
      <point x="337" y="138"/>
      <point x="331" y="138" type="curve" smooth="yes"/>
      <point x="291" y="138"/>
      <point x="235" y="138"/>
      <point x="194" y="138" type="curve"/>
      <point x="161" y="4" type="line" smooth="yes"/>
      <point x="159" y="-2"/>
      <point x="163" y="-7"/>
      <point x="169" y="-7" type="curve" smooth="yes"/>
      <point x="209" y="-7"/>
      <point x="266" y="-7"/>
    </contour>
  </outline>
</glyph>
<glyph name="dollar" format="1">
  <advance width="600"/>
  <unicode hex="0024"/>
  <outline>
    <contour>
      <point x="432" y="718" type="curve" smooth="yes"/>
      <point x="290" y="718"/>
      <point x="176" y="645"/>
      <point x="151" y="542" type="curve" smooth="yes"/>
      <point x="139" y="496" type="line" smooth="yes"/>
      <point x="135" y="479"/>
      <point x="165" y="464"/>
      <point x="209" y="464" type="curve"/>
      <point x="215" y="488"/>
      <point x="221" y="514"/>
      <point x="227" y="537" type="curve" smooth="yes"/>
      <point x="242" y="598"/>
      <point x="309" y="638"/>
      <point x="409" y="638" type="curve" smooth="yes"/>
      <point x="487" y="638"/>
      <point x="535" y="621"/>
      <point x="577" y="575" type="curve"/>
      <point x="591" y="575" type="line"/>
      <point x="595" y="591"/>
      <point x="602" y="619"/>
      <point x="611" y="653" type="curve" smooth="yes"/>
      <point x="612" y="657"/>
      <point x="611" y="659"/>
      <point x="610" y="661" type="curve" smooth="yes"/>
      <point x="583" y="697"/>
      <point x="514" y="718"/>
    </contour>
    <contour>
      <point x="402" y="378" type="curve" smooth="yes"/>
      <point x="313" y="406" type="line" smooth="yes"/>
      <point x="227" y="433"/>
      <point x="207" y="455"/>
      <point x="220" y="509" type="curve" smooth="yes"/>
      <point x="226" y="534"/>
      <point x="230" y="550"/>
      <point x="240" y="589" type="curve"/>
      <point x="193" y="581"/>
      <point x="154" y="558"/>
      <point x="139" y="496" type="curve" smooth="yes"/>
      <point x="122" y="429"/>
      <point x="151" y="370"/>
      <point x="269" y="332" type="curve" smooth="yes"/>
      <point x="358" y="303" type="line" smooth="yes"/>
      <point x="438" y="277"/>
      <point x="452" y="253"/>
      <point x="438" y="196" type="curve" smooth="yes"/>
      <point x="432" y="175"/>
      <point x="424" y="140"/>
      <point x="417" y="115" type="curve"/>
      <point x="450" y="115"/>
      <point x="508" y="170"/>
      <point x="518" y="210" type="curve"/>
      <point x="539" y="290"/>
      <point x="511" y="343"/>
    </contour>
    <contour>
      <point x="222" y="-17" type="curve" smooth="yes"/>
      <point x="366" y="-17"/>
      <point x="480" y="56"/>
      <point x="506" y="158" type="curve" smooth="yes"/>
      <point x="518" y="210" type="line" smooth="yes"/>
      <point x="522" y="226"/>
      <point x="492" y="241"/>
      <point x="449" y="241" type="curve"/>
      <point x="443" y="216"/>
      <point x="436" y="189"/>
      <point x="430" y="164" type="curve" smooth="yes"/>
      <point x="414" y="103"/>
      <point x="348" y="62"/>
      <point x="245" y="62" type="curve" smooth="yes"/>
      <point x="157" y="62"/>
      <point x="102" y="82"/>
      <point x="55" y="135" type="curve"/>
      <point x="40" y="135" type="line"/>
      <point x="36" y="119"/>
      <point x="29" y="91"/>
      <point x="21" y="56" type="curve" smooth="yes"/>
      <point x="20" y="53"/>
      <point x="20" y="50"/>
      <point x="22" y="48" type="curve" smooth="yes"/>
      <point x="53" y="7"/>
      <point x="130" y="-17"/>
    </contour>
    <contour>
      <point x="390" y="460" type="line"/>
      <point x="495" y="774" type="line" smooth="yes"/>
      <point x="499" y="783"/>
      <point x="495" y="787"/>
      <point x="489" y="787" type="curve" smooth="yes"/>
      <point x="460" y="787"/>
      <point x="448" y="787"/>
      <point x="420" y="787" type="curve"/>
      <point x="413" y="757"/>
      <point x="406" y="728"/>
      <point x="398" y="698" type="curve"/>
      <point x="345" y="483" type="line" smooth="yes"/>
      <point x="343" y="475"/>
      <point x="345" y="471"/>
      <point x="351" y="469" type="curve" smooth="yes"/>
    </contour>
    <contour>
      <point x="268" y="251" type="line"/>
      <point x="159" y="-72" type="line" smooth="yes"/>
      <point x="155" y="-82"/>
      <point x="159" y="-86"/>
      <point x="165" y="-86" type="curve" smooth="yes"/>
      <point x="193" y="-86"/>
      <point x="207" y="-86"/>
      <point x="235" y="-86" type="curve"/>
      <point x="242" y="-57"/>
      <point x="250" y="-25"/>
      <point x="257" y="4" type="curve"/>
      <point x="312" y="224" type="line" smooth="yes"/>
      <point x="314" y="233"/>
      <point x="313" y="238"/>
      <point x="305" y="240" type="curve" smooth="yes"/>
    </contour>
  </outline>
</glyph>
<glyph name="quotesingle" format="1">
  <advance width="600"/>
  <unicode hex="0027"/>
  <outline>
    <contour>
      <point x="388" y="450" type="curve"/>
      <point x="483" y="737" type="line" smooth="yes"/>
      <point x="486" y="746"/>
      <point x="482" y="750"/>
      <point x="476" y="750" type="curve" smooth="yes"/>
      <point x="440" y="750"/>
      <point x="400" y="750"/>
      <point x="355" y="750" type="curve"/>
      <point x="349" y="714"/>
      <point x="344" y="683"/>
      <point x="338" y="648" type="curve" smooth="yes"/>
      <point x="306" y="461" type="line" smooth="yes"/>
      <point x="305" y="454"/>
      <point x="309" y="450"/>
      <point x="315" y="450" type="curve" smooth="yes"/>
      <point x="340" y="450"/>
      <point x="364" y="450"/>
    </contour>
  </outline>
</glyph>
<glyph name="parenleft" format="1">
  <advance width="600"/>
  <unicode hex="0028"/>
  <outline>
    <contour>
      <point x="514" y="749" type="curve" smooth="yes"/>
      <point x="365" y="630"/>
      <point x="269" y="475"/>
      <point x="227" y="308" type="curve" smooth="yes"/>
      <point x="225" y="301" type="line" smooth="yes"/>
      <point x="184" y="134"/>
      <point x="203" y="-19"/>
      <point x="292" y="-138" type="curve" smooth="yes"/>
      <point x="296" y="-144"/>
      <point x="302" y="-146"/>
      <point x="310" y="-146" type="curve" smooth="yes"/>
      <point x="338" y="-146"/>
      <point x="360" y="-146"/>
      <point x="390" y="-146" type="curve"/>
      <point x="394" y="-131" type="line"/>
      <point x="296" y="-11"/>
      <point x="268" y="135"/>
      <point x="310" y="301" type="curve" smooth="yes"/>
      <point x="312" y="308" type="line" smooth="yes"/>
      <point x="353" y="475"/>
      <point x="454" y="624"/>
      <point x="610" y="742" type="curve"/>
      <point x="614" y="757" type="line"/>
      <point x="585" y="757"/>
      <point x="563" y="757"/>
      <point x="536" y="757" type="curve" smooth="yes"/>
      <point x="528" y="757"/>
      <point x="520" y="755"/>
    </contour>
  </outline>
</glyph>
<glyph name="parenright" format="1">
  <advance width="600"/>
  <unicode hex="0029"/>
  <outline>
    <contour>
      <point x="107" y="-138" type="curve" smooth="yes"/>
      <point x="256" y="-19"/>
      <point x="351" y="136"/>
      <point x="393" y="303" type="curve" smooth="yes"/>
      <point x="395" y="310" type="line" smooth="yes"/>
      <point x="436" y="476"/>
      <point x="418" y="630"/>
      <point x="328" y="749" type="curve" smooth="yes"/>
      <point x="325" y="755"/>
      <point x="318" y="757"/>
      <point x="310" y="757" type="curve" smooth="yes"/>
      <point x="282" y="757"/>
      <point x="260" y="757"/>
      <point x="230" y="757" type="curve"/>
      <point x="227" y="742" type="line"/>
      <point x="324" y="622"/>
      <point x="352" y="476"/>
      <point x="310" y="310" type="curve" smooth="yes"/>
      <point x="308" y="303" type="line" smooth="yes"/>
      <point x="267" y="136"/>
      <point x="166" y="-13"/>
      <point x="10" y="-131" type="curve"/>
      <point x="6" y="-146" type="line"/>
      <point x="35" y="-146"/>
      <point x="57" y="-146"/>
      <point x="85" y="-146" type="curve" smooth="yes"/>
      <point x="92" y="-146"/>
      <point x="100" y="-144"/>
    </contour>
  </outline>
</glyph>
<glyph name="asterisk" format="1">
  <advance width="600"/>
  <unicode hex="002A"/>
  <outline>
    <contour>
      <point x="328" y="568" type="curve"/>
      <point x="325" y="538"/>
      <point x="321" y="509"/>
      <point x="318" y="478" type="curve" smooth="yes"/>
      <point x="294" y="309" type="line"/>
      <point x="202" y="60" type="line" smooth="yes"/>
      <point x="201" y="54"/>
      <point x="203" y="50"/>
      <point x="209" y="50" type="curve"/>
      <point x="237" y="50"/>
      <point x="265" y="50"/>
      <point x="293" y="50" type="curve"/>
      <point x="296" y="80"/>
      <point x="300" y="109"/>
      <point x="303" y="140" type="curve" smooth="yes"/>
      <point x="327" y="309" type="line"/>
      <point x="419" y="558" type="line" smooth="yes"/>
      <point x="420" y="564"/>
      <point x="418" y="568"/>
      <point x="412" y="568" type="curve" smooth="yes"/>
      <point x="384" y="568"/>
      <point x="356" y="568"/>
    </contour>
    <contour>
      <point x="553" y="478" type="curve"/>
      <point x="306" y="323" type="line"/>
      <point x="51" y="224" type="line" smooth="yes"/>
      <point x="45" y="222"/>
      <point x="41" y="217"/>
      <point x="43" y="209" type="curve"/>
      <point x="51" y="185"/>
      <point x="59" y="162"/>
      <point x="67" y="139" type="curve"/>
      <point x="315" y="294" type="line"/>
      <point x="570" y="393" type="line" smooth="yes"/>
      <point x="576" y="396"/>
      <point x="579" y="401"/>
      <point x="577" y="407" type="curve" smooth="yes"/>
      <point x="569" y="431"/>
      <point x="561" y="454"/>
    </contour>
    <contour>
      <point x="536" y="220" type="curve"/>
      <point x="323" y="323" type="line"/>
      <point x="159" y="473" type="line" smooth="yes"/>
      <point x="155" y="477"/>
      <point x="150" y="476"/>
      <point x="144" y="469" type="curve"/>
      <point x="125" y="445"/>
      <point x="104" y="422"/>
      <point x="85" y="398" type="curve"/>
      <point x="299" y="295" type="line"/>
      <point x="462" y="145" type="line" smooth="yes"/>
      <point x="466" y="141"/>
      <point x="472" y="142"/>
      <point x="477" y="149" type="curve"/>
      <point x="496" y="172"/>
      <point x="516" y="196"/>
    </contour>
  </outline>
</glyph>
<glyph name="plus" format="1">
  <advance width="600"/>
  <unicode hex="002B"/>
  <outline>
    <contour>
      <point x="90" y="340" type="line"/>
      <point x="84" y="317"/>
      <point x="78" y="294"/>
      <point x="72" y="271" type="curve" smooth="yes"/>
      <point x="72" y="268"/>
      <point x="72" y="265"/>
      <point x="73" y="263" type="curve" smooth="yes"/>
      <point x="75" y="261"/>
      <point x="78" y="260"/>
      <point x="81" y="260" type="curve"/>
      <point x="528" y="260" type="line"/>
      <point x="533" y="283"/>
      <point x="539" y="306"/>
      <point x="545" y="329" type="curve" smooth="yes"/>
      <point x="547" y="335"/>
      <point x="543" y="340"/>
      <point x="537" y="340" type="curve"/>
    </contour>
    <contour>
      <point x="292" y="71" type="curve"/>
      <point x="404" y="519" type="line" smooth="yes"/>
      <point x="405" y="522"/>
      <point x="405" y="525"/>
      <point x="403" y="527" type="curve" smooth="yes"/>
      <point x="402" y="529"/>
      <point x="399" y="530"/>
      <point x="396" y="530" type="curve" smooth="yes"/>
      <point x="373" y="530"/>
      <point x="352" y="530"/>
      <point x="326" y="530" type="curve"/>
      <point x="321" y="510"/>
      <point x="312" y="475"/>
      <point x="301" y="430" type="curve" smooth="yes"/>
      <point x="214" y="82" type="line" smooth="yes"/>
      <point x="212" y="76"/>
      <point x="216" y="71"/>
      <point x="222" y="71" type="curve" smooth="yes"/>
      <point x="246" y="71"/>
      <point x="267" y="71"/>
    </contour>
  </outline>
</glyph>
<glyph name="period" format="1">
  <advance width="600"/>
  <unicode hex="002E"/>
  <outline>
    <contour>
      <point x="306" y="-7" type="curve"/>
      <point x="339" y="127" type="line" smooth="yes"/>
      <point x="341" y="133"/>
      <point x="337" y="138"/>
      <point x="331" y="138" type="curve" smooth="yes"/>
      <point x="291" y="138"/>
      <point x="235" y="138"/>
      <point x="194" y="138" type="curve"/>
      <point x="161" y="4" type="line" smooth="yes"/>
      <point x="159" y="-2"/>
      <point x="163" y="-7"/>
      <point x="169" y="-7" type="curve" smooth="yes"/>
      <point x="209" y="-7"/>
      <point x="266" y="-7"/>
    </contour>
  </outline>
</glyph>
<glyph name="zero" format="1">
  <advance width="600"/>
  <unicode hex="0030"/>
  <outline>
    <contour>
      <point x="391" y="720" type="curve" smooth="yes"/>
      <point x="254" y="720"/>
      <point x="162" y="646"/>
      <point x="118" y="467" type="curve" smooth="yes"/>
      <point x="68" y="267" type="line" smooth="yes"/>
      <point x="24" y="89"/>
      <point x="106" y="-20"/>
      <point x="251" y="-20" type="curve"/>
      <point x="257" y="-20"/>
      <point x="261" y="-11"/>
      <point x="260" y="53" type="curve"/>
      <point x="161" y="53"/>
      <point x="114" y="120"/>
      <point x="149" y="265" type="curve" smooth="yes"/>
      <point x="196" y="458" type="line" smooth="yes"/>
      <point x="230" y="598"/>
      <point x="292" y="647"/>
      <point x="382" y="647" type="curve" smooth="yes"/>
      <point x="421" y="647"/>
      <point x="463" y="647"/>
      <point x="491" y="647" type="curve"/>
      <point x="501" y="685"/>
      <point x="458" y="720"/>
    </contour>
    <contour>
      <point x="251" y="-20" type="curve" smooth="yes"/>
      <point x="388" y="-20"/>
      <point x="479" y="53"/>
      <point x="524" y="232" type="curve" smooth="yes"/>
      <point x="574" y="433" type="line" smooth="yes"/>
      <point x="618" y="611"/>
      <point x="536" y="720"/>
      <point x="391" y="720" type="curve"/>
      <point x="385" y="720"/>
      <point x="381" y="711"/>
      <point x="382" y="647" type="curve"/>
      <point x="480" y="647"/>
      <point x="528" y="580"/>
      <point x="493" y="435" type="curve" smooth="yes"/>
      <point x="446" y="242" type="line" smooth="yes"/>
      <point x="412" y="102"/>
      <point x="350" y="53"/>
      <point x="256" y="53" type="curve" smooth="yes"/>
      <point x="212" y="53"/>
      <point x="179" y="53"/>
      <point x="151" y="53" type="curve"/>
      <point x="141" y="15"/>
      <point x="183" y="-20"/>
    </contour>
    <contour>
      <point x="113" y="135" type="curve"/>
      <point x="247" y="252"/>
      <point x="383" y="368"/>
      <point x="517" y="485" type="curve"/>
      <point x="540" y="503"/>
      <point x="542" y="535"/>
      <point x="529" y="569" type="curve"/>
      <point x="391" y="451"/>
      <point x="253" y="332"/>
      <point x="116" y="214" type="curve" smooth="yes"/>
      <point x="98" y="200"/>
      <point x="99" y="165"/>
    </contour>
  </outline>
</glyph>
<glyph name="one" format="1">
  <advance width="600"/>
  <unicode hex="0031"/>
  <outline>
    <contour>
      <point x="314" y="19" type="curve"/>
      <point x="371" y="247"/>
      <point x="428" y="474"/>
      <point x="484" y="699" type="curve" smooth="yes"/>
      <point x="486" y="706"/>
      <point x="483" y="710"/>
      <point x="476" y="710" type="curve" smooth="yes"/>
      <point x="406" y="710" type="line"/>
      <point x="351" y="493"/>
      <point x="295" y="269"/>
      <point x="241" y="51" type="curve" smooth="yes"/>
      <point x="235" y="25"/>
      <point x="266" y="19"/>
    </contour>
    <contour>
      <point x="38" y="74" type="line"/>
      <point x="33" y="52"/>
      <point x="29" y="34"/>
      <point x="23" y="11" type="curve" smooth="yes"/>
      <point x="22" y="8"/>
      <point x="22" y="5"/>
      <point x="24" y="3" type="curve" smooth="yes"/>
      <point x="25" y="1"/>
      <point x="28" y="0"/>
      <point x="31" y="0" type="curve" smooth="yes"/>
      <point x="477" y="0" type="line"/>
      <point x="481" y="20"/>
      <point x="487" y="39"/>
      <point x="493" y="63" type="curve" smooth="yes"/>
      <point x="494" y="69"/>
      <point x="490" y="74"/>
      <point x="484" y="74" type="curve" smooth="yes"/>
    </contour>
    <contour>
      <point x="151" y="453" type="curve" smooth="yes"/>
      <point x="161" y="453"/>
      <point x="167" y="455"/>
      <point x="404" y="626" type="curve" smooth="yes"/>
      <point x="426" y="641"/>
      <point x="446" y="655"/>
      <point x="447" y="662" type="curve" smooth="yes"/>
      <point x="453" y="681"/>
      <point x="451" y="710"/>
      <point x="412" y="710" type="curve"/>
      <point x="394" y="710" type="line"/>
      <point x="357" y="683"/>
      <point x="320" y="656"/>
      <point x="283" y="630" type="curve"/>
      <point x="245" y="603"/>
      <point x="208" y="576"/>
      <point x="170" y="548" type="curve"/>
      <point x="148" y="463" type="line" smooth="yes"/>
      <point x="146" y="456"/>
      <point x="147" y="453"/>
    </contour>
  </outline>
</glyph>
<glyph name="two" format="1">
  <advance width="600"/>
  <unicode hex="0032"/>
  <outline>
    <contour>
      <point x="523" y="603" type="curve"/>
      <point x="515" y="570"/>
      <point x="512" y="558"/>
      <point x="503" y="520" type="curve" smooth="yes"/>
      <point x="489" y="466"/>
      <point x="460" y="441"/>
      <point x="306" y="356" type="curve" smooth="yes"/>
      <point x="122" y="253"/>
      <point x="46" y="184"/>
      <point x="16" y="60" type="curve" smooth="yes"/>
      <point x="13" y="49"/>
      <point x="30" y="47"/>
      <point x="95" y="47" type="curve"/>
      <point x="122" y="155"/>
      <point x="155" y="187"/>
      <point x="343" y="292" type="curve" smooth="yes"/>
      <point x="502" y="381"/>
      <point x="559" y="422"/>
      <point x="581" y="511" type="curve" smooth="yes"/>
      <point x="589" y="542" type="line" smooth="yes"/>
      <point x="596" y="570"/>
      <point x="582" y="603"/>
    </contour>
    <contour>
      <point x="470" y="0" type="line"/>
      <point x="475" y="20"/>
      <point x="480" y="39"/>
      <point x="486" y="63" type="curve" smooth="yes"/>
      <point x="487" y="69"/>
      <point x="483" y="74"/>
      <point x="477" y="74" type="curve" smooth="yes"/>
      <point x="87" y="74" type="line" smooth="yes"/>
      <point x="63" y="74"/>
      <point x="40" y="72"/>
      <point x="16" y="60" type="curve"/>
      <point x="12" y="44"/>
      <point x="9" y="35"/>
      <point x="3" y="11" type="curve" smooth="yes"/>
      <point x="1" y="4"/>
      <point x="5" y="0"/>
      <point x="11" y="0" type="curve" smooth="yes"/>
    </contour>
    <contour>
      <point x="407" y="720" type="curve" smooth="yes"/>
      <point x="300" y="720"/>
      <point x="227" y="690"/>
      <point x="185" y="657" type="curve" smooth="yes"/>
      <point x="183" y="654"/>
      <point x="181" y="652"/>
      <point x="180" y="648" type="curve" smooth="yes"/>
      <point x="172" y="615"/>
      <point x="166" y="592"/>
      <point x="161" y="573" type="curve"/>
      <point x="175" y="573" type="line"/>
      <point x="249" y="624"/>
      <point x="312" y="644"/>
      <point x="394" y="644" type="curve" smooth="yes"/>
      <point x="486" y="644"/>
      <point x="524" y="607"/>
      <point x="507" y="540" type="curve" smooth="yes"/>
      <point x="501" y="512"/>
      <point x="496" y="493"/>
      <point x="490" y="469" type="curve"/>
      <point x="543" y="470"/>
      <point x="578" y="498"/>
      <point x="589" y="542" type="curve" smooth="yes"/>
      <point x="615" y="642"/>
      <point x="548" y="720"/>
    </contour>
  </outline>
</glyph>
<glyph name="three" format="1">
  <advance width="600"/>
  <unicode hex="0033"/>
  <outline>
    <contour>
      <point x="380" y="644" type="curve" smooth="yes"/>
      <point x="486" y="644"/>
      <point x="522" y="594"/>
      <point x="506" y="532" type="curve" smooth="yes"/>
      <point x="500" y="508"/>
      <point x="494" y="486"/>
      <point x="489" y="464" type="curve"/>
      <point x="533" y="464"/>
      <point x="574" y="475"/>
      <point x="585" y="516" type="curve" smooth="yes"/>
      <point x="591" y="540" type="line" smooth="yes"/>
      <point x="614" y="628"/>
      <point x="548" y="720"/>
      <point x="397" y="720" type="curve" smooth="yes"/>
      <point x="300" y="720"/>
      <point x="220" y="693"/>
      <point x="185" y="665" type="curve" smooth="yes"/>
      <point x="183" y="663"/>
      <point x="181" y="661"/>
      <point x="180" y="657" type="curve" smooth="yes"/>
      <point x="173" y="627"/>
      <point x="167" y="604"/>
      <point x="164" y="588" type="curve"/>
      <point x="177" y="588" type="line"/>
      <point x="246" y="627"/>
      <point x="297" y="644"/>
    </contour>
    <contour>
      <point x="196" y="340" type="curve" smooth="yes"/>
      <point x="410" y="340"/>
      <point x="554" y="390"/>
      <point x="585" y="516" type="curve" smooth="yes"/>
      <point x="593" y="546"/>
      <point x="563" y="590"/>
      <point x="521" y="590" type="curve"/>
      <point x="514" y="565"/>
      <point x="509" y="544"/>
      <point x="504" y="523" type="curve" smooth="yes"/>
      <point x="485" y="448"/>
      <point x="400" y="393"/>
      <point x="198" y="393" type="curve"/>
      <point x="195" y="380"/>
      <point x="191" y="364"/>
      <point x="188" y="351" type="curve" smooth="yes"/>
      <point x="186" y="345"/>
      <point x="189" y="340"/>
    </contour>
    <contour>
      <point x="191" y="320" type="curve" smooth="yes"/>
      <point x="370" y="320"/>
      <point x="451" y="278"/>
      <point x="429" y="186" type="curve" smooth="yes"/>
      <point x="422" y="163"/>
      <point x="418" y="146"/>
      <point x="411" y="117" type="curve"/>
      <point x="457" y="117"/>
      <point x="502" y="142"/>
      <point x="512" y="183" type="curve" smooth="yes"/>
      <point x="540" y="297"/>
      <point x="447" y="373"/>
      <point x="193" y="373" type="curve"/>
      <point x="190" y="360"/>
      <point x="186" y="346"/>
      <point x="183" y="331" type="curve" smooth="yes"/>
      <point x="181" y="324"/>
      <point x="184" y="320"/>
    </contour>
    <contour>
      <point x="232" y="56" type="curve" smooth="yes"/>
      <point x="147" y="56"/>
      <point x="100" y="73"/>
      <point x="47" y="116" type="curve"/>
      <point x="33" y="116" type="line"/>
      <point x="28" y="97"/>
      <point x="23" y="79"/>
      <point x="15" y="48" type="curve" smooth="yes"/>
      <point x="14" y="44"/>
      <point x="14" y="42"/>
      <point x="16" y="39" type="curve" smooth="yes"/>
      <point x="37" y="11"/>
      <point x="113" y="-20"/>
      <point x="219" y="-20" type="curve" smooth="yes"/>
      <point x="385" y="-20"/>
      <point x="480" y="53"/>
      <point x="504" y="153" type="curve" smooth="yes"/>
      <point x="512" y="183" type="line" smooth="yes"/>
      <point x="520" y="214"/>
      <point x="485" y="247"/>
      <point x="444" y="246" type="curve"/>
      <point x="437" y="219"/>
      <point x="432" y="199"/>
      <point x="426" y="178" type="curve" smooth="yes"/>
      <point x="410" y="110"/>
      <point x="345" y="56"/>
    </contour>
  </outline>
</glyph>
<glyph name="four" format="1">
  <advance width="600"/>
  <unicode hex="0034"/>
  <outline>
    <contour>
      <point x="106" y="196" type="curve"/>
      <point x="254" y="360"/>
      <point x="403" y="525"/>
      <point x="552" y="689" type="curve"/>
      <point x="555" y="700" type="line"/>
      <point x="515" y="700"/>
      <point x="486" y="700"/>
      <point x="475" y="700" type="curve" smooth="yes"/>
      <point x="470" y="700"/>
      <point x="462" y="700"/>
      <point x="455" y="691" type="curve" smooth="yes"/>
      <point x="254" y="467"/>
      <point x="40" y="226"/>
      <point x="39" y="222" type="curve" smooth="yes"/>
      <point x="35" y="204"/>
      <point x="77" y="196"/>
    </contour>
    <contour>
      <point x="532" y="153" type="line"/>
      <point x="537" y="174"/>
      <point x="542" y="194"/>
      <point x="547" y="216" type="curve" smooth="yes"/>
      <point x="549" y="222"/>
      <point x="545" y="227"/>
      <point x="539" y="227" type="curve" smooth="yes"/>
      <point x="385" y="227" type="line"/>
      <point x="303" y="227"/>
      <point x="167" y="224"/>
      <point x="39" y="222" type="curve"/>
      <point x="24" y="164" type="line" smooth="yes"/>
      <point x="24" y="161"/>
      <point x="24" y="158"/>
      <point x="25" y="156" type="curve" smooth="yes"/>
      <point x="27" y="154"/>
      <point x="30" y="153"/>
      <point x="33" y="153" type="curve" smooth="yes"/>
    </contour>
    <contour>
      <point x="413" y="0" type="curve"/>
      <point x="420" y="31"/>
      <point x="429" y="65"/>
      <point x="438" y="99" type="curve" smooth="yes"/>
      <point x="505" y="368" type="line" smooth="yes"/>
      <point x="507" y="375"/>
      <point x="504" y="379"/>
      <point x="497" y="379" type="curve" smooth="yes"/>
      <point x="437" y="379" type="line"/>
      <point x="419" y="326"/>
      <point x="403" y="273"/>
      <point x="386" y="219" type="curve"/>
      <point x="334" y="11" type="line" smooth="yes"/>
      <point x="332" y="5"/>
      <point x="336" y="0"/>
      <point x="342" y="0" type="curve" smooth="yes"/>
      <point x="366" y="0"/>
      <point x="389" y="0"/>
    </contour>
  </outline>
</glyph>
<glyph name="seven" format="1">
  <advance width="600"/>
  <unicode hex="0037"/>
  <outline>
    <contour>
      <point x="566" y="627" type="line" smooth="yes"/>
      <point x="589" y="627"/>
      <point x="613" y="628"/>
      <point x="636" y="630" type="curve"/>
      <point x="650" y="689" type="line"/>
      <point x="652" y="695"/>
      <point x="648" y="700"/>
      <point x="642" y="700" type="curve"/>
      <point x="179" y="700" type="line"/>
      <point x="170" y="664" type="line" smooth="yes"/>
      <point x="163" y="637"/>
      <point x="173" y="627"/>
      <point x="188" y="627" type="curve" smooth="yes"/>
    </contour>
    <contour>
      <point x="226" y="0" type="line"/>
      <point x="479" y="387"/>
      <point x="633" y="621"/>
      <point x="636" y="630" type="curve" smooth="yes"/>
      <point x="641" y="654"/>
      <point x="613" y="658"/>
      <point x="563" y="658" type="curve"/>
      <point x="315" y="282"/>
      <point x="144" y="18"/>
      <point x="142" y="11" type="curve" smooth="yes"/>
      <point x="140" y="4"/>
      <point x="143" y="0"/>
      <point x="150" y="0" type="curve" smooth="yes"/>
    </contour>
    <contour>
      <point x="209" y="495" type="curve"/>
      <point x="223" y="549"/>
      <point x="240" y="618"/>
      <point x="254" y="673" type="curve"/>
      <point x="259" y="692"/>
      <point x="240" y="700"/>
      <point x="190" y="700" type="curve" smooth="yes"/>
      <point x="179" y="700" type="line"/>
      <point x="164" y="640"/>
      <point x="145" y="566"/>
      <point x="131" y="506" type="curve"/>
      <point x="129" y="500"/>
      <point x="133" y="495"/>
      <point x="139" y="495" type="curve" smooth="yes"/>
      <point x="162" y="495"/>
      <point x="186" y="495"/>
    </contour>
  </outline>
</glyph>
<glyph name="eight" format="1">
  <advance width="600"/>
  <unicode hex="0038"/>
  <outline>
    <contour>
      <point x="388" y="356" type="curve" smooth="yes"/>
      <point x="298" y="391" type="line" smooth="yes"/>
      <point x="225" y="421"/>
      <point x="204" y="474"/>
      <point x="219" y="530" type="curve" smooth="yes"/>
      <point x="223" y="549"/>
      <point x="228" y="566"/>
      <point x="234" y="592" type="curve"/>
      <point x="194" y="592"/>
      <point x="150" y="568"/>
      <point x="140" y="530" type="curve" smooth="yes"/>
      <point x="119" y="447"/>
      <point x="154" y="379"/>
      <point x="265" y="333" type="curve" smooth="yes"/>
      <point x="353" y="297" type="line" smooth="yes"/>
      <point x="427" y="266"/>
      <point x="449" y="220"/>
      <point x="437" y="169" type="curve" smooth="yes"/>
      <point x="427" y="129"/>
      <point x="422" y="114"/>
      <point x="419" y="101" type="curve"/>
      <point x="458" y="106"/>
      <point x="507" y="141"/>
      <point x="516" y="173" type="curve"/>
      <point x="534" y="247"/>
      <point x="494" y="314"/>
    </contour>
    <contour>
      <point x="243" y="-20" type="curve" smooth="yes"/>
      <point x="402" y="-20"/>
      <point x="484" y="49"/>
      <point x="508" y="145" type="curve" smooth="yes"/>
      <point x="516" y="173" type="line" smooth="yes"/>
      <point x="521" y="200"/>
      <point x="495" y="222"/>
      <point x="451" y="224" type="curve"/>
      <point x="448" y="217"/>
      <point x="444" y="195"/>
      <point x="434" y="158" type="curve" smooth="yes"/>
      <point x="417" y="92"/>
      <point x="359" y="52"/>
      <point x="255" y="52" type="curve" smooth="yes"/>
      <point x="208" y="52"/>
      <point x="172" y="52"/>
      <point x="149" y="52" type="curve"/>
      <point x="139" y="15"/>
      <point x="192" y="-20"/>
    </contour>
    <contour>
      <point x="407" y="720" type="curve" smooth="yes"/>
      <point x="270" y="720"/>
      <point x="173" y="660"/>
      <point x="147" y="557" type="curve" smooth="yes"/>
      <point x="140" y="530" type="line" smooth="yes"/>
      <point x="131" y="494"/>
      <point x="150" y="467"/>
      <point x="203" y="467" type="curve"/>
      <point x="209" y="491"/>
      <point x="214" y="511"/>
      <point x="222" y="543" type="curve" smooth="yes"/>
      <point x="238" y="609"/>
      <point x="300" y="648"/>
      <point x="385" y="648" type="curve" smooth="yes"/>
      <point x="431" y="648"/>
      <point x="468" y="648"/>
      <point x="492" y="648" type="curve"/>
      <point x="503" y="692"/>
      <point x="462" y="720"/>
    </contour>
    <contour>
      <point x="365" y="345" type="curve" smooth="yes"/>
      <point x="446" y="345"/>
      <point x="559" y="418"/>
      <point x="582" y="501" type="curve" smooth="yes"/>
      <point x="589" y="529" type="line" smooth="yes"/>
      <point x="618" y="634"/>
      <point x="542" y="720"/>
      <point x="407" y="720" type="curve" smooth="yes"/>
      <point x="388" y="720"/>
      <point x="384" y="711"/>
      <point x="385" y="648" type="curve"/>
      <point x="488" y="648"/>
      <point x="528" y="597"/>
      <point x="507" y="519" type="curve" smooth="yes"/>
      <point x="504" y="507" type="line" smooth="yes"/>
      <point x="488" y="444"/>
      <point x="428" y="404"/>
      <point x="313" y="370" type="curve"/>
      <point x="320" y="354"/>
      <point x="340" y="345"/>
    </contour>
    <contour>
      <point x="255" y="52" type="curve"/>
      <point x="137" y="52"/>
      <point x="100" y="112"/>
      <point x="116" y="179" type="curve" smooth="yes"/>
      <point x="119" y="191" type="line" smooth="yes"/>
      <point x="134" y="257"/>
      <point x="203" y="305"/>
      <point x="316" y="324" type="curve"/>
      <point x="308" y="342"/>
      <point x="294" y="354"/>
      <point x="267" y="354" type="curve" smooth="yes"/>
      <point x="173" y="354"/>
      <point x="69" y="290"/>
      <point x="44" y="199" type="curve" smooth="yes"/>
      <point x="36" y="170" type="line" smooth="yes"/>
      <point x="9" y="68"/>
      <point x="84" y="-20"/>
      <point x="243" y="-20" type="curve" smooth="yes"/>
      <point x="248" y="-20"/>
      <point x="265" y="4"/>
    </contour>
  </outline>
</glyph>
<glyph name="nine" format="1">
  <advance width="600"/>
  <unicode hex="0039"/>
  <outline>
    <contour>
      <point x="482" y="648" type="curve"/>
      <point x="493" y="692"/>
      <point x="457" y="720"/>
      <point x="385" y="720" type="curve"/>
      <point x="243" y="720"/>
      <point x="162" y="645"/>
      <point x="132" y="525" type="curve" smooth="yes"/>
      <point x="115" y="462" type="line" smooth="yes"/>
      <point x="105" y="423"/>
      <point x="131" y="389"/>
      <point x="178" y="389" type="curve"/>
      <point x="184" y="414"/>
      <point x="190" y="434"/>
      <point x="197" y="465" type="curve" smooth="yes"/>
      <point x="210" y="517" type="line" smooth="yes"/>
      <point x="232" y="604"/>
      <point x="281" y="648"/>
      <point x="378" y="648" type="curve" smooth="yes"/>
      <point x="422" y="648"/>
      <point x="458" y="648"/>
    </contour>
    <contour>
      <point x="312" y="56" type="curve"/>
      <point x="284" y="56"/>
      <point x="264" y="56"/>
      <point x="223" y="56" type="curve" smooth="yes"/>
      <point x="157" y="56"/>
      <point x="114" y="66"/>
      <point x="68" y="101" type="curve"/>
      <point x="54" y="101" type="line"/>
      <point x="50" y="83"/>
      <point x="45" y="65"/>
      <point x="38" y="34" type="curve" smooth="yes"/>
      <point x="37" y="30"/>
      <point x="37" y="28"/>
      <point x="39" y="25" type="curve" smooth="yes"/>
      <point x="58" y="1"/>
      <point x="136" y="-20"/>
      <point x="212" y="-20" type="curve" smooth="yes"/>
      <point x="277" y="-20"/>
      <point x="300" y="6"/>
    </contour>
    <contour>
      <point x="531" y="256" type="curve" smooth="yes"/>
      <point x="571" y="412" type="line" smooth="yes"/>
      <point x="621" y="614"/>
      <point x="550" y="720"/>
      <point x="385" y="720" type="curve" smooth="yes"/>
      <point x="373" y="720"/>
      <point x="371" y="694"/>
      <point x="378" y="648" type="curve"/>
      <point x="484" y="648"/>
      <point x="531" y="582"/>
      <point x="491" y="423" type="curve" smooth="yes"/>
      <point x="451" y="268" type="line" smooth="yes"/>
      <point x="414" y="118"/>
      <point x="348" y="56"/>
      <point x="223" y="56" type="curve"/>
      <point x="198" y="14"/>
      <point x="204" y="-20"/>
      <point x="212" y="-20" type="curve" smooth="yes"/>
      <point x="392" y="-20"/>
      <point x="482" y="61"/>
    </contour>
    <contour>
      <point x="278" y="265" type="curve" smooth="yes"/>
      <point x="351" y="265"/>
      <point x="423" y="292"/>
      <point x="467" y="327" type="curve" smooth="yes"/>
      <point x="478" y="335"/>
      <point x="487" y="354"/>
      <point x="498" y="401" type="curve"/>
      <point x="433" y="355"/>
      <point x="374" y="336"/>
      <point x="307" y="336" type="curve" smooth="yes"/>
      <point x="210" y="336"/>
      <point x="178" y="388"/>
      <point x="197" y="465" type="curve" smooth="yes"/>
      <point x="200" y="477"/>
      <point x="204" y="494"/>
      <point x="206" y="503" type="curve"/>
      <point x="150" y="499"/>
      <point x="121" y="485"/>
      <point x="115" y="462" type="curve" smooth="yes"/>
      <point x="87" y="347"/>
      <point x="148" y="265"/>
    </contour>
  </outline>
</glyph>
<glyph name="colon" format="1">
  <advance width="600"/>
  <unicode hex="003A"/>
  <outline>
    <contour>
      <point x="406" y="392" type="curve"/>
      <point x="439" y="526" type="line" smooth="yes"/>
      <point x="441" y="532"/>
      <point x="437" y="537"/>
      <point x="431" y="537" type="curve" smooth="yes"/>
      <point x="391" y="537"/>
      <point x="334" y="537"/>
      <point x="294" y="537" type="curve"/>
      <point x="261" y="403" type="line" smooth="yes"/>
      <point x="259" y="397"/>
      <point x="263" y="392"/>
      <point x="269" y="392" type="curve" smooth="yes"/>
      <point x="309" y="392"/>
      <point x="365" y="392"/>
    </contour>
    <contour>
      <point x="306" y="-7" type="curve"/>
      <point x="339" y="127" type="line" smooth="yes"/>
      <point x="341" y="133"/>
      <point x="337" y="138"/>
      <point x="331" y="138" type="curve" smooth="yes"/>
      <point x="291" y="138"/>
      <point x="235" y="138"/>
      <point x="194" y="138" type="curve"/>
      <point x="161" y="4" type="line" smooth="yes"/>
      <point x="159" y="-2"/>
      <point x="163" y="-7"/>
      <point x="169" y="-7" type="curve" smooth="yes"/>
      <point x="209" y="-7"/>
      <point x="266" y="-7"/>
    </contour>
  </outline>
</glyph>
<glyph name="greater" format="1">
  <advance width="600"/>
  <unicode hex="003E"/>
  <outline>
    <contour>
      <point x="40" y="106" type="curve"/>
      <point x="22" y="33" type="line"/>
      <point x="21" y="28"/>
      <point x="22" y="25"/>
      <point x="27" y="25" type="curve" smooth="yes"/>
      <point x="31" y="25"/>
      <point x="34" y="26"/>
      <point x="50" y="33" type="curve" smooth="yes"/>
      <point x="97" y="54"/>
      <point x="358" y="171"/>
      <point x="514" y="241" type="curve"/>
      <point x="539" y="341" type="line"/>
      <point x="526" y="327"/>
      <point x="514" y="318"/>
      <point x="481" y="304" type="curve"/>
      <point x="334" y="238"/>
      <point x="187" y="172"/>
    </contour>
    <contour>
      <point x="160" y="583" type="curve"/>
      <point x="153" y="557"/>
      <point x="147" y="533"/>
      <point x="141" y="507" type="curve" smooth="yes"/>
      <point x="139" y="499"/>
      <point x="139" y="496"/>
      <point x="146" y="491" type="curve" smooth="yes"/>
      <point x="245" y="434"/>
      <point x="344" y="376"/>
      <point x="446" y="317" type="curve" smooth="yes"/>
      <point x="451" y="314"/>
      <point x="452" y="311"/>
      <point x="450" y="304" type="curve" smooth="yes"/>
      <point x="446" y="287"/>
      <point x="441" y="267"/>
      <point x="435" y="244" type="curve"/>
      <point x="494" y="246"/>
      <point x="529" y="299"/>
      <point x="538" y="335" type="curve" smooth="yes"/>
      <point x="542" y="350" type="line" smooth="yes"/>
      <point x="544" y="359"/>
      <point x="542" y="364"/>
      <point x="534" y="369" type="curve" smooth="yes"/>
      <point x="410" y="440"/>
      <point x="285" y="511"/>
    </contour>
  </outline>
</glyph>
<glyph name="at" format="1">
  <advance width="600"/>
  <unicode hex="0040"/>
  <outline>
    <contour>
      <point x="527" y="509" type="curve" smooth="yes"/>
      <point x="518" y="525"/>
      <point x="484" y="540"/>
      <point x="441" y="540" type="curve" smooth="yes"/>
      <point x="403" y="540"/>
      <point x="372" y="530"/>
      <point x="345" y="509" type="curve" smooth="yes"/>
      <point x="325" y="493"/>
      <point x="324" y="477"/>
      <point x="357" y="403" type="curve"/>
      <point x="370" y="457"/>
      <point x="401" y="474"/>
      <point x="445" y="474" type="curve" smooth="yes"/>
      <point x="472" y="474"/>
      <point x="494" y="470"/>
      <point x="519" y="459" type="curve"/>
      <point x="534" y="483"/>
      <point x="535" y="498"/>
    </contour>
    <contour>
      <point x="456" y="168" type="curve"/>
      <point x="410" y="121"/>
      <point x="360" y="96"/>
      <point x="323" y="96" type="curve" smooth="yes"/>
      <point x="297" y="96"/>
      <point x="284" y="115"/>
      <point x="292" y="143" type="curve" smooth="yes"/>
      <point x="357" y="403" type="line" smooth="yes"/>
      <point x="367" y="445"/>
      <point x="381" y="469"/>
      <point x="419" y="503" type="curve"/>
      <point x="381" y="524"/>
      <point x="367" y="526"/>
      <point x="345" y="509" type="curve" smooth="yes"/>
      <point x="314" y="483"/>
      <point x="295" y="450"/>
      <point x="283" y="404" type="curve" smooth="yes"/>
      <point x="216" y="134" type="line" smooth="yes"/>
      <point x="199" y="66"/>
      <point x="227" y="24"/>
      <point x="286" y="24" type="curve" smooth="yes"/>
      <point x="333" y="24"/>
      <point x="373" y="43"/>
      <point x="434" y="98" type="curve" smooth="yes"/>
      <point x="442" y="106"/>
      <point x="444" y="113"/>
    </contour>
    <contour>
      <point x="469" y="34" type="line"/>
      <point x="477" y="69"/>
      <point x="486" y="104"/>
      <point x="495" y="139" type="curve"/>
      <point x="596" y="544" type="line" smooth="yes"/>
      <point x="623" y="653"/>
      <point x="593" y="760"/>
      <point x="430" y="760" type="curve" smooth="yes"/>
      <point x="418" y="760"/>
      <point x="412" y="750"/>
      <point x="417" y="697" type="curve"/>
      <point x="495" y="697"/>
      <point x="553" y="666"/>
      <point x="521" y="539" type="curve" smooth="yes"/>
      <point x="414" y="110" type="line" smooth="yes"/>
      <point x="413" y="105"/>
      <point x="427" y="34"/>
      <point x="433" y="34" type="curve" smooth="yes"/>
    </contour>
    <contour>
      <point x="132" y="498" type="curve" smooth="yes"/>
      <point x="31" y="94" type="line" smooth="yes"/>
      <point x="5" y="-11"/>
      <point x="6" y="-74"/>
      <point x="45" y="-126" type="curve" smooth="yes"/>
      <point x="65" y="-153"/>
      <point x="158" y="-166"/>
      <point x="223" y="-128" type="curve"/>
      <point x="76" y="-128"/>
      <point x="68" y="-20"/>
      <point x="93" y="82" type="curve" smooth="yes"/>
      <point x="194" y="483" type="line" smooth="yes"/>
      <point x="228" y="619"/>
      <point x="304" y="697"/>
      <point x="417" y="697" type="curve" smooth="yes"/>
      <point x="481" y="697"/>
      <point x="524" y="675"/>
      <point x="545" y="641" type="curve"/>
      <point x="556" y="646"/>
      <point x="560" y="653"/>
      <point x="564" y="666" type="curve" smooth="yes"/>
      <point x="576" y="714"/>
      <point x="508" y="760"/>
      <point x="430" y="760" type="curve" smooth="yes"/>
      <point x="287" y="760"/>
      <point x="172" y="657"/>
    </contour>
    <contour>
      <point x="203" y="-190" type="curve" smooth="yes"/>
      <point x="268" y="-190"/>
      <point x="335" y="-174"/>
      <point x="355" y="-159" type="curve" smooth="yes"/>
      <point x="357" y="-157"/>
      <point x="359" y="-154"/>
      <point x="360" y="-151" type="curve" smooth="yes"/>
      <point x="373" y="-100" type="line"/>
      <point x="356" y="-100" type="line"/>
      <point x="313" y="-119"/>
      <point x="272" y="-128"/>
      <point x="223" y="-128" type="curve" smooth="yes"/>
      <point x="142" y="-128"/>
      <point x="102" y="-100"/>
      <point x="68" y="-44" type="curve"/>
      <point x="39" y="-72"/>
      <point x="29" y="-104"/>
      <point x="45" y="-126" type="curve"/>
      <point x="73" y="-164"/>
      <point x="129" y="-190"/>
    </contour>
  </outline>
</glyph>
<glyph name="B" format="1">
  <advance width="600"/>
  <unicode hex="0042"/>
  <outline>
    <contour>
      <point x="111" y="8" type="curve"/>
      <point x="275" y="667" type="line" smooth="yes"/>
      <point x="278" y="677"/>
      <point x="255" y="681"/>
      <point x="196" y="681" type="curve"/>
      <point x="29" y="11" type="line"/>
      <point x="28" y="10"/>
      <point x="64" y="8"/>
    </contour>
    <contour>
      <point x="138" y="700" type="curve"/>
      <point x="134" y="681"/>
      <point x="129" y="659"/>
      <point x="123" y="637" type="curve" smooth="yes"/>
      <point x="122" y="634"/>
      <point x="122" y="631"/>
      <point x="124" y="629" type="curve" smooth="yes"/>
      <point x="126" y="627"/>
      <point x="128" y="626"/>
      <point x="131" y="626" type="curve" smooth="yes"/>
      <point x="148" y="626"/>
      <point x="171" y="626"/>
      <point x="194" y="626" type="curve" smooth="yes"/>
      <point x="253" y="626"/>
      <point x="340" y="626"/>
      <point x="400" y="626" type="curve" smooth="yes"/>
      <point x="460" y="626"/>
      <point x="472" y="626"/>
      <point x="510" y="626" type="curve"/>
      <point x="520" y="664"/>
      <point x="500" y="700"/>
      <point x="415" y="700" type="curve" smooth="yes"/>
      <point x="327" y="700"/>
      <point x="228" y="700"/>
    </contour>
    <contour>
      <point x="577" y="503" type="curve" smooth="yes"/>
      <point x="583" y="529" type="line" smooth="yes"/>
      <point x="606" y="624"/>
      <point x="565" y="700"/>
      <point x="415" y="700" type="curve" smooth="yes"/>
      <point x="402" y="700"/>
      <point x="397" y="689"/>
      <point x="400" y="626" type="curve"/>
      <point x="490" y="626"/>
      <point x="515" y="589"/>
      <point x="499" y="526" type="curve" smooth="yes"/>
      <point x="492" y="495" type="line" smooth="yes"/>
      <point x="475" y="428"/>
      <point x="436" y="386"/>
      <point x="317" y="386" type="curve" smooth="yes"/>
      <point x="269" y="386"/>
      <point x="226" y="386"/>
      <point x="179" y="386" type="curve"/>
      <point x="176" y="376"/>
      <point x="174" y="363"/>
      <point x="172" y="354" type="curve" smooth="yes"/>
      <point x="170" y="348"/>
      <point x="174" y="343"/>
      <point x="181" y="343" type="curve" smooth="yes"/>
      <point x="323" y="343" type="line" smooth="yes"/>
      <point x="469" y="343"/>
      <point x="550" y="395"/>
    </contour>
    <contour>
      <point x="506" y="168" type="curve" smooth="yes"/>
      <point x="513" y="198" type="line" smooth="yes"/>
      <point x="539" y="300"/>
      <point x="473" y="369"/>
      <point x="321" y="369" type="curve" smooth="yes"/>
      <point x="188" y="369" type="line" smooth="yes"/>
      <point x="181" y="369"/>
      <point x="173" y="364"/>
      <point x="172" y="358" type="curve"/>
      <point x="164" y="324" type="line"/>
      <point x="301" y="324" type="line"/>
      <point x="427" y="324"/>
      <point x="448" y="269"/>
      <point x="433" y="209" type="curve" smooth="yes"/>
      <point x="424" y="174" type="line" smooth="yes"/>
      <point x="406" y="104"/>
      <point x="358" y="74"/>
      <point x="266" y="74" type="curve" smooth="yes"/>
      <point x="211" y="74"/>
      <point x="150" y="74"/>
      <point x="89" y="74" type="curve"/>
      <point x="34" y="23"/>
      <point x="30" y="18"/>
      <point x="29" y="11" type="curve" smooth="yes"/>
      <point x="27" y="4"/>
      <point x="30" y="0"/>
      <point x="37" y="0" type="curve" smooth="yes"/>
      <point x="265" y="0" type="line" smooth="yes"/>
      <point x="384" y="0"/>
      <point x="475" y="48"/>
    </contour>
  </outline>
</glyph>
<glyph name="D" format="1">
  <advance width="600"/>
  <unicode hex="0044"/>
  <outline>
    <contour>
      <point x="111" y="4" type="curve"/>
      <point x="275" y="660" type="line" smooth="yes"/>
      <point x="276" y="667"/>
      <point x="273" y="671"/>
      <point x="193" y="671" type="curve"/>
      <point x="29" y="11" type="line" smooth="yes"/>
      <point x="27" y="4"/>
      <point x="32" y="4"/>
    </contour>
    <contour>
      <point x="142" y="700" type="curve"/>
      <point x="136" y="678"/>
      <point x="132" y="659"/>
      <point x="126" y="637" type="curve"/>
      <point x="125" y="634"/>
      <point x="125" y="631"/>
      <point x="127" y="629" type="curve" smooth="yes"/>
      <point x="129" y="627"/>
      <point x="131" y="626"/>
      <point x="134" y="626" type="curve" smooth="yes"/>
      <point x="152" y="626"/>
      <point x="174" y="626"/>
      <point x="198" y="626" type="curve" smooth="yes"/>
      <point x="244" y="626"/>
      <point x="323" y="626"/>
      <point x="367" y="626" type="curve" smooth="yes"/>
      <point x="420" y="626"/>
      <point x="432" y="626"/>
      <point x="485" y="626" type="curve"/>
      <point x="480" y="669"/>
      <point x="452" y="700"/>
      <point x="385" y="700" type="curve" smooth="yes"/>
      <point x="319" y="700"/>
      <point x="221" y="700"/>
    </contour>
    <contour>
      <point x="526" y="226" type="curve" smooth="yes"/>
      <point x="579" y="436" type="line" smooth="yes"/>
      <point x="628" y="632"/>
      <point x="525" y="700"/>
      <point x="385" y="700" type="curve"/>
      <point x="383" y="700"/>
      <point x="363" y="686"/>
      <point x="367" y="626" type="curve"/>
      <point x="490" y="626"/>
      <point x="530" y="570"/>
      <point x="497" y="444" type="curve" smooth="yes"/>
      <point x="444" y="231" type="line" smooth="yes"/>
      <point x="416" y="123"/>
      <point x="344" y="74"/>
      <point x="230" y="74" type="curve" smooth="yes"/>
      <point x="179" y="74"/>
      <point x="111" y="74"/>
      <point x="57" y="74" type="curve"/>
      <point x="43" y="53"/>
      <point x="36" y="42"/>
      <point x="29" y="11" type="curve" smooth="yes"/>
      <point x="27" y="4"/>
      <point x="31" y="0"/>
      <point x="37" y="0" type="curve" smooth="yes"/>
      <point x="217" y="0" type="line" smooth="yes"/>
      <point x="388" y="0"/>
      <point x="489" y="76"/>
    </contour>
    <contour>
      <point x="396" y="711" type="move" name="top"/>
    </contour>
  </outline>
</glyph>
<glyph name="E" format="1">
  <advance width="600"/>
  <unicode hex="0045"/>
  <outline>
    <contour>
      <point x="138" y="700" type="line"/>
      <point x="133" y="678"/>
      <point x="129" y="659"/>
      <point x="123" y="637" type="curve" smooth="yes"/>
      <point x="122" y="634"/>
      <point x="122" y="631"/>
      <point x="124" y="629" type="curve" smooth="yes"/>
      <point x="126" y="627"/>
      <point x="129" y="626"/>
      <point x="132" y="626" type="curve" smooth="yes"/>
      <point x="623" y="626" type="line"/>
      <point x="629" y="648"/>
      <point x="633" y="667"/>
      <point x="639" y="689" type="curve" smooth="yes"/>
      <point x="640" y="693"/>
      <point x="640" y="696"/>
      <point x="638" y="698" type="curve" smooth="yes"/>
      <point x="636" y="700"/>
      <point x="634" y="700"/>
      <point x="631" y="700" type="curve" smooth="yes"/>
    </contour>
    <contour>
      <point x="122" y="47" type="curve"/>
      <point x="277" y="666" type="line" smooth="yes"/>
      <point x="278" y="672"/>
      <point x="275" y="677"/>
      <point x="195" y="677" type="curve"/>
      <point x="44" y="74" type="line"/>
      <point x="41" y="63"/>
      <point x="50" y="47"/>
    </contour>
    <contour>
      <point x="44" y="74" type="line"/>
      <point x="29" y="11" type="line" smooth="yes"/>
      <point x="27" y="5"/>
      <point x="31" y="0"/>
      <point x="37" y="0" type="curve" smooth="yes"/>
      <point x="467" y="0" type="line"/>
      <point x="472" y="22"/>
      <point x="476" y="39"/>
      <point x="483" y="63" type="curve" smooth="yes"/>
      <point x="484" y="69"/>
      <point x="480" y="74"/>
      <point x="474" y="74" type="curve" smooth="yes"/>
    </contour>
    <contour>
      <point x="159" y="392" type="line"/>
      <point x="142" y="324"/>
      <point x="146" y="320"/>
      <point x="152" y="320" type="curve" smooth="yes"/>
      <point x="494" y="320" type="line"/>
      <point x="498" y="339"/>
      <point x="503" y="359"/>
      <point x="509" y="381" type="curve" smooth="yes"/>
      <point x="510" y="384"/>
      <point x="510" y="387"/>
      <point x="508" y="389" type="curve" smooth="yes"/>
      <point x="507" y="391"/>
      <point x="504" y="392"/>
      <point x="501" y="392" type="curve" smooth="yes"/>
    </contour>
    <contour>
      <point x="411" y="711" type="move" name="top"/>
    </contour>
    <contour>
      <point x="466" y="-1" type="move" name="ogonek"/>
    </contour>
    <contour>
      <point x="253" y="-1" type="move" name="bottom"/>
    </contour>
  </outline>
</glyph>
<glyph name="F" format="1">
  <advance width="600"/>
  <unicode hex="0046"/>
  <outline>
    <contour>
      <point x="133" y="0" type="curve"/>
      <point x="142" y="33"/>
      <point x="150" y="66"/>
      <point x="158" y="98" type="curve" smooth="yes"/>
      <point x="299" y="663" type="line"/>
      <point x="301" y="670"/>
      <point x="293" y="675"/>
      <point x="218" y="675" type="curve"/>
      <point x="52" y="11" type="line" smooth="yes"/>
      <point x="50" y="5"/>
      <point x="54" y="0"/>
      <point x="60" y="0" type="curve" smooth="yes"/>
      <point x="85" y="0"/>
      <point x="109" y="0"/>
    </contour>
    <contour>
      <point x="162" y="700" type="line"/>
      <point x="156" y="678"/>
      <point x="152" y="659"/>
      <point x="147" y="637" type="curve" smooth="yes"/>
      <point x="146" y="634"/>
      <point x="146" y="631"/>
      <point x="148" y="629" type="curve" smooth="yes"/>
      <point x="149" y="627"/>
      <point x="152" y="626"/>
      <point x="155" y="626" type="curve"/>
      <point x="623" y="626" type="line"/>
      <point x="629" y="648"/>
      <point x="633" y="667"/>
      <point x="639" y="689" type="curve" smooth="yes"/>
      <point x="640" y="692"/>
      <point x="640" y="695"/>
      <point x="638" y="697" type="curve" smooth="yes"/>
      <point x="637" y="699"/>
      <point x="634" y="700"/>
      <point x="631" y="700" type="curve"/>
    </contour>
    <contour>
      <point x="177" y="368" type="line"/>
      <point x="160" y="302"/>
      <point x="162" y="295"/>
      <point x="169" y="295" type="curve"/>
      <point x="493" y="295" type="line"/>
      <point x="499" y="317"/>
      <point x="504" y="335"/>
      <point x="509" y="356" type="curve"/>
      <point x="510" y="360"/>
      <point x="510" y="364"/>
      <point x="508" y="366" type="curve" smooth="yes"/>
      <point x="506" y="368"/>
      <point x="504" y="368"/>
      <point x="501" y="368" type="curve"/>
    </contour>
  </outline>
</glyph>
<glyph name="G" format="1">
  <advance width="592"/>
  <unicode hex="0047"/>
  <outline>
    <contour>
      <point x="406" y="647" type="curve" smooth="yes"/>
      <point x="485" y="647"/>
      <point x="530" y="631"/>
      <point x="568" y="587" type="curve"/>
      <point x="605" y="621"/>
      <point x="612" y="629"/>
      <point x="614" y="638" type="curve" smooth="yes"/>
      <point x="617" y="649"/>
      <point x="617" y="652"/>
      <point x="613" y="657" type="curve" smooth="yes"/>
      <point x="586" y="692"/>
      <point x="511" y="720"/>
      <point x="421" y="720" type="curve" smooth="yes"/>
      <point x="256" y="720"/>
      <point x="162" y="645"/>
      <point x="118" y="466" type="curve" smooth="yes"/>
      <point x="60" y="238" type="line" smooth="yes"/>
      <point x="49" y="191"/>
      <point x="73" y="118"/>
      <point x="113" y="117" type="curve"/>
      <point x="122" y="154"/>
      <point x="131" y="190"/>
      <point x="142" y="234" type="curve" smooth="yes"/>
      <point x="199" y="464" type="line" smooth="yes"/>
      <point x="232" y="595"/>
      <point x="290" y="647"/>
    </contour>
    <contour>
      <point x="263" y="53" type="curve" smooth="yes"/>
      <point x="159" y="53"/>
      <point x="114" y="122"/>
      <point x="142" y="234" type="curve"/>
      <point x="84" y="249"/>
      <point x="64" y="251"/>
      <point x="60" y="238" type="curve" smooth="yes"/>
      <point x="26" y="95"/>
      <point x="88" y="-20"/>
      <point x="252" y="-20" type="curve" smooth="yes"/>
      <point x="390" y="-20"/>
      <point x="469" y="55"/>
      <point x="474" y="74" type="curve" smooth="yes"/>
      <point x="530" y="298" type="line" smooth="yes"/>
      <point x="533" y="309"/>
      <point x="488" y="314"/>
      <point x="454" y="314" type="curve"/>
      <point x="436" y="242"/>
      <point x="421" y="179"/>
      <point x="402" y="106" type="curve" smooth="yes"/>
      <point x="402" y="103"/>
      <point x="347" y="53"/>
    </contour>
    <contour>
      <point x="339" y="356" type="line"/>
      <point x="334" y="335"/>
      <point x="330" y="316"/>
      <point x="325" y="295" type="curve" smooth="yes"/>
      <point x="324" y="292"/>
      <point x="324" y="289"/>
      <point x="326" y="287" type="curve" smooth="yes"/>
      <point x="327" y="285"/>
      <point x="330" y="284"/>
      <point x="333" y="284" type="curve"/>
      <point x="570" y="284" type="line"/>
      <point x="584" y="345" type="line" smooth="yes"/>
      <point x="586" y="351"/>
      <point x="582" y="356"/>
      <point x="576" y="356" type="curve" smooth="yes"/>
    </contour>
    <contour>
      <point x="579" y="497" type="curve"/>
      <point x="614" y="638" type="line" smooth="yes"/>
      <point x="617" y="649"/>
      <point x="609" y="655"/>
      <point x="540" y="655" type="curve"/>
      <point x="538" y="647"/>
      <point x="535" y="636"/>
      <point x="533" y="629" type="curve" smooth="yes"/>
      <point x="503" y="508" type="line" smooth="yes"/>
      <point x="502" y="501"/>
      <point x="505" y="497"/>
      <point x="512" y="497" type="curve" smooth="yes"/>
      <point x="534" y="497"/>
      <point x="557" y="497"/>
    </contour>
    <contour>
      <point x="428" y="711" type="move" name="top"/>
    </contour>
    <contour>
      <point x="250" y="-1" type="move" name="bottom"/>
    </contour>
  </outline>
</glyph>
<glyph name="H" format="1">
  <advance width="600"/>
  <unicode hex="0048"/>
  <outline>
    <contour>
      <point x="187" y="700" type="curve"/>
      <point x="178" y="666"/>
      <point x="170" y="632"/>
      <point x="161" y="598" type="curve" smooth="yes"/>
      <point x="15" y="11" type="line" smooth="yes"/>
      <point x="13" y="5"/>
      <point x="17" y="0"/>
      <point x="23" y="0" type="curve" smooth="yes"/>
      <point x="47" y="0"/>
      <point x="71" y="0"/>
      <point x="96" y="0" type="curve"/>
      <point x="268" y="689" type="line" smooth="yes"/>
      <point x="269" y="692"/>
      <point x="269" y="695"/>
      <point x="267" y="697" type="curve" smooth="yes"/>
      <point x="266" y="699"/>
      <point x="263" y="700"/>
      <point x="260" y="700" type="curve" smooth="yes"/>
      <point x="235" y="700"/>
      <point x="211" y="700"/>
    </contour>
    <contour>
      <point x="455" y="0" type="curve"/>
      <point x="463" y="33"/>
      <point x="472" y="68"/>
      <point x="481" y="103" type="curve" smooth="yes"/>
      <point x="627" y="689" type="line" smooth="yes"/>
      <point x="629" y="695"/>
      <point x="625" y="700"/>
      <point x="619" y="700" type="curve" smooth="yes"/>
      <point x="595" y="700"/>
      <point x="570" y="700"/>
      <point x="546" y="700" type="curve"/>
      <point x="374" y="11" type="line" smooth="yes"/>
      <point x="373" y="8"/>
      <point x="373" y="5"/>
      <point x="375" y="3" type="curve" smooth="yes"/>
      <point x="376" y="1"/>
      <point x="379" y="0"/>
      <point x="382" y="0" type="curve" smooth="yes"/>
      <point x="406" y="0"/>
      <point x="431" y="0"/>
    </contour>
    <contour>
      <point x="154" y="393" type="line"/>
      <point x="139" y="330" type="line" smooth="yes"/>
      <point x="138" y="327"/>
      <point x="138" y="324"/>
      <point x="140" y="322" type="curve" smooth="yes"/>
      <point x="141" y="320"/>
      <point x="144" y="319"/>
      <point x="147" y="319" type="curve"/>
      <point x="499" y="319" type="line"/>
      <point x="518" y="391"/>
      <point x="513" y="393"/>
      <point x="507" y="393" type="curve" smooth="yes"/>
    </contour>
    <contour>
      <point x="411" y="711" type="move" name="top"/>
    </contour>
  </outline>
</glyph>
<glyph name="I" format="1">
  <advance width="600"/>
  <unicode hex="0049"/>
  <outline>
    <contour>
      <point x="283" y="29" type="curve"/>
      <point x="440" y="660" type="line" smooth="yes"/>
      <point x="442" y="666"/>
      <point x="438" y="671"/>
      <point x="359" y="671" type="curve"/>
      <point x="201" y="40" type="line" smooth="yes"/>
      <point x="200" y="34"/>
      <point x="204" y="29"/>
    </contour>
    <contour>
      <point x="192" y="700" type="line"/>
      <point x="187" y="678"/>
      <point x="182" y="659"/>
      <point x="177" y="637" type="curve"/>
      <point x="176" y="634"/>
      <point x="176" y="631"/>
      <point x="178" y="629" type="curve" smooth="yes"/>
      <point x="179" y="627"/>
      <point x="182" y="626"/>
      <point x="185" y="626" type="curve" smooth="yes"/>
      <point x="606" y="626" type="line"/>
      <point x="612" y="648"/>
      <point x="616" y="667"/>
      <point x="622" y="689" type="curve" smooth="yes"/>
      <point x="624" y="695"/>
      <point x="620" y="700"/>
      <point x="614" y="700" type="curve" smooth="yes"/>
    </contour>
    <contour>
      <point x="35" y="74" type="line"/>
      <point x="30" y="52"/>
      <point x="26" y="33"/>
      <point x="20" y="11" type="curve"/>
      <point x="19" y="8"/>
      <point x="19" y="5"/>
      <point x="21" y="3" type="curve" smooth="yes"/>
      <point x="22" y="1"/>
      <point x="25" y="0"/>
      <point x="28" y="0" type="curve" smooth="yes"/>
      <point x="450" y="0" type="line"/>
      <point x="455" y="22"/>
      <point x="460" y="41"/>
      <point x="466" y="63" type="curve" smooth="yes"/>
      <point x="467" y="69"/>
      <point x="463" y="74"/>
      <point x="457" y="74" type="curve" smooth="yes"/>
    </contour>
    <contour>
      <point x="411" y="711" type="move" name="top"/>
    </contour>
    <contour>
      <point x="449" y="-1" type="move" name="ogonek"/>
    </contour>
    <contour>
      <point x="233" y="-1" type="move" name="bottom"/>
    </contour>
  </outline>
</glyph>
<glyph name="J" format="1">
  <advance width="600"/>
  <unicode hex="004A"/>
  <outline>
    <contour>
      <point x="242" y="700" type="line"/>
      <point x="236" y="678"/>
      <point x="232" y="659"/>
      <point x="227" y="637" type="curve" smooth="yes"/>
      <point x="226" y="634"/>
      <point x="226" y="631"/>
      <point x="228" y="629" type="curve" smooth="yes"/>
      <point x="229" y="627"/>
      <point x="232" y="626"/>
      <point x="235" y="626" type="curve" smooth="yes"/>
      <point x="546" y="626" type="line"/>
      <point x="557" y="667"/>
      <point x="556" y="700"/>
      <point x="534" y="700" type="curve"/>
    </contour>
    <contour>
      <point x="482" y="213" type="curve" smooth="yes"/>
      <point x="601" y="689" type="line" smooth="yes"/>
      <point x="603" y="696"/>
      <point x="601" y="700"/>
      <point x="593" y="700" type="curve" smooth="yes"/>
      <point x="518" y="700" type="line"/>
      <point x="396" y="212" type="line" smooth="yes"/>
      <point x="382" y="158"/>
      <point x="376" y="131"/>
      <point x="367" y="98" type="curve"/>
      <point x="427" y="98"/>
      <point x="463" y="140"/>
    </contour>
    <contour>
      <point x="215" y="56" type="curve" smooth="yes"/>
      <point x="153" y="56"/>
      <point x="115" y="68"/>
      <point x="73" y="98" type="curve"/>
      <point x="59" y="98" type="line"/>
      <point x="53" y="77"/>
      <point x="49" y="60"/>
      <point x="44" y="39" type="curve"/>
      <point x="43" y="33"/>
      <point x="43" y="30"/>
      <point x="45" y="26" type="curve" smooth="yes"/>
      <point x="62" y="5"/>
      <point x="120" y="-20"/>
      <point x="203" y="-20" type="curve" smooth="yes"/>
      <point x="210" y="-20" type="line" smooth="yes"/>
      <point x="355" y="-20"/>
      <point x="442" y="49"/>
      <point x="482" y="213" type="curve"/>
      <point x="485" y="223"/>
      <point x="483" y="236"/>
      <point x="396" y="212" type="curve"/>
      <point x="368" y="104"/>
      <point x="313" y="56"/>
    </contour>
    <contour>
      <point x="410" y="711" type="move" name="top"/>
    </contour>
  </outline>
</glyph>
<glyph name="K" format="1">
  <advance width="600"/>
  <unicode hex="004B"/>
  <outline>
    <contour>
      <point x="192" y="700" type="curve"/>
      <point x="184" y="666"/>
      <point x="175" y="632"/>
      <point x="166" y="598" type="curve" smooth="yes"/>
      <point x="20" y="11" type="line" smooth="yes"/>
      <point x="18" y="5"/>
      <point x="22" y="0"/>
      <point x="28" y="0" type="curve" smooth="yes"/>
      <point x="53" y="0"/>
      <point x="77" y="0"/>
      <point x="102" y="0" type="curve"/>
      <point x="274" y="689" type="line" smooth="yes"/>
      <point x="275" y="693"/>
      <point x="275" y="696"/>
      <point x="273" y="698" type="curve" smooth="yes"/>
      <point x="271" y="700"/>
      <point x="269" y="700"/>
      <point x="266" y="700" type="curve" smooth="yes"/>
      <point x="241" y="700"/>
      <point x="217" y="700"/>
    </contour>
    <contour>
      <point x="642" y="700" type="curve"/>
      <point x="559" y="700" type="line"/>
      <point x="415" y="551"/>
      <point x="253" y="384"/>
      <point x="117" y="243" type="curve"/>
      <point x="106" y="232"/>
      <point x="104" y="220"/>
      <point x="120" y="155" type="curve"/>
      <point x="303" y="339"/>
      <point x="473" y="510"/>
      <point x="590" y="628" type="curve" smooth="yes"/>
      <point x="645" y="683"/>
      <point x="649" y="689"/>
      <point x="649" y="694" type="curve" smooth="yes"/>
      <point x="650" y="697"/>
      <point x="647" y="700"/>
    </contour>
    <contour>
      <point x="311" y="395" type="line"/>
      <point x="251" y="336"/>
      <point x="252" y="323"/>
      <point x="255" y="314" type="curve" smooth="yes"/>
      <point x="362" y="61" type="line" smooth="yes"/>
      <point x="382" y="12"/>
      <point x="405" y="-3"/>
      <point x="457" y="-3" type="curve" smooth="yes"/>
      <point x="485" y="-3" type="line" smooth="yes"/>
      <point x="492" y="-3"/>
      <point x="497" y="1"/>
      <point x="499" y="8" type="curve" smooth="yes"/>
      <point x="504" y="31"/>
      <point x="510" y="54"/>
      <point x="516" y="77" type="curve"/>
      <point x="507" y="77" type="line"/>
      <point x="501" y="77"/>
      <point x="495" y="77"/>
      <point x="481" y="77" type="curve" smooth="yes"/>
      <point x="451" y="77"/>
      <point x="440" y="84"/>
      <point x="429" y="111" type="curve" smooth="yes"/>
    </contour>
    <contour>
      <point x="257" y="-1" type="move" name="bottom"/>
    </contour>
  </outline>
</glyph>
<glyph name="L" format="1">
  <advance width="600"/>
  <unicode hex="004C"/>
  <outline>
    <contour>
      <point x="113" y="47" type="curve"/>
      <point x="274" y="689" type="line" smooth="yes"/>
      <point x="275" y="692"/>
      <point x="275" y="695"/>
      <point x="273" y="697" type="curve" smooth="yes"/>
      <point x="272" y="699"/>
      <point x="269" y="700"/>
      <point x="266" y="700" type="curve" smooth="yes"/>
      <point x="241" y="700"/>
      <point x="217" y="700"/>
      <point x="192" y="700" type="curve"/>
      <point x="184" y="667"/>
      <point x="176" y="634"/>
      <point x="167" y="601" type="curve" smooth="yes"/>
      <point x="35" y="74" type="line" smooth="yes"/>
      <point x="34" y="68"/>
      <point x="34" y="47"/>
    </contour>
    <contour>
      <point x="35" y="74" type="line"/>
      <point x="20" y="11" type="line" smooth="yes"/>
      <point x="18" y="4"/>
      <point x="21" y="0"/>
      <point x="28" y="0" type="curve" smooth="yes"/>
      <point x="467" y="0" type="line"/>
      <point x="472" y="22"/>
      <point x="476" y="41"/>
      <point x="483" y="63" type="curve" smooth="yes"/>
      <point x="484" y="69"/>
      <point x="480" y="74"/>
      <point x="474" y="74" type="curve" smooth="yes"/>
    </contour>
    <contour>
      <point x="478" y="550" type="move" name="caronslovak"/>
    </contour>
    <contour>
      <point x="237" y="711" type="move" name="top"/>
    </contour>
    <contour>
      <point x="419" y="400" type="move" name="dot"/>
    </contour>
    <contour>
      <point x="242" y="-1" type="move" name="bottom"/>
    </contour>
  </outline>
</glyph>
<glyph name="M" format="1">
  <advance width="600"/>
  <unicode hex="004D"/>
  <outline>
    <contour>
      <point x="81" y="0" type="curve"/>
      <point x="95" y="54"/>
      <point x="108" y="108"/>
      <point x="122" y="162" type="curve" smooth="yes"/>
      <point x="155" y="294"/>
      <point x="206" y="548"/>
      <point x="241" y="689" type="curve" smooth="yes"/>
      <point x="242" y="692"/>
      <point x="242" y="695"/>
      <point x="240" y="697" type="curve" smooth="yes"/>
      <point x="239" y="699"/>
      <point x="236" y="700"/>
      <point x="233" y="700" type="curve" smooth="yes"/>
      <point x="213" y="700"/>
      <point x="191" y="700"/>
      <point x="175" y="700" type="curve"/>
      <point x="167" y="667"/>
      <point x="158" y="633"/>
      <point x="150" y="600" type="curve" smooth="yes"/>
      <point x="3" y="11" type="line" smooth="yes"/>
      <point x="2" y="8"/>
      <point x="2" y="5"/>
      <point x="4" y="3" type="curve" smooth="yes"/>
      <point x="5" y="1"/>
      <point x="8" y="0"/>
      <point x="11" y="0" type="curve" smooth="yes"/>
      <point x="34" y="0"/>
      <point x="58" y="0"/>
    </contour>
    <contour>
      <point x="467" y="0" type="curve"/>
      <point x="476" y="34"/>
      <point x="484" y="68"/>
      <point x="493" y="101" type="curve" smooth="yes"/>
      <point x="639" y="689" type="line" smooth="yes"/>
      <point x="640" y="692"/>
      <point x="640" y="695"/>
      <point x="638" y="697" type="curve" smooth="yes"/>
      <point x="637" y="699"/>
      <point x="634" y="700"/>
      <point x="631" y="700" type="curve" smooth="yes"/>
      <point x="573" y="700" type="line"/>
      <point x="573" y="697"/>
      <point x="572" y="695"/>
      <point x="571" y="692" type="curve" smooth="yes"/>
      <point x="550" y="608"/>
      <point x="458" y="291"/>
      <point x="427" y="162" type="curve" smooth="yes"/>
      <point x="414" y="112"/>
      <point x="401" y="61"/>
      <point x="389" y="11" type="curve" smooth="yes"/>
      <point x="388" y="8"/>
      <point x="388" y="5"/>
      <point x="390" y="3" type="curve" smooth="yes"/>
      <point x="391" y="1"/>
      <point x="394" y="0"/>
      <point x="397" y="0" type="curve"/>
      <point x="420" y="0"/>
      <point x="444" y="0"/>
    </contour>
    <contour>
      <point x="192" y="700" type="line"/>
      <point x="215" y="522"/>
      <point x="238" y="345"/>
      <point x="261" y="168" type="curve"/>
      <point x="263" y="163"/>
      <point x="267" y="161"/>
      <point x="271" y="161" type="curve"/>
      <point x="281" y="161"/>
      <point x="297" y="223"/>
      <point x="311" y="278" type="curve"/>
      <point x="293" y="415"/>
      <point x="277" y="551"/>
      <point x="261" y="688" type="curve"/>
      <point x="259" y="697"/>
      <point x="256" y="700"/>
      <point x="248" y="700" type="curve"/>
    </contour>
    <contour>
      <point x="580" y="700" type="curve" smooth="yes"/>
      <point x="572" y="700"/>
      <point x="561" y="700"/>
      <point x="553" y="700" type="curve"/>
      <point x="465" y="560"/>
      <point x="374" y="415"/>
      <point x="287" y="276" type="curve"/>
      <point x="263" y="235"/>
      <point x="262" y="161"/>
      <point x="271" y="161" type="curve"/>
      <point x="282" y="161" type="line"/>
      <point x="388" y="326"/>
      <point x="494" y="491"/>
      <point x="600" y="657" type="curve"/>
      <point x="614" y="680"/>
      <point x="607" y="700"/>
    </contour>
  </outline>
</glyph>
<glyph name="N" format="1">
  <advance width="600"/>
  <unicode hex="004E"/>
  <outline>
    <contour>
      <point x="90" y="0" type="curve"/>
      <point x="221" y="525" type="line"/>
      <point x="225" y="539"/>
      <point x="251" y="694"/>
      <point x="248" y="697" type="curve" smooth="yes"/>
      <point x="247" y="699"/>
      <point x="244" y="700"/>
      <point x="241" y="700" type="curve"/>
      <point x="224" y="700"/>
      <point x="194" y="700"/>
      <point x="183" y="700" type="curve"/>
      <point x="171" y="653"/>
      <point x="160" y="607"/>
      <point x="148" y="560" type="curve" smooth="yes"/>
      <point x="11" y="11" type="line"/>
      <point x="9" y="5"/>
      <point x="13" y="0"/>
      <point x="19" y="0" type="curve"/>
      <point x="43" y="0"/>
      <point x="66" y="0"/>
    </contour>
    <contour>
      <point x="458" y="0" type="line"/>
      <point x="630" y="689" type="line"/>
      <point x="632" y="695"/>
      <point x="628" y="700"/>
      <point x="622" y="700" type="curve"/>
      <point x="552" y="700" type="line"/>
      <point x="418" y="161" type="line"/>
      <point x="415" y="151"/>
      <point x="391" y="5"/>
      <point x="393" y="3" type="curve" smooth="yes"/>
      <point x="394" y="1"/>
      <point x="397" y="0"/>
      <point x="400" y="0" type="curve"/>
    </contour>
    <contour>
      <point x="241" y="700" type="line"/>
      <point x="209" y="694"/>
      <point x="206" y="681"/>
      <point x="209" y="668" type="curve" smooth="yes"/>
      <point x="262" y="448"/>
      <point x="314" y="227"/>
      <point x="367" y="7" type="curve"/>
      <point x="368" y="2"/>
      <point x="371" y="0"/>
      <point x="378" y="0" type="curve" smooth="yes"/>
      <point x="396" y="0"/>
      <point x="397" y="0"/>
      <point x="413" y="0" type="curve"/>
      <point x="418" y="8"/>
      <point x="423" y="51"/>
      <point x="424" y="79" type="curve"/>
      <point x="376" y="282"/>
      <point x="327" y="488"/>
      <point x="281" y="690" type="curve"/>
      <point x="279" y="698"/>
      <point x="275" y="700"/>
      <point x="266" y="700" type="curve"/>
    </contour>
    <contour>
      <point x="411" y="711" type="move" name="top"/>
    </contour>
    <contour>
      <point x="233" y="-1" type="move" name="bottom"/>
    </contour>
  </outline>
</glyph>
<glyph name="O" format="1">
  <advance width="600"/>
  <unicode hex="004F"/>
  <outline>
    <contour>
      <point x="395" y="720" type="curve" smooth="yes"/>
      <point x="251" y="720"/>
      <point x="159" y="648"/>
      <point x="117" y="480" type="curve" smooth="yes"/>
      <point x="54" y="227" type="line" smooth="yes"/>
      <point x="15" y="72"/>
      <point x="103" y="-20"/>
      <point x="244" y="-20" type="curve" smooth="yes"/>
      <point x="250" y="-20"/>
      <point x="263" y="-6"/>
      <point x="258" y="54" type="curve"/>
      <point x="130" y="54"/>
      <point x="112" y="134"/>
      <point x="135" y="229" type="curve" smooth="yes"/>
      <point x="197" y="476" type="line" smooth="yes"/>
      <point x="223" y="579"/>
      <point x="278" y="646"/>
      <point x="382" y="646" type="curve" smooth="yes"/>
      <point x="425" y="646"/>
      <point x="454" y="646"/>
      <point x="475" y="646" type="curve"/>
      <point x="484" y="679"/>
      <point x="460" y="720"/>
    </contour>
    <contour>
      <point x="244" y="-20" type="curve" smooth="yes"/>
      <point x="380" y="-20"/>
      <point x="481" y="41"/>
      <point x="526" y="225" type="curve" smooth="yes"/>
      <point x="589" y="478" type="line" smooth="yes"/>
      <point x="629" y="636"/>
      <point x="534" y="720"/>
      <point x="395" y="720" type="curve" smooth="yes"/>
      <point x="390" y="720"/>
      <point x="377" y="706"/>
      <point x="382" y="646" type="curve"/>
      <point x="508" y="646"/>
      <point x="533" y="574"/>
      <point x="508" y="475" type="curve" smooth="yes"/>
      <point x="446" y="228" type="line" smooth="yes"/>
      <point x="419" y="123"/>
      <point x="365" y="54"/>
      <point x="258" y="54" type="curve" smooth="yes"/>
      <point x="215" y="54"/>
      <point x="189" y="54"/>
      <point x="167" y="54" type="curve"/>
      <point x="158" y="19"/>
      <point x="186" y="-20"/>
    </contour>
    <contour>
      <point x="411" y="711" type="move" name="top"/>
    </contour>
    <contour>
      <point x="334" y="-1" type="move" name="ogonek"/>
    </contour>
    <contour>
      <point x="233" y="-1" type="move" name="bottom"/>
    </contour>
  </outline>
</glyph>
<glyph name="P" format="1">
  <advance width="600"/>
  <unicode hex="0050"/>
  <outline>
    <contour>
      <point x="108" y="0" type="curve"/>
      <point x="116" y="32"/>
      <point x="125" y="66"/>
      <point x="133" y="100" type="curve" smooth="yes"/>
      <point x="273" y="660" type="line" smooth="yes"/>
      <point x="275" y="666"/>
      <point x="271" y="671"/>
      <point x="193" y="671" type="curve"/>
      <point x="29" y="11" type="line" smooth="yes"/>
      <point x="28" y="8"/>
      <point x="28" y="5"/>
      <point x="30" y="3" type="curve" smooth="yes"/>
      <point x="31" y="1"/>
      <point x="34" y="0"/>
      <point x="37" y="0" type="curve" smooth="yes"/>
      <point x="61" y="0"/>
      <point x="84" y="0"/>
    </contour>
    <contour>
      <point x="142" y="700" type="curve"/>
      <point x="136" y="678"/>
      <point x="132" y="659"/>
      <point x="126" y="637" type="curve"/>
      <point x="125" y="634"/>
      <point x="125" y="631"/>
      <point x="127" y="629" type="curve" smooth="yes"/>
      <point x="128" y="627"/>
      <point x="131" y="626"/>
      <point x="134" y="626" type="curve" smooth="yes"/>
      <point x="152" y="626"/>
      <point x="174" y="626"/>
      <point x="198" y="626" type="curve" smooth="yes"/>
      <point x="253" y="626"/>
      <point x="348" y="626"/>
      <point x="400" y="626" type="curve" smooth="yes"/>
      <point x="453" y="626"/>
      <point x="466" y="626"/>
      <point x="493" y="626" type="curve"/>
      <point x="503" y="669"/>
      <point x="485" y="700"/>
      <point x="418" y="700" type="curve" smooth="yes"/>
      <point x="344" y="700"/>
      <point x="232" y="700"/>
    </contour>
    <contour>
      <point x="579" y="429" type="curve" smooth="yes"/>
      <point x="596" y="498" type="line" smooth="yes"/>
      <point x="630" y="633"/>
      <point x="549" y="700"/>
      <point x="418" y="700" type="curve"/>
      <point x="416" y="700"/>
      <point x="396" y="686"/>
      <point x="400" y="626" type="curve"/>
      <point x="500" y="626"/>
      <point x="532" y="587"/>
      <point x="513" y="507" type="curve" smooth="yes"/>
      <point x="495" y="437" type="line" smooth="yes"/>
      <point x="476" y="362"/>
      <point x="421" y="324"/>
      <point x="332" y="324" type="curve" smooth="yes"/>
      <point x="280" y="324"/>
      <point x="218" y="324"/>
      <point x="163" y="324" type="curve"/>
      <point x="157" y="300"/>
      <point x="154" y="287"/>
      <point x="147" y="261" type="curve" smooth="yes"/>
      <point x="146" y="255"/>
      <point x="150" y="250"/>
      <point x="156" y="250" type="curve" smooth="yes"/>
      <point x="319" y="250" type="line" smooth="yes"/>
      <point x="455" y="250"/>
      <point x="548" y="305"/>
    </contour>
  </outline>
</glyph>
<glyph name="Q" format="1">
  <advance width="600"/>
  <unicode hex="0051"/>
  <outline>
    <contour>
      <point x="395" y="720" type="curve" smooth="yes"/>
      <point x="251" y="720"/>
      <point x="159" y="648"/>
      <point x="117" y="480" type="curve" smooth="yes"/>
      <point x="54" y="227" type="line" smooth="yes"/>
      <point x="15" y="72"/>
      <point x="103" y="-20"/>
      <point x="244" y="-20" type="curve" smooth="yes"/>
      <point x="250" y="-20"/>
      <point x="263" y="-6"/>
      <point x="258" y="54" type="curve"/>
      <point x="130" y="54"/>
      <point x="112" y="134"/>
      <point x="135" y="229" type="curve" smooth="yes"/>
      <point x="197" y="476" type="line" smooth="yes"/>
      <point x="223" y="579"/>
      <point x="278" y="646"/>
      <point x="382" y="646" type="curve" smooth="yes"/>
      <point x="425" y="646"/>
      <point x="454" y="646"/>
      <point x="475" y="646" type="curve"/>
      <point x="484" y="679"/>
      <point x="460" y="720"/>
    </contour>
    <contour>
      <point x="244" y="-20" type="curve" smooth="yes"/>
      <point x="380" y="-20"/>
      <point x="481" y="41"/>
      <point x="526" y="225" type="curve" smooth="yes"/>
      <point x="589" y="478" type="line" smooth="yes"/>
      <point x="629" y="636"/>
      <point x="534" y="720"/>
      <point x="395" y="720" type="curve" smooth="yes"/>
      <point x="390" y="720"/>
      <point x="377" y="706"/>
      <point x="382" y="646" type="curve"/>
      <point x="508" y="646"/>
      <point x="533" y="574"/>
      <point x="508" y="475" type="curve" smooth="yes"/>
      <point x="446" y="228" type="line" smooth="yes"/>
      <point x="419" y="123"/>
      <point x="365" y="54"/>
      <point x="258" y="54" type="curve" smooth="yes"/>
      <point x="215" y="54"/>
      <point x="189" y="54"/>
      <point x="167" y="54" type="curve"/>
      <point x="158" y="19"/>
      <point x="186" y="-20"/>
    </contour>
    <contour>
      <point x="365" y="60" type="line"/>
      <point x="294" y="30"/>
      <point x="290" y="26"/>
      <point x="294" y="14" type="curve" smooth="yes"/>
      <point x="340" y="-92" type="line" smooth="yes"/>
      <point x="357" y="-132"/>
      <point x="379" y="-149"/>
      <point x="430" y="-149" type="curve" smooth="yes"/>
      <point x="453" y="-149" type="line" smooth="yes"/>
      <point x="460" y="-149"/>
      <point x="465" y="-145"/>
      <point x="467" y="-138" type="curve" smooth="yes"/>
      <point x="473" y="-115"/>
      <point x="478" y="-93"/>
      <point x="485" y="-69" type="curve"/>
      <point x="476" y="-69" type="line"/>
      <point x="471" y="-69"/>
      <point x="466" y="-69"/>
      <point x="458" y="-69" type="curve" smooth="yes"/>
      <point x="432" y="-69"/>
      <point x="419" y="-64"/>
      <point x="409" y="-40" type="curve" smooth="yes"/>
    </contour>
  </outline>
</glyph>
<glyph name="T" format="1">
  <advance width="600"/>
  <unicode hex="0054"/>
  <outline>
    <contour>
      <point x="165" y="700" type="line"/>
      <point x="160" y="679"/>
      <point x="155" y="658"/>
      <point x="150" y="637" type="curve" smooth="yes"/>
      <point x="149" y="634"/>
      <point x="149" y="631"/>
      <point x="151" y="629" type="curve" smooth="yes"/>
      <point x="152" y="627"/>
      <point x="155" y="626"/>
      <point x="158" y="626" type="curve" smooth="yes"/>
      <point x="633" y="626" type="line"/>
      <point x="638" y="647"/>
      <point x="643" y="668"/>
      <point x="649" y="689" type="curve" smooth="yes"/>
      <point x="651" y="695"/>
      <point x="647" y="700"/>
      <point x="641" y="700" type="curve" smooth="yes"/>
    </contour>
    <contour>
      <point x="276" y="0" type="curve"/>
      <point x="284" y="32"/>
      <point x="292" y="66"/>
      <point x="301" y="100" type="curve" smooth="yes"/>
      <point x="440" y="660" type="line" smooth="yes"/>
      <point x="442" y="666"/>
      <point x="438" y="671"/>
      <point x="359" y="671" type="curve"/>
      <point x="194" y="11" type="line" smooth="yes"/>
      <point x="193" y="7"/>
      <point x="193" y="4"/>
      <point x="195" y="2" type="curve" smooth="yes"/>
      <point x="197" y="0"/>
      <point x="199" y="0"/>
      <point x="202" y="0" type="curve" smooth="yes"/>
      <point x="227" y="0"/>
      <point x="251" y="0"/>
    </contour>
    <contour>
      <point x="411" y="711" type="move" name="top"/>
    </contour>
    <contour>
      <point x="233" y="-1" type="move" name="bottom"/>
    </contour>
  </outline>
</glyph>
<glyph name="U" format="1">
  <advance width="600"/>
  <unicode hex="0055"/>
  <outline>
    <contour>
      <point x="180" y="700" type="curve"/>
      <point x="172" y="667"/>
      <point x="163" y="633"/>
      <point x="155" y="600" type="curve" smooth="yes"/>
      <point x="42" y="148" type="line"/>
      <point x="37" y="128"/>
      <point x="61" y="109"/>
      <point x="116" y="109" type="curve"/>
      <point x="123" y="133"/>
      <point x="125" y="141"/>
      <point x="132" y="169" type="curve" smooth="yes"/>
      <point x="261" y="689" type="line"/>
      <point x="263" y="695"/>
      <point x="259" y="700"/>
      <point x="253" y="700" type="curve"/>
      <point x="229" y="700"/>
      <point x="205" y="700"/>
    </contour>
    <contour>
      <point x="168" y="-17" type="curve" smooth="yes"/>
      <point x="251" y="-17"/>
      <point x="326" y="24"/>
      <point x="395" y="90" type="curve" smooth="yes"/>
      <point x="433" y="125"/>
      <point x="449" y="156"/>
      <point x="452" y="200" type="curve"/>
      <point x="341" y="100"/>
      <point x="280" y="64"/>
      <point x="201" y="64" type="curve" smooth="yes"/>
      <point x="147" y="64"/>
      <point x="115" y="103"/>
      <point x="132" y="169" type="curve"/>
      <point x="64" y="168"/>
      <point x="45" y="159"/>
      <point x="42" y="148" type="curve" smooth="yes"/>
      <point x="20" y="63"/>
      <point x="59" y="-17"/>
    </contour>
    <contour>
      <point x="458" y="0" type="curve"/>
      <point x="466" y="33"/>
      <point x="476" y="68"/>
      <point x="484" y="103" type="curve" smooth="yes"/>
      <point x="630" y="689" type="line" smooth="yes"/>
      <point x="632" y="695"/>
      <point x="628" y="700"/>
      <point x="622" y="700" type="curve" smooth="yes"/>
      <point x="598" y="700"/>
      <point x="573" y="700"/>
      <point x="549" y="700" type="curve"/>
      <point x="377" y="11" type="line" smooth="yes"/>
      <point x="376" y="8"/>
      <point x="376" y="4"/>
      <point x="378" y="2" type="curve" smooth="yes"/>
      <point x="380" y="0"/>
      <point x="382" y="0"/>
      <point x="385" y="0" type="curve" smooth="yes"/>
      <point x="409" y="0"/>
      <point x="434" y="0"/>
    </contour>
    <contour>
      <point x="411" y="711" type="move" name="top"/>
    </contour>
    <contour>
      <point x="458" y="-1" type="move" name="ogonek"/>
    </contour>
    <contour>
      <point x="401" y="677" type="move" name="ring"/>
    </contour>
    <contour>
      <point x="197" y="-1" type="move" name="bottom"/>
    </contour>
  </outline>
</glyph>
<glyph name="W" format="1">
  <advance width="600"/>
  <unicode hex="0057"/>
  <outline>
    <contour>
      <point x="136" y="700" type="curve"/>
      <point x="109" y="469"/>
      <point x="82" y="237"/>
      <point x="54" y="5" type="curve"/>
      <point x="52" y="-3"/>
      <point x="59" y="-7"/>
      <point x="66" y="-7" type="curve"/>
      <point x="85" y="-7" type="line" smooth="yes"/>
      <point x="100" y="-7"/>
      <point x="115" y="7"/>
      <point x="121" y="21" type="curve"/>
      <point x="152" y="243"/>
      <point x="184" y="466"/>
      <point x="215" y="687" type="curve"/>
      <point x="216" y="695"/>
      <point x="215" y="697"/>
      <point x="214" y="699" type="curve" smooth="yes"/>
      <point x="212" y="700"/>
      <point x="211" y="700"/>
      <point x="208" y="700" type="curve"/>
      <point x="183" y="700"/>
      <point x="161" y="700"/>
    </contour>
    <contour>
      <point x="596" y="700" type="curve"/>
      <point x="517" y="481"/>
      <point x="438" y="262"/>
      <point x="359" y="43" type="curve"/>
      <point x="347" y="12"/>
      <point x="340" y="3"/>
      <point x="328" y="-7" type="curve"/>
      <point x="409" y="-7" type="line"/>
      <point x="498" y="224"/>
      <point x="587" y="457"/>
      <point x="675" y="688" type="curve"/>
      <point x="677" y="693"/>
      <point x="678" y="696"/>
      <point x="676" y="698" type="curve" smooth="yes"/>
      <point x="675" y="700"/>
      <point x="674" y="700"/>
      <point x="670" y="700" type="curve"/>
      <point x="646" y="700"/>
      <point x="620" y="700"/>
    </contour>
    <contour>
      <point x="392" y="591" type="curve"/>
      <point x="345" y="591" type="line"/>
      <point x="268" y="409"/>
      <point x="191" y="225"/>
      <point x="113" y="43" type="curve"/>
      <point x="97" y="10"/>
      <point x="85" y="3"/>
      <point x="66" y="-7" type="curve"/>
      <point x="152" y="-7" type="line"/>
      <point x="234" y="185"/>
      <point x="316" y="379"/>
      <point x="397" y="571" type="curve"/>
      <point x="403" y="585"/>
      <point x="401" y="591"/>
    </contour>
    <contour>
      <point x="408" y="591" type="curve"/>
      <point x="358" y="591" type="line"/>
      <point x="342" y="396"/>
      <point x="326" y="200"/>
      <point x="311" y="5" type="curve"/>
      <point x="311" y="-3"/>
      <point x="316" y="-7"/>
      <point x="323" y="-7" type="curve"/>
      <point x="345" y="-7" type="line"/>
      <point x="355" y="-7"/>
      <point x="367" y="3"/>
      <point x="369" y="19" type="curve"/>
      <point x="385" y="205"/>
      <point x="401" y="394"/>
      <point x="416" y="581" type="curve"/>
      <point x="416" y="588"/>
      <point x="414" y="591"/>
    </contour>
    <contour>
      <point x="409" y="711" type="move" name="top"/>
    </contour>
  </outline>
</glyph>
<glyph name="X" format="1">
  <advance width="600"/>
  <unicode hex="0058"/>
  <outline>
    <contour>
      <point x="425" y="0" type="curve" smooth="yes"/>
      <point x="452" y="0"/>
      <point x="475" y="0"/>
      <point x="502" y="0" type="curve"/>
      <point x="457" y="124"/>
      <point x="409" y="248"/>
      <point x="365" y="366" type="curve" smooth="yes"/>
      <point x="360" y="384"/>
      <point x="350" y="389"/>
      <point x="344" y="403" type="curve" smooth="yes"/>
      <point x="309" y="495"/>
      <point x="273" y="593"/>
      <point x="237" y="688" type="curve" smooth="yes"/>
      <point x="234" y="695"/>
      <point x="229" y="700"/>
      <point x="220" y="700" type="curve" smooth="yes"/>
      <point x="146" y="700" type="line"/>
      <point x="191" y="579"/>
      <point x="238" y="457"/>
      <point x="281" y="340" type="curve" smooth="yes"/>
      <point x="287" y="325"/>
      <point x="298" y="318"/>
      <point x="303" y="301" type="curve" smooth="yes"/>
      <point x="338" y="209"/>
      <point x="374" y="110"/>
      <point x="411" y="12" type="curve" smooth="yes"/>
      <point x="415" y="5"/>
      <point x="416" y="0"/>
    </contour>
    <contour>
      <point x="666" y="700" type="curve"/>
      <point x="586" y="700" type="line"/>
      <point x="491" y="590"/>
      <point x="396" y="481"/>
      <point x="301" y="371" type="curve"/>
      <point x="285" y="353"/>
      <point x="305" y="338"/>
      <point x="354" y="322" type="curve"/>
      <point x="460" y="442"/>
      <point x="565" y="561"/>
      <point x="670" y="681" type="curve"/>
      <point x="676" y="687"/>
      <point x="677" y="693"/>
      <point x="675" y="697" type="curve" smooth="yes"/>
      <point x="674" y="699"/>
      <point x="670" y="700"/>
    </contour>
    <contour>
      <point x="-25" y="0" type="curve" smooth="yes"/>
      <point x="60" y="0" type="line"/>
      <point x="155" y="110"/>
      <point x="249" y="219"/>
      <point x="344" y="329" type="curve"/>
      <point x="360" y="347"/>
      <point x="336" y="362"/>
      <point x="288" y="378" type="curve"/>
      <point x="182" y="258"/>
      <point x="76" y="139"/>
      <point x="-29" y="19" type="curve"/>
      <point x="-34" y="13"/>
      <point x="-36" y="6"/>
      <point x="-33" y="3" type="curve" smooth="yes"/>
      <point x="-32" y="1"/>
      <point x="-29" y="0"/>
    </contour>
  </outline>
</glyph>
<glyph name="Z" format="1">
  <advance width="600"/>
  <unicode hex="005A"/>
  <outline>
    <contour>
      <point x="202" y="700" type="line"/>
      <point x="196" y="678"/>
      <point x="192" y="659"/>
      <point x="186" y="637" type="curve" smooth="yes"/>
      <point x="185" y="634"/>
      <point x="185" y="631"/>
      <point x="187" y="629" type="curve" smooth="yes"/>
      <point x="188" y="627"/>
      <point x="191" y="626"/>
      <point x="194" y="626" type="curve" smooth="yes"/>
      <point x="534" y="626" type="line" smooth="yes"/>
      <point x="556" y="626"/>
      <point x="592" y="627"/>
      <point x="620" y="630" type="curve" smooth="yes"/>
      <point x="626" y="631"/>
      <point x="632" y="631"/>
      <point x="635" y="631" type="curve"/>
      <point x="649" y="689" type="line" smooth="yes"/>
      <point x="651" y="695"/>
      <point x="647" y="700"/>
      <point x="641" y="700" type="curve" smooth="yes"/>
    </contour>
    <contour>
      <point x="560" y="662" type="curve"/>
      <point x="377" y="467"/>
      <point x="190" y="264"/>
      <point x="7" y="69" type="curve"/>
      <point x="70" y="41"/>
      <point x="84" y="40"/>
      <point x="91" y="47" type="curve" smooth="yes"/>
      <point x="338" y="310"/>
      <point x="634" y="630"/>
      <point x="635" y="631" type="curve"/>
      <point x="584" y="667"/>
      <point x="569" y="670"/>
    </contour>
    <contour>
      <point x="478" y="0" type="line"/>
      <point x="484" y="22"/>
      <point x="488" y="39"/>
      <point x="494" y="63" type="curve" smooth="yes"/>
      <point x="495" y="66"/>
      <point x="495" y="69"/>
      <point x="493" y="71" type="curve" smooth="yes"/>
      <point x="491" y="73"/>
      <point x="489" y="74"/>
      <point x="486" y="74" type="curve" smooth="yes"/>
      <point x="110" y="74" type="line" smooth="yes"/>
      <point x="79" y="74"/>
      <point x="41" y="73"/>
      <point x="7" y="69" type="curve"/>
      <point x="-7" y="11" type="line" smooth="yes"/>
      <point x="-8" y="5"/>
      <point x="-5" y="0"/>
      <point x="1" y="0" type="curve" smooth="yes"/>
    </contour>
    <contour>
      <point x="220" y="537" type="curve"/>
      <point x="232" y="585"/>
      <point x="243" y="629"/>
      <point x="255" y="677" type="curve"/>
      <point x="259" y="694"/>
      <point x="252" y="700"/>
      <point x="236" y="700" type="curve" smooth="yes"/>
      <point x="179" y="700" type="line"/>
      <point x="166" y="648"/>
      <point x="154" y="600"/>
      <point x="141" y="548" type="curve"/>
      <point x="140" y="542"/>
      <point x="144" y="537"/>
      <point x="150" y="537" type="curve" smooth="yes"/>
      <point x="173" y="537"/>
      <point x="197" y="537"/>
    </contour>
    <contour>
      <point x="411" y="711" type="move" name="top"/>
    </contour>
  </outline>
</glyph>
<glyph name="bracketleft" format="1">
  <advance width="600"/>
  <unicode hex="005B"/>
  <outline>
    <contour>
      <point x="301" y="650" type="curve" smooth="yes"/>
      <point x="120" y="-74" type="line" smooth="yes"/>
      <point x="118" y="-84"/>
      <point x="136" y="-85"/>
      <point x="202" y="-85" type="curve"/>
      <point x="410" y="746" type="line" smooth="yes"/>
      <point x="411" y="752"/>
      <point x="404" y="757"/>
      <point x="377" y="757" type="curve" smooth="yes"/>
      <point x="358" y="757"/>
      <point x="348" y="757"/>
      <point x="328" y="757" type="curve"/>
      <point x="319" y="721"/>
      <point x="310" y="686"/>
    </contour>
    <contour>
      <point x="623" y="678" type="line"/>
      <point x="629" y="701"/>
      <point x="634" y="723"/>
      <point x="640" y="746" type="curve" smooth="yes"/>
      <point x="641" y="749"/>
      <point x="641" y="752"/>
      <point x="639" y="754" type="curve" smooth="yes"/>
      <point x="638" y="756"/>
      <point x="635" y="757"/>
      <point x="632" y="757" type="curve" smooth="yes"/>
      <point x="377" y="757" type="line"/>
      <point x="359" y="683"/>
      <point x="364" y="678"/>
      <point x="369" y="678" type="curve"/>
    </contour>
    <contour>
      <point x="416" y="-151" type="line"/>
      <point x="422" y="-127"/>
      <point x="427" y="-108"/>
      <point x="433" y="-84" type="curve" smooth="yes"/>
      <point x="434" y="-78"/>
      <point x="431" y="-73"/>
      <point x="425" y="-73" type="curve" smooth="yes"/>
      <point x="121" y="-73" type="line"/>
      <point x="104" y="-140" type="line" smooth="yes"/>
      <point x="102" y="-146"/>
      <point x="106" y="-151"/>
      <point x="112" y="-151" type="curve" smooth="yes"/>
    </contour>
  </outline>
</glyph>
<glyph name="backslash" format="1">
  <advance width="600"/>
  <unicode hex="005C"/>
  <outline>
    <contour>
      <point x="205" y="750" type="curve"/>
      <point x="248" y="461"/>
      <point x="290" y="170"/>
      <point x="333" y="-119" type="curve" smooth="yes"/>
      <point x="334" y="-127"/>
      <point x="339" y="-130"/>
      <point x="345" y="-130" type="curve" smooth="yes"/>
      <point x="372" y="-130"/>
      <point x="392" y="-130"/>
      <point x="420" y="-130" type="curve"/>
      <point x="415" y="-94"/>
      <point x="409" y="-57"/>
      <point x="404" y="-21" type="curve"/>
      <point x="367" y="233"/>
      <point x="329" y="489"/>
      <point x="292" y="743" type="curve"/>
      <point x="291" y="748"/>
      <point x="288" y="750"/>
      <point x="282" y="750" type="curve" smooth="yes"/>
      <point x="254" y="750"/>
      <point x="232" y="750"/>
    </contour>
  </outline>
</glyph>
<glyph name="bracketright" format="1">
  <advance width="600"/>
  <unicode hex="005D"/>
  <outline>
    <contour>
      <point x="318" y="-44" type="curve" smooth="yes"/>
      <point x="499" y="680" type="line" smooth="yes"/>
      <point x="501" y="690"/>
      <point x="483" y="691"/>
      <point x="417" y="691" type="curve"/>
      <point x="209" y="-140" type="line" smooth="yes"/>
      <point x="208" y="-146"/>
      <point x="215" y="-151"/>
      <point x="242" y="-151" type="curve" smooth="yes"/>
      <point x="261" y="-151"/>
      <point x="271" y="-151"/>
      <point x="291" y="-151" type="curve"/>
      <point x="300" y="-115"/>
      <point x="309" y="-80"/>
    </contour>
    <contour>
      <point x="-4" y="-72" type="line"/>
      <point x="-10" y="-95"/>
      <point x="-15" y="-116"/>
      <point x="-21" y="-140" type="curve" smooth="yes"/>
      <point x="-22" y="-143"/>
      <point x="-22" y="-146"/>
      <point x="-20" y="-148" type="curve" smooth="yes"/>
      <point x="-19" y="-150"/>
      <point x="-16" y="-151"/>
      <point x="-13" y="-151" type="curve" smooth="yes"/>
      <point x="242" y="-151" type="line"/>
      <point x="260" y="-77"/>
      <point x="255" y="-72"/>
      <point x="250" y="-72" type="curve"/>
    </contour>
    <contour>
      <point x="203" y="758" type="line"/>
      <point x="197" y="734"/>
      <point x="192" y="714"/>
      <point x="186" y="690" type="curve" smooth="yes"/>
      <point x="185" y="684"/>
      <point x="188" y="679"/>
      <point x="194" y="679" type="curve" smooth="yes"/>
      <point x="498" y="679" type="line"/>
      <point x="515" y="747" type="line" smooth="yes"/>
      <point x="517" y="753"/>
      <point x="513" y="758"/>
      <point x="507" y="758" type="curve" smooth="yes"/>
    </contour>
  </outline>
</glyph>
<glyph name="grave" format="1">
  <advance width="600"/>
  <unicode hex="0060"/>
  <outline>
    <contour>
      <point x="421" y="414" type="curve"/>
      <point x="422" y="518"/>
      <point x="423" y="613"/>
      <point x="423" y="717" type="curve"/>
      <point x="369" y="717"/>
      <point x="342" y="717"/>
      <point x="296" y="717" type="curve" smooth="yes"/>
      <point x="288" y="717"/>
      <point x="282" y="712"/>
      <point x="283" y="704" type="curve" smooth="yes"/>
      <point x="302" y="613"/>
      <point x="321" y="519"/>
      <point x="341" y="423" type="curve" smooth="yes"/>
      <point x="342" y="416"/>
      <point x="346" y="414"/>
      <point x="353" y="414" type="curve" smooth="yes"/>
      <point x="385" y="414"/>
      <point x="401" y="414"/>
    </contour>
  </outline>
</glyph>
<glyph name="a" format="1">
  <advance width="600"/>
  <unicode hex="0061"/>
  <outline>
    <contour>
      <point x="305" y="541" type="curve" smooth="yes"/>
      <point x="200" y="541"/>
      <point x="125" y="490"/>
      <point x="88" y="343" type="curve" smooth="yes"/>
      <point x="53" y="201" type="line" smooth="yes"/>
      <point x="40" y="149"/>
      <point x="58" y="73"/>
      <point x="96" y="73" type="curve" smooth="yes"/>
      <point x="112" y="73"/>
      <point x="124" y="82"/>
      <point x="128" y="93" type="curve"/>
      <point x="121" y="126"/>
      <point x="123" y="151"/>
      <point x="138" y="209" type="curve" smooth="yes"/>
      <point x="167" y="325" type="line" smooth="yes"/>
      <point x="193" y="431"/>
      <point x="242" y="462"/>
      <point x="309" y="462" type="curve" smooth="yes"/>
      <point x="379" y="462"/>
      <point x="421" y="429"/>
      <point x="452" y="371" type="curve"/>
      <point x="469" y="374"/>
      <point x="482" y="397"/>
      <point x="480" y="414" type="curve" smooth="yes"/>
      <point x="473" y="467"/>
      <point x="418" y="541"/>
    </contour>
    <contour>
      <point x="186" y="-10" type="curve" smooth="yes"/>
      <point x="260" y="-10"/>
      <point x="317" y="22"/>
      <point x="379" y="86" type="curve" smooth="yes"/>
      <point x="411" y="120"/>
      <point x="424" y="158"/>
      <point x="420" y="203" type="curve"/>
      <point x="343" y="113"/>
      <point x="280" y="70"/>
      <point x="216" y="70" type="curve" smooth="yes"/>
      <point x="146" y="70"/>
      <point x="116" y="121"/>
      <point x="138" y="209" type="curve"/>
      <point x="66" y="223"/>
      <point x="57" y="216"/>
      <point x="53" y="201" type="curve" smooth="yes"/>
      <point x="22" y="79"/>
      <point x="71" y="-10"/>
    </contour>
    <contour>
      <point x="568" y="530" type="line"/>
      <point x="544" y="530"/>
      <point x="520" y="530"/>
      <point x="496" y="530" type="curve" smooth="yes"/>
      <point x="489" y="530"/>
      <point x="484" y="527"/>
      <point x="482" y="519" type="curve" smooth="yes"/>
      <point x="379" y="107" type="line" smooth="yes"/>
      <point x="368" y="66"/>
      <point x="400" y="30"/>
      <point x="443" y="30" type="curve"/>
      <point x="447" y="49"/>
      <point x="452" y="68"/>
      <point x="461" y="104" type="curve"/>
    </contour>
    <contour>
      <point x="512" y="66" type="line"/>
      <point x="499" y="66" type="line"/>
      <point x="495" y="66"/>
      <point x="492" y="66"/>
      <point x="488" y="66" type="curve" smooth="yes"/>
      <point x="461" y="66"/>
      <point x="454" y="80"/>
      <point x="463" y="114" type="curve"/>
      <point x="394" y="128"/>
      <point x="383" y="121"/>
      <point x="379" y="107" type="curve" smooth="yes"/>
      <point x="362" y="41"/>
      <point x="392" y="-10"/>
      <point x="462" y="-10" type="curve" smooth="yes"/>
      <point x="481" y="-10" type="line" smooth="yes"/>
      <point x="488" y="-10"/>
      <point x="493" y="-7"/>
      <point x="495" y="1" type="curve"/>
    </contour>
  </outline>
</glyph>
<glyph name="b" format="1">
  <advance width="600"/>
  <unicode hex="0062"/>
  <outline>
    <contour>
      <point x="31" y="0" type="line"/>
      <point x="46" y="0"/>
      <point x="61" y="0"/>
      <point x="76" y="0" type="curve" smooth="yes"/>
      <point x="89" y="0"/>
      <point x="130" y="65"/>
      <point x="138" y="95" type="curve" smooth="yes"/>
      <point x="301" y="739" type="line"/>
      <point x="303" y="745"/>
      <point x="299" y="750"/>
      <point x="293" y="750" type="curve" smooth="yes"/>
      <point x="269" y="750"/>
      <point x="245" y="750"/>
      <point x="221" y="750" type="curve"/>
      <point x="211" y="713"/>
      <point x="201" y="674"/>
      <point x="191" y="635" type="curve" smooth="yes"/>
    </contour>
    <contour>
      <point x="411" y="541" type="curve" smooth="yes"/>
      <point x="343" y="541"/>
      <point x="284" y="510"/>
      <point x="226" y="459" type="curve" smooth="yes"/>
      <point x="192" y="427"/>
      <point x="176" y="394"/>
      <point x="178" y="359" type="curve"/>
      <point x="268" y="436"/>
      <point x="326" y="465"/>
      <point x="392" y="465" type="curve" smooth="yes"/>
      <point x="460" y="465"/>
      <point x="488" y="423"/>
      <point x="464" y="327" type="curve"/>
      <point x="525" y="310"/>
      <point x="545" y="319"/>
      <point x="548" y="330" type="curve" smooth="yes"/>
      <point x="579" y="450"/>
      <point x="529" y="541"/>
    </contour>
    <contour>
      <point x="295" y="-10" type="curve" smooth="yes"/>
      <point x="402" y="-10"/>
      <point x="478" y="43"/>
      <point x="517" y="204" type="curve" smooth="yes"/>
      <point x="548" y="330" type="line" smooth="yes"/>
      <point x="561" y="384"/>
      <point x="541" y="467"/>
      <point x="500" y="467" type="curve"/>
      <point x="484" y="467"/>
      <point x="473" y="462"/>
      <point x="469" y="451" type="curve"/>
      <point x="480" y="413"/>
      <point x="481" y="391"/>
      <point x="464" y="327" type="curve" smooth="yes"/>
      <point x="438" y="217" type="line" smooth="yes"/>
      <point x="410" y="102"/>
      <point x="360" y="65"/>
      <point x="290" y="65" type="curve" smooth="yes"/>
      <point x="222" y="65"/>
      <point x="176" y="90"/>
      <point x="139" y="164" type="curve"/>
      <point x="129" y="157"/>
      <point x="113" y="126"/>
      <point x="116" y="113" type="curve" smooth="yes"/>
      <point x="129" y="54"/>
      <point x="189" y="-10"/>
    </contour>
  </outline>
</glyph>
<glyph name="d" format="1">
  <advance width="600"/>
  <unicode hex="0064"/>
  <outline>
    <contour>
      <point x="305" y="541" type="curve" smooth="yes"/>
      <point x="204" y="541"/>
      <point x="126" y="494"/>
      <point x="91" y="355" type="curve" smooth="yes"/>
      <point x="50" y="191" type="line" smooth="yes"/>
      <point x="36" y="134"/>
      <point x="63" y="66"/>
      <point x="104" y="66" type="curve" smooth="yes"/>
      <point x="121" y="66"/>
      <point x="132" y="72"/>
      <point x="135" y="82" type="curve"/>
      <point x="124" y="116"/>
      <point x="121" y="140"/>
      <point x="138" y="207" type="curve" smooth="yes"/>
      <point x="171" y="342" type="line" smooth="yes"/>
      <point x="194" y="435"/>
      <point x="243" y="465"/>
      <point x="313" y="465" type="curve" smooth="yes"/>
      <point x="366" y="465"/>
      <point x="424" y="432"/>
      <point x="456" y="366" type="curve"/>
      <point x="467" y="369"/>
      <point x="482" y="399"/>
      <point x="478" y="414" type="curve" smooth="yes"/>
      <point x="464" y="473"/>
      <point x="396" y="541"/>
    </contour>
    <contour>
      <point x="182" y="-10" type="curve" smooth="yes"/>
      <point x="253" y="-10"/>
      <point x="315" y="20"/>
      <point x="375" y="79" type="curve" smooth="yes"/>
      <point x="410" y="112"/>
      <point x="421" y="147"/>
      <point x="419" y="180" type="curve"/>
      <point x="326" y="96"/>
      <point x="271" y="66"/>
      <point x="216" y="66" type="curve" smooth="yes"/>
      <point x="140" y="66"/>
      <point x="113" y="111"/>
      <point x="138" y="207" type="curve"/>
      <point x="86" y="214"/>
      <point x="52" y="197"/>
      <point x="50" y="191" type="curve" smooth="yes"/>
      <point x="22" y="75"/>
      <point x="73" y="-10"/>
    </contour>
    <contour>
      <point x="542" y="750" type="curve"/>
      <point x="534" y="716"/>
      <point x="525" y="682"/>
      <point x="517" y="650" type="curve" smooth="yes"/>
      <point x="355" y="11" type="line"/>
      <point x="355" y="8"/>
      <point x="355" y="5"/>
      <point x="356" y="3" type="curve" smooth="yes"/>
      <point x="357" y="1"/>
      <point x="360" y="0"/>
      <point x="363" y="0" type="curve" smooth="yes"/>
      <point x="387" y="0"/>
      <point x="411" y="0"/>
      <point x="435" y="0" type="curve"/>
      <point x="443" y="30"/>
      <point x="453" y="69"/>
      <point x="465" y="115" type="curve" smooth="yes"/>
      <point x="622" y="739" type="line"/>
      <point x="623" y="742"/>
      <point x="622" y="745"/>
      <point x="621" y="747" type="curve" smooth="yes"/>
      <point x="620" y="749"/>
      <point x="617" y="750"/>
      <point x="614" y="750" type="curve" smooth="yes"/>
      <point x="590" y="750"/>
      <point x="566" y="750"/>
    </contour>
    <contour>
      <point x="684" y="711" type="move" name="caronslovak"/>
    </contour>
  </outline>
</glyph>
<glyph name="e" format="1">
  <advance width="600"/>
  <unicode hex="0065"/>
  <outline>
    <contour>
      <point x="341" y="468" type="curve" smooth="yes"/>
      <point x="422" y="468"/>
      <point x="467" y="443"/>
      <point x="478" y="378" type="curve"/>
      <point x="495" y="386"/>
      <point x="512" y="401"/>
      <point x="516" y="421" type="curve"/>
      <point x="533" y="488"/>
      <point x="440" y="541"/>
      <point x="356" y="541" type="curve"/>
      <point x="224" y="541"/>
      <point x="135" y="484"/>
      <point x="93" y="321" type="curve" smooth="yes"/>
      <point x="69" y="223" type="line" smooth="yes"/>
      <point x="30" y="71"/>
      <point x="124" y="-11"/>
      <point x="271" y="-11" type="curve" smooth="yes"/>
      <point x="289" y="-11"/>
      <point x="286" y="3"/>
      <point x="285" y="66" type="curve"/>
      <point x="171" y="66"/>
      <point x="123" y="117"/>
      <point x="148" y="217" type="curve" smooth="yes"/>
      <point x="172" y="313" type="line" smooth="yes"/>
      <point x="199" y="424"/>
      <point x="249" y="468"/>
    </contour>
    <contour>
      <point x="440" y="35" type="curve" smooth="yes"/>
      <point x="444" y="38"/>
      <point x="445" y="40"/>
      <point x="447" y="45" type="curve" smooth="yes"/>
      <point x="453" y="69"/>
      <point x="459" y="90"/>
      <point x="464" y="111" type="curve"/>
      <point x="449" y="111" type="line"/>
      <point x="400" y="84"/>
      <point x="355" y="66"/>
      <point x="285" y="66" type="curve" smooth="yes"/>
      <point x="198" y="66"/>
      <point x="165" y="87"/>
      <point x="124" y="124" type="curve"/>
      <point x="96" y="62"/>
      <point x="165" y="-11"/>
      <point x="271" y="-11" type="curve" smooth="yes"/>
      <point x="368" y="-11"/>
      <point x="417" y="13"/>
    </contour>
    <contour>
      <point x="497" y="234" type="line" smooth="yes"/>
      <point x="504" y="234"/>
      <point x="509" y="238"/>
      <point x="511" y="245" type="curve" smooth="yes"/>
      <point x="529" y="320" type="line" smooth="yes"/>
      <point x="566" y="470"/>
      <point x="490" y="541"/>
      <point x="356" y="541" type="curve" smooth="yes"/>
      <point x="346" y="541"/>
      <point x="339" y="530"/>
      <point x="341" y="468" type="curve"/>
      <point x="437" y="468"/>
      <point x="476" y="427"/>
      <point x="449" y="323" type="curve" smooth="yes"/>
      <point x="443" y="297" type="line" smooth="yes"/>
      <point x="443" y="296"/>
      <point x="442" y="296"/>
      <point x="441" y="296" type="curve" smooth="yes"/>
      <point x="296" y="296"/>
      <point x="234" y="296"/>
      <point x="115" y="296" type="curve"/>
      <point x="107" y="265"/>
      <point x="107" y="254"/>
      <point x="114" y="245" type="curve" smooth="yes"/>
      <point x="120" y="237"/>
      <point x="128" y="234"/>
      <point x="138" y="234" type="curve" smooth="yes"/>
    </contour>
    <contour>
      <point x="374" y="541" type="move" name="top"/>
    </contour>
    <contour>
      <point x="380" y="6" type="move" name="ogonek"/>
    </contour>
    <contour>
      <point x="240" y="-1" type="move" name="bottom"/>
    </contour>
  </outline>
</glyph>
<glyph name="f" format="1">
  <advance width="600"/>
  <unicode hex="0066"/>
  <outline>
    <contour>
      <point x="406" y="659" type="curve"/>
      <point x="450" y="682"/>
      <point x="472" y="688"/>
      <point x="530" y="688" type="curve" smooth="yes"/>
      <point x="580" y="688"/>
      <point x="623" y="678"/>
      <point x="654" y="661" type="curve"/>
      <point x="669" y="661" type="line"/>
      <point x="674" y="682"/>
      <point x="678" y="698"/>
      <point x="684" y="720" type="curve"/>
      <point x="685" y="724"/>
      <point x="685" y="727"/>
      <point x="683" y="729" type="curve" smooth="yes"/>
      <point x="674" y="740"/>
      <point x="610" y="763"/>
      <point x="540" y="763" type="curve" smooth="yes"/>
      <point x="448" y="763"/>
      <point x="392" y="719"/>
    </contour>
    <contour>
      <point x="302" y="566" type="curve"/>
      <point x="139" y="-89" type="line" smooth="yes"/>
      <point x="137" y="-96"/>
      <point x="141" y="-100"/>
      <point x="147" y="-100" type="curve"/>
      <point x="170" y="-100"/>
      <point x="194" y="-100"/>
      <point x="217" y="-100" type="curve"/>
      <point x="225" y="-66"/>
      <point x="234" y="-33"/>
      <point x="242" y="1" type="curve"/>
      <point x="372" y="517" type="line"/>
      <point x="376" y="534"/>
      <point x="379" y="545"/>
      <point x="382" y="557" type="curve"/>
      <point x="404" y="649"/>
      <point x="444" y="688"/>
      <point x="530" y="688" type="curve"/>
      <point x="568" y="751"/>
      <point x="551" y="763"/>
      <point x="540" y="763" type="curve" smooth="yes"/>
      <point x="408" y="763"/>
      <point x="335" y="699"/>
    </contour>
    <contour>
      <point x="148" y="524" type="line"/>
      <point x="142" y="501"/>
      <point x="138" y="484"/>
      <point x="132" y="461" type="curve" smooth="yes"/>
      <point x="131" y="457"/>
      <point x="131" y="454"/>
      <point x="133" y="452" type="curve" smooth="yes"/>
      <point x="135" y="450"/>
      <point x="138" y="450"/>
      <point x="141" y="450" type="curve"/>
      <point x="556" y="450" type="line"/>
      <point x="561" y="473"/>
      <point x="566" y="490"/>
      <point x="571" y="513" type="curve" smooth="yes"/>
      <point x="573" y="520"/>
      <point x="569" y="524"/>
      <point x="563" y="524" type="curve"/>
    </contour>
  </outline>
</glyph>
<glyph name="g" format="1">
  <advance width="600"/>
  <unicode hex="0067"/>
  <outline>
    <contour>
      <point x="317" y="541" type="curve" smooth="yes"/>
      <point x="204" y="541"/>
      <point x="127" y="486"/>
      <point x="85" y="326" type="curve" smooth="yes"/>
      <point x="51" y="194" type="line" smooth="yes"/>
      <point x="36" y="140"/>
      <point x="61" y="73"/>
      <point x="100" y="73" type="curve" smooth="yes"/>
      <point x="117" y="73"/>
      <point x="129" y="82"/>
      <point x="132" y="92" type="curve"/>
      <point x="121" y="127"/>
      <point x="123" y="155"/>
      <point x="141" y="224" type="curve" smooth="yes"/>
      <point x="164" y="311" type="line" smooth="yes"/>
      <point x="193" y="423"/>
      <point x="240" y="462"/>
      <point x="319" y="462" type="curve" smooth="yes"/>
      <point x="380" y="462"/>
      <point x="425" y="428"/>
      <point x="452" y="358" type="curve"/>
      <point x="462" y="360"/>
      <point x="480" y="390"/>
      <point x="478" y="408" type="curve" smooth="yes"/>
      <point x="468" y="472"/>
      <point x="412" y="541"/>
    </contour>
    <contour>
      <point x="184" y="-4" type="curve" smooth="yes"/>
      <point x="262" y="-4"/>
      <point x="319" y="28"/>
      <point x="378" y="83" type="curve" smooth="yes"/>
      <point x="409" y="115"/>
      <point x="423" y="155"/>
      <point x="418" y="189" type="curve"/>
      <point x="331" y="104"/>
      <point x="278" y="76"/>
      <point x="212" y="76" type="curve" smooth="yes"/>
      <point x="144" y="76"/>
      <point x="119" y="128"/>
      <point x="141" y="224" type="curve"/>
      <point x="76" y="225"/>
      <point x="55" y="212"/>
      <point x="51" y="194" type="curve" smooth="yes"/>
      <point x="23" y="81"/>
      <point x="73" y="-4"/>
    </contour>
    <contour>
      <point x="432" y="-12" type="curve" smooth="yes"/>
      <point x="544" y="430" type="line" smooth="yes"/>
      <point x="553" y="463"/>
      <point x="561" y="497"/>
      <point x="570" y="530" type="curve"/>
      <point x="545" y="530"/>
      <point x="523" y="530"/>
      <point x="499" y="530" type="curve" smooth="yes"/>
      <point x="496" y="530"/>
      <point x="493" y="529"/>
      <point x="490" y="527" type="curve" smooth="yes"/>
      <point x="488" y="525"/>
      <point x="486" y="522"/>
      <point x="485" y="519" type="curve" smooth="yes"/>
      <point x="353" y="0" type="line" smooth="yes"/>
      <point x="330" y="-93"/>
      <point x="300" y="-138"/>
      <point x="240" y="-185" type="curve"/>
      <point x="311" y="-201"/>
      <point x="403" y="-127"/>
    </contour>
    <contour>
      <point x="147" y="-172" type="curve" smooth="yes"/>
      <point x="79" y="-172"/>
      <point x="42" y="-158"/>
      <point x="6" y="-140" type="curve"/>
      <point x="-9" y="-140" type="line"/>
      <point x="-15" y="-163"/>
      <point x="-20" y="-181"/>
      <point x="-26" y="-202" type="curve" smooth="yes"/>
      <point x="-27" y="-207"/>
      <point x="-27" y="-210"/>
      <point x="-25" y="-212" type="curve" smooth="yes"/>
      <point x="-13" y="-227"/>
      <point x="46" y="-250"/>
      <point x="135" y="-250" type="curve" smooth="yes"/>
      <point x="292" y="-250"/>
      <point x="386" y="-190"/>
      <point x="432" y="-12" type="curve" smooth="yes"/>
      <point x="436" y="3"/>
      <point x="393" y="0"/>
      <point x="353" y="0" type="curve"/>
      <point x="320" y="-131"/>
      <point x="245" y="-172"/>
    </contour>
  </outline>
</glyph>
<glyph name="h" format="1">
  <advance width="600"/>
  <unicode hex="0068"/>
  <outline>
    <contour>
      <point x="115" y="0" type="curve"/>
      <point x="303" y="740" type="line" smooth="yes"/>
      <point x="304" y="743"/>
      <point x="304" y="746"/>
      <point x="302" y="748" type="curve" smooth="yes"/>
      <point x="300" y="750"/>
      <point x="298" y="751"/>
      <point x="295" y="751" type="curve" smooth="yes"/>
      <point x="272" y="751"/>
      <point x="248" y="751"/>
      <point x="222" y="751" type="curve"/>
      <point x="217" y="731"/>
      <point x="208" y="696"/>
      <point x="197" y="651" type="curve" smooth="yes"/>
      <point x="34" y="11" type="line" smooth="yes"/>
      <point x="33" y="5"/>
      <point x="36" y="0"/>
      <point x="42" y="0" type="curve" smooth="yes"/>
      <point x="66" y="0"/>
      <point x="91" y="0"/>
    </contour>
    <contour>
      <point x="426" y="541" type="curve" smooth="yes"/>
      <point x="353" y="541"/>
      <point x="291" y="505"/>
      <point x="222" y="438" type="curve" smooth="yes"/>
      <point x="195" y="412"/>
      <point x="185" y="381"/>
      <point x="177" y="327" type="curve"/>
      <point x="270" y="422"/>
      <point x="335" y="464"/>
      <point x="395" y="464" type="curve" smooth="yes"/>
      <point x="450" y="464"/>
      <point x="479" y="437"/>
      <point x="466" y="362" type="curve"/>
      <point x="518" y="367"/>
      <point x="533" y="372"/>
      <point x="539" y="391" type="curve" smooth="yes"/>
      <point x="558" y="468"/>
      <point x="521" y="541"/>
    </contour>
    <contour>
      <point x="439" y="0" type="curve"/>
      <point x="448" y="33"/>
      <point x="457" y="66"/>
      <point x="465" y="98" type="curve" smooth="yes"/>
      <point x="539" y="391" type="line"/>
      <point x="550" y="433"/>
      <point x="515" y="463"/>
      <point x="460" y="446" type="curve"/>
      <point x="460" y="422"/>
      <point x="461" y="415"/>
      <point x="451" y="373" type="curve" smooth="yes"/>
      <point x="358" y="11" type="line" smooth="yes"/>
      <point x="356" y="5"/>
      <point x="360" y="0"/>
      <point x="366" y="0" type="curve" smooth="yes"/>
      <point x="390" y="0"/>
      <point x="415" y="0"/>
    </contour>
    <contour>
      <point x="257" y="730" type="move" name="top"/>
    </contour>
  </outline>
</glyph>
<glyph name="i" format="1">
  <advance width="600"/>
  <unicode hex="0069"/>
  <outline>
    <contour>
      <point x="137" y="530" type="curve"/>
      <point x="131" y="509"/>
      <point x="126" y="487"/>
      <point x="120" y="466" type="curve" smooth="yes"/>
      <point x="118" y="459"/>
      <point x="122" y="455"/>
      <point x="129" y="455" type="curve" smooth="yes"/>
      <point x="202" y="455"/>
      <point x="274" y="455"/>
      <point x="327" y="455" type="curve"/>
      <point x="344" y="523"/>
      <point x="341" y="530"/>
      <point x="331" y="530" type="curve"/>
      <point x="266" y="530"/>
      <point x="201" y="530"/>
    </contour>
    <contour>
      <point x="408" y="528" type="curve" smooth="yes"/>
      <point x="406" y="530"/>
      <point x="404" y="530"/>
      <point x="401" y="530" type="curve" smooth="yes"/>
      <point x="331" y="530" type="line"/>
      <point x="234" y="144" type="line" smooth="yes"/>
      <point x="224" y="102"/>
      <point x="248" y="56"/>
      <point x="293" y="56" type="curve"/>
      <point x="299" y="82"/>
      <point x="309" y="116"/>
      <point x="314" y="142" type="curve" smooth="yes"/>
      <point x="409" y="519" type="line" smooth="yes"/>
      <point x="410" y="523"/>
      <point x="410" y="526"/>
    </contour>
    <contour>
      <point x="482" y="75" type="curve"/>
      <point x="468" y="75" type="line"/>
      <point x="425" y="75"/>
      <point x="415" y="75"/>
      <point x="368" y="75" type="curve"/>
      <point x="315" y="75"/>
      <point x="302" y="91"/>
      <point x="314" y="142" type="curve"/>
      <point x="248" y="157"/>
      <point x="237" y="154"/>
      <point x="234" y="144" type="curve" smooth="yes"/>
      <point x="213" y="65"/>
      <point x="244" y="0"/>
      <point x="349" y="0" type="curve" smooth="yes"/>
      <point x="452" y="0" type="line" smooth="yes"/>
      <point x="455" y="0"/>
      <point x="459" y="1"/>
      <point x="462" y="3" type="curve" smooth="yes"/>
      <point x="464" y="5"/>
      <point x="465" y="7"/>
      <point x="466" y="11" type="curve"/>
      <point x="471" y="32"/>
      <point x="476" y="54"/>
    </contour>
    <contour>
      <point x="458" y="668" type="curve"/>
      <point x="480" y="759" type="line" smooth="yes"/>
      <point x="482" y="765"/>
      <point x="478" y="770"/>
      <point x="472" y="770" type="curve" smooth="yes"/>
      <point x="439" y="770"/>
      <point x="405" y="770"/>
      <point x="372" y="770" type="curve"/>
      <point x="349" y="679" type="line" smooth="yes"/>
      <point x="347" y="673"/>
      <point x="351" y="668"/>
      <point x="357" y="668" type="curve" smooth="yes"/>
      <point x="391" y="668"/>
      <point x="424" y="668"/>
    </contour>
  </outline>
</glyph>
<glyph name="j" format="1">
  <advance width="600"/>
  <unicode hex="006A"/>
  <outline>
    <contour>
      <point x="145" y="530" type="curve"/>
      <point x="140" y="509"/>
      <point x="135" y="490"/>
      <point x="130" y="468" type="curve" smooth="yes"/>
      <point x="128" y="462"/>
      <point x="131" y="457"/>
      <point x="137" y="457" type="curve" smooth="yes"/>
      <point x="235" y="457"/>
      <point x="346" y="457"/>
      <point x="444" y="457" type="curve"/>
      <point x="453" y="494"/>
      <point x="452" y="530"/>
      <point x="431" y="530" type="curve" smooth="yes"/>
      <point x="340" y="530"/>
      <point x="236" y="530"/>
    </contour>
    <contour>
      <point x="363" y="-12" type="curve" smooth="yes"/>
      <point x="498" y="519" type="line" smooth="yes"/>
      <point x="499" y="522"/>
      <point x="499" y="526"/>
      <point x="497" y="528" type="curve" smooth="yes"/>
      <point x="495" y="530"/>
      <point x="493" y="530"/>
      <point x="490" y="530" type="curve" smooth="yes"/>
      <point x="420" y="530" type="line"/>
      <point x="286" y="3" type="line" smooth="yes"/>
      <point x="263" y="-86"/>
      <point x="235" y="-132"/>
      <point x="157" y="-185" type="curve"/>
      <point x="224" y="-221"/>
      <point x="333" y="-129"/>
    </contour>
    <contour>
      <point x="82" y="-172" type="curve" smooth="yes"/>
      <point x="28" y="-172"/>
      <point x="-5" y="-163"/>
      <point x="-43" y="-141" type="curve"/>
      <point x="-57" y="-141" type="line"/>
      <point x="-63" y="-164"/>
      <point x="-68" y="-183"/>
      <point x="-74" y="-205" type="curve" smooth="yes"/>
      <point x="-75" y="-208"/>
      <point x="-74" y="-211"/>
      <point x="-72" y="-213" type="curve" smooth="yes"/>
      <point x="-61" y="-228"/>
      <point x="-6" y="-250"/>
      <point x="72" y="-250" type="curve" smooth="yes"/>
      <point x="231" y="-250"/>
      <point x="320" y="-178"/>
      <point x="363" y="-12" type="curve" smooth="yes"/>
      <point x="367" y="3"/>
      <point x="339" y="8"/>
      <point x="286" y="3" type="curve"/>
      <point x="254" y="-122"/>
      <point x="193" y="-172"/>
    </contour>
    <contour>
      <point x="548" y="668" type="curve"/>
      <point x="571" y="759" type="line" smooth="yes"/>
      <point x="573" y="765"/>
      <point x="569" y="770"/>
      <point x="563" y="770" type="curve" smooth="yes"/>
      <point x="529" y="770"/>
      <point x="496" y="770"/>
      <point x="462" y="770" type="curve"/>
      <point x="440" y="679" type="line" smooth="yes"/>
      <point x="438" y="673"/>
      <point x="442" y="668"/>
      <point x="448" y="668" type="curve" smooth="yes"/>
      <point x="481" y="668"/>
      <point x="515" y="668"/>
    </contour>
  </outline>
</glyph>
<glyph name="k" format="1">
  <advance width="600"/>
  <unicode hex="006B"/>
  <outline>
    <contour>
      <point x="112" y="0" type="curve"/>
      <point x="300" y="739" type="line" smooth="yes"/>
      <point x="301" y="743"/>
      <point x="301" y="746"/>
      <point x="299" y="748" type="curve" smooth="yes"/>
      <point x="297" y="750"/>
      <point x="295" y="750"/>
      <point x="292" y="750" type="curve" smooth="yes"/>
      <point x="269" y="750"/>
      <point x="248" y="750"/>
      <point x="222" y="750" type="curve"/>
      <point x="217" y="730"/>
      <point x="208" y="695"/>
      <point x="196" y="651" type="curve" smooth="yes"/>
      <point x="34" y="11" type="line" smooth="yes"/>
      <point x="32" y="4"/>
      <point x="36" y="0"/>
      <point x="42" y="0" type="curve" smooth="yes"/>
      <point x="66" y="0"/>
      <point x="88" y="0"/>
    </contour>
    <contour>
      <point x="493" y="530" type="line"/>
      <point x="357" y="422"/>
      <point x="245" y="334"/>
      <point x="110" y="226" type="curve"/>
      <point x="99" y="180"/>
      <point x="120" y="147"/>
      <point x="143" y="166" type="curve" smooth="yes"/>
      <point x="291" y="282"/>
      <point x="425" y="384"/>
      <point x="587" y="509" type="curve" smooth="yes"/>
      <point x="597" y="517"/>
      <point x="599" y="521"/>
      <point x="599" y="524" type="curve" smooth="yes"/>
      <point x="599" y="528"/>
      <point x="597" y="530"/>
      <point x="592" y="530" type="curve"/>
    </contour>
    <contour>
      <point x="412" y="0" type="curve" smooth="yes"/>
      <point x="451" y="0"/>
      <point x="460" y="0"/>
      <point x="492" y="0" type="curve"/>
      <point x="428" y="111"/>
      <point x="365" y="220"/>
      <point x="302" y="329" type="curve"/>
      <point x="245" y="279"/>
      <point x="246" y="271"/>
      <point x="252" y="257" type="curve" smooth="yes"/>
      <point x="267" y="227"/>
      <point x="382" y="30"/>
      <point x="393" y="9" type="curve" smooth="yes"/>
      <point x="397" y="2"/>
      <point x="402" y="0"/>
    </contour>
    <contour>
      <point x="261" y="-1" type="move" name="bottom"/>
    </contour>
  </outline>
</glyph>
<glyph name="l" format="1">
  <advance width="600"/>
  <unicode hex="006C"/>
  <outline>
    <contour>
      <point x="192" y="750" type="curve"/>
      <point x="186" y="729"/>
      <point x="181" y="707"/>
      <point x="175" y="686" type="curve" smooth="yes"/>
      <point x="174" y="679"/>
      <point x="177" y="675"/>
      <point x="184" y="675" type="curve" smooth="yes"/>
      <point x="257" y="675"/>
      <point x="329" y="675"/>
      <point x="382" y="675" type="curve"/>
      <point x="399" y="743"/>
      <point x="396" y="750"/>
      <point x="386" y="750" type="curve"/>
      <point x="321" y="750"/>
      <point x="256" y="750"/>
    </contour>
    <contour>
      <point x="463" y="748" type="curve" smooth="yes"/>
      <point x="461" y="750"/>
      <point x="459" y="750"/>
      <point x="456" y="750" type="curve" smooth="yes"/>
      <point x="386" y="750" type="line"/>
      <point x="234" y="144" type="line" smooth="yes"/>
      <point x="223" y="102"/>
      <point x="248" y="56"/>
      <point x="293" y="56" type="curve"/>
      <point x="299" y="82"/>
      <point x="307" y="116"/>
      <point x="314" y="142" type="curve" smooth="yes"/>
      <point x="464" y="739" type="line" smooth="yes"/>
      <point x="465" y="743"/>
      <point x="465" y="746"/>
    </contour>
    <contour>
      <point x="481" y="75" type="curve"/>
      <point x="468" y="75" type="line"/>
      <point x="425" y="75"/>
      <point x="415" y="75"/>
      <point x="367" y="75" type="curve"/>
      <point x="315" y="75"/>
      <point x="302" y="91"/>
      <point x="314" y="142" type="curve"/>
      <point x="248" y="157"/>
      <point x="236" y="154"/>
      <point x="234" y="144" type="curve" smooth="yes"/>
      <point x="212" y="65"/>
      <point x="243" y="0"/>
      <point x="349" y="0" type="curve" smooth="yes"/>
      <point x="451" y="0" type="line" smooth="yes"/>
      <point x="455" y="0"/>
      <point x="459" y="1"/>
      <point x="461" y="3" type="curve" smooth="yes"/>
      <point x="463" y="5"/>
      <point x="464" y="7"/>
      <point x="465" y="11" type="curve"/>
      <point x="471" y="32"/>
      <point x="476" y="54"/>
    </contour>
  </outline>
</glyph>
<glyph name="m" format="1">
  <advance width="600"/>
  <unicode hex="006D"/>
  <outline>
    <contour>
      <point x="59" y="0" type="curve"/>
      <point x="184" y="492" type="line" smooth="yes"/>
      <point x="188" y="510"/>
      <point x="185" y="525"/>
      <point x="183" y="528" type="curve" smooth="yes"/>
      <point x="181" y="530"/>
      <point x="178" y="530"/>
      <point x="175" y="530" type="curve" smooth="yes"/>
      <point x="156" y="530"/>
      <point x="137" y="530"/>
      <point x="118" y="530" type="curve"/>
      <point x="113" y="509"/>
      <point x="104" y="474"/>
      <point x="93" y="430" type="curve" smooth="yes"/>
      <point x="-13" y="11" type="line" smooth="yes"/>
      <point x="-14" y="5"/>
      <point x="-11" y="0"/>
      <point x="-5" y="0" type="curve" smooth="yes"/>
      <point x="16" y="0"/>
      <point x="38" y="0"/>
    </contour>
    <contour>
      <point x="316" y="541" type="curve" smooth="yes"/>
      <point x="272" y="541"/>
      <point x="226" y="517"/>
      <point x="177" y="462" type="curve" smooth="yes"/>
      <point x="150" y="433"/>
      <point x="128" y="396"/>
      <point x="129" y="357" type="curve"/>
      <point x="194" y="428"/>
      <point x="239" y="460"/>
      <point x="276" y="460" type="curve" smooth="yes"/>
      <point x="300" y="460"/>
      <point x="309" y="444"/>
      <point x="301" y="405" type="curve"/>
      <point x="374" y="427"/>
      <point x="378" y="432"/>
      <point x="379" y="435" type="curve" smooth="yes"/>
      <point x="395" y="498"/>
      <point x="368" y="541"/>
    </contour>
    <contour>
      <point x="269" y="0" type="curve"/>
      <point x="379" y="435" type="line" smooth="yes"/>
      <point x="387" y="468"/>
      <point x="359" y="484"/>
      <point x="302" y="469" type="curve"/>
      <point x="308" y="448"/>
      <point x="308" y="438"/>
      <point x="298" y="400" type="curve" smooth="yes"/>
      <point x="200" y="11" type="line" smooth="yes"/>
      <point x="199" y="5"/>
      <point x="202" y="0"/>
      <point x="208" y="0" type="curve" smooth="yes"/>
      <point x="229" y="0"/>
      <point x="249" y="0"/>
    </contour>
    <contour>
      <point x="526" y="541" type="curve" smooth="yes"/>
      <point x="483" y="541"/>
      <point x="435" y="515"/>
      <point x="389" y="462" type="curve" smooth="yes"/>
      <point x="365" y="436"/>
      <point x="336" y="395"/>
      <point x="337" y="359" type="curve"/>
      <point x="402" y="430"/>
      <point x="448" y="460"/>
      <point x="484" y="460" type="curve" smooth="yes"/>
      <point x="511" y="460"/>
      <point x="522" y="444"/>
      <point x="511" y="404" type="curve"/>
      <point x="586" y="425"/>
      <point x="590" y="427"/>
      <point x="591" y="431" type="curve" smooth="yes"/>
      <point x="608" y="495"/>
      <point x="584" y="541"/>
    </contour>
    <contour>
      <point x="482" y="0" type="curve"/>
      <point x="492" y="35"/>
      <point x="500" y="67"/>
      <point x="507" y="98" type="curve" smooth="yes"/>
      <point x="591" y="431" type="line" smooth="yes"/>
      <point x="600" y="468"/>
      <point x="578" y="488"/>
      <point x="513" y="472" type="curve"/>
      <point x="519" y="450"/>
      <point x="519" y="439"/>
      <point x="508" y="400" type="curve" smooth="yes"/>
      <point x="411" y="11" type="line" smooth="yes"/>
      <point x="410" y="5"/>
      <point x="413" y="0"/>
      <point x="419" y="0" type="curve" smooth="yes"/>
      <point x="440" y="0"/>
      <point x="461" y="0"/>
    </contour>
  </outline>
</glyph>
<glyph name="n" format="1">
  <advance width="600"/>
  <unicode hex="006E"/>
  <outline>
    <contour>
      <point x="115" y="0" type="curve"/>
      <point x="246" y="519" type="line" smooth="yes"/>
      <point x="247" y="523"/>
      <point x="247" y="526"/>
      <point x="245" y="528" type="curve" smooth="yes"/>
      <point x="243" y="530"/>
      <point x="241" y="530"/>
      <point x="238" y="530" type="curve" smooth="yes"/>
      <point x="215" y="530"/>
      <point x="191" y="530"/>
      <point x="165" y="530" type="curve"/>
      <point x="160" y="511"/>
      <point x="151" y="475"/>
      <point x="140" y="431" type="curve" smooth="yes"/>
      <point x="34" y="11" type="line" smooth="yes"/>
      <point x="32" y="5"/>
      <point x="36" y="0"/>
      <point x="42" y="0" type="curve" smooth="yes"/>
      <point x="66" y="0"/>
      <point x="91" y="0"/>
    </contour>
    <contour>
      <point x="427" y="541" type="curve" smooth="yes"/>
      <point x="353" y="541"/>
      <point x="289" y="502"/>
      <point x="220" y="430" type="curve" smooth="yes"/>
      <point x="194" y="402"/>
      <point x="177" y="363"/>
      <point x="178" y="316" type="curve"/>
      <point x="267" y="418"/>
      <point x="336" y="460"/>
      <point x="393" y="460" type="curve" smooth="yes"/>
      <point x="442" y="460"/>
      <point x="462" y="428"/>
      <point x="447" y="366" type="curve"/>
      <point x="521" y="367"/>
      <point x="533" y="376"/>
      <point x="536" y="388" type="curve" smooth="yes"/>
      <point x="556" y="467"/>
      <point x="521" y="541"/>
    </contour>
    <contour>
      <point x="439" y="0" type="curve"/>
      <point x="447" y="33"/>
      <point x="456" y="66"/>
      <point x="464" y="97" type="curve" smooth="yes"/>
      <point x="536" y="388" type="line"/>
      <point x="545" y="420"/>
      <point x="513" y="456"/>
      <point x="459" y="442" type="curve"/>
      <point x="459" y="419"/>
      <point x="457" y="406"/>
      <point x="447" y="366" type="curve" smooth="yes"/>
      <point x="358" y="11" type="line" smooth="yes"/>
      <point x="356" y="5"/>
      <point x="360" y="0"/>
      <point x="366" y="0" type="curve" smooth="yes"/>
      <point x="390" y="0"/>
      <point x="415" y="0"/>
    </contour>
    <contour>
      <point x="437" y="711" type="move" name="caronslovak"/>
    </contour>
    <contour>
      <point x="391" y="541" type="move" name="top"/>
    </contour>
    <contour>
      <point x="213" y="-1" type="move" name="bottom"/>
    </contour>
  </outline>
</glyph>
<glyph name="o" format="1">
  <advance width="600"/>
  <unicode hex="006F"/>
  <outline>
    <contour>
      <point x="356" y="541" type="curve" smooth="yes"/>
      <point x="211" y="541"/>
      <point x="127" y="466"/>
      <point x="92" y="325" type="curve" smooth="yes"/>
      <point x="64" y="218" type="line" smooth="yes"/>
      <point x="31" y="89"/>
      <point x="104" y="-11"/>
      <point x="248" y="-11" type="curve" smooth="yes"/>
      <point x="262" y="-11"/>
      <point x="267" y="12"/>
      <point x="257" y="65" type="curve"/>
      <point x="136" y="65"/>
      <point x="127" y="150"/>
      <point x="145" y="216" type="curve" smooth="yes"/>
      <point x="172" y="322" type="line" smooth="yes"/>
      <point x="196" y="415"/>
      <point x="253" y="467"/>
      <point x="345" y="467" type="curve" smooth="yes"/>
      <point x="398" y="467"/>
      <point x="433" y="456"/>
      <point x="465" y="427" type="curve"/>
      <point x="506" y="467"/>
      <point x="460" y="541"/>
    </contour>
    <contour>
      <point x="248" y="-11" type="curve" smooth="yes"/>
      <point x="391" y="-11"/>
      <point x="472" y="64"/>
      <point x="508" y="204" type="curve" smooth="yes"/>
      <point x="535" y="312" type="line" smooth="yes"/>
      <point x="568" y="441"/>
      <point x="495" y="541"/>
      <point x="356" y="541" type="curve" smooth="yes"/>
      <point x="341" y="541"/>
      <point x="329" y="521"/>
      <point x="345" y="467" type="curve"/>
      <point x="464" y="467"/>
      <point x="472" y="381"/>
      <point x="455" y="314" type="curve" smooth="yes"/>
      <point x="427" y="209" type="line" smooth="yes"/>
      <point x="403" y="118"/>
      <point x="347" y="65"/>
      <point x="257" y="65" type="curve" smooth="yes"/>
      <point x="202" y="65"/>
      <point x="164" y="75"/>
      <point x="134" y="103" type="curve"/>
      <point x="92" y="63"/>
      <point x="144" y="-11"/>
    </contour>
    <contour>
      <point x="391" y="541" type="move" name="top"/>
    </contour>
    <contour>
      <point x="281" y="-1" type="move" name="ogonek"/>
    </contour>
    <contour>
      <point x="212" y="-1" type="move" name="bottom"/>
    </contour>
  </outline>
</glyph>
<glyph name="p" format="1">
  <advance width="600"/>
  <unicode hex="0070"/>
  <outline>
    <contour>
      <point x="61" y="-214" type="curve"/>
      <point x="246" y="519" type="line" smooth="yes"/>
      <point x="247" y="522"/>
      <point x="247" y="526"/>
      <point x="245" y="528" type="curve" smooth="yes"/>
      <point x="243" y="530"/>
      <point x="241" y="530"/>
      <point x="238" y="530" type="curve"/>
      <point x="214" y="530"/>
      <point x="190" y="530"/>
      <point x="166" y="530" type="curve"/>
      <point x="157" y="497"/>
      <point x="149" y="464"/>
      <point x="141" y="430" type="curve" smooth="yes"/>
      <point x="-20" y="-202" type="line" smooth="yes"/>
      <point x="-21" y="-209"/>
      <point x="-17" y="-214"/>
      <point x="-11" y="-214" type="curve"/>
      <point x="13" y="-214"/>
      <point x="37" y="-214"/>
    </contour>
    <contour>
      <point x="409" y="541" type="curve" smooth="yes"/>
      <point x="339" y="541"/>
      <point x="284" y="509"/>
      <point x="227" y="459" type="curve" smooth="yes"/>
      <point x="194" y="427"/>
      <point x="177" y="394"/>
      <point x="178" y="359" type="curve"/>
      <point x="268" y="435"/>
      <point x="321" y="465"/>
      <point x="385" y="465" type="curve" smooth="yes"/>
      <point x="459" y="465"/>
      <point x="487" y="414"/>
      <point x="464" y="323" type="curve"/>
      <point x="533" y="315"/>
      <point x="548" y="322"/>
      <point x="549" y="330" type="curve" smooth="yes"/>
      <point x="577" y="444"/>
      <point x="525" y="541"/>
    </contour>
    <contour>
      <point x="293" y="-11" type="curve" smooth="yes"/>
      <point x="401" y="-11"/>
      <point x="479" y="48"/>
      <point x="519" y="208" type="curve" smooth="yes"/>
      <point x="549" y="331" type="line" smooth="yes"/>
      <point x="564" y="386"/>
      <point x="538" y="467"/>
      <point x="496" y="467" type="curve" smooth="yes"/>
      <point x="480" y="467"/>
      <point x="469" y="462"/>
      <point x="465" y="451" type="curve"/>
      <point x="478" y="415"/>
      <point x="481" y="391"/>
      <point x="464" y="323" type="curve" smooth="yes"/>
      <point x="438" y="219" type="line" smooth="yes"/>
      <point x="409" y="103"/>
      <point x="357" y="64"/>
      <point x="291" y="64" type="curve" smooth="yes"/>
      <point x="222" y="64"/>
      <point x="181" y="84"/>
      <point x="128" y="157" type="curve"/>
      <point x="112" y="135"/>
      <point x="106" y="118"/>
      <point x="110" y="106" type="curve" smooth="yes"/>
      <point x="131" y="50"/>
      <point x="190" y="-11"/>
    </contour>
  </outline>
</glyph>
<glyph name="q" format="1">
  <advance width="600"/>
  <unicode hex="0071"/>
  <outline>
    <contour>
      <point x="315" y="541" type="curve" smooth="yes"/>
      <point x="205" y="541"/>
      <point x="126" y="482"/>
      <point x="84" y="319" type="curve" smooth="yes"/>
      <point x="48" y="185" type="line" smooth="yes"/>
      <point x="35" y="129"/>
      <point x="63" y="65"/>
      <point x="105" y="65" type="curve" smooth="yes"/>
      <point x="121" y="65"/>
      <point x="133" y="70"/>
      <point x="136" y="81" type="curve"/>
      <point x="125" y="116"/>
      <point x="118" y="126"/>
      <point x="135" y="194" type="curve" smooth="yes"/>
      <point x="162" y="304" type="line" smooth="yes"/>
      <point x="192" y="424"/>
      <point x="244" y="465"/>
      <point x="319" y="465" type="curve" smooth="yes"/>
      <point x="385" y="465"/>
      <point x="426" y="434"/>
      <point x="459" y="368" type="curve"/>
      <point x="469" y="371"/>
      <point x="484" y="401"/>
      <point x="482" y="415" type="curve" smooth="yes"/>
      <point x="471" y="475"/>
      <point x="411" y="541"/>
    </contour>
    <contour>
      <point x="177" y="-10" type="curve" smooth="yes"/>
      <point x="254" y="-10"/>
      <point x="314" y="23"/>
      <point x="375" y="78" type="curve" smooth="yes"/>
      <point x="410" y="110"/>
      <point x="422" y="147"/>
      <point x="417" y="181" type="curve"/>
      <point x="326" y="96"/>
      <point x="271" y="66"/>
      <point x="206" y="66" type="curve" smooth="yes"/>
      <point x="140" y="66"/>
      <point x="113" y="107"/>
      <point x="135" y="194" type="curve"/>
      <point x="83" y="204"/>
      <point x="50" y="192"/>
      <point x="48" y="185" type="curve" smooth="yes"/>
      <point x="20" y="69"/>
      <point x="73" y="-10"/>
    </contour>
    <contour>
      <point x="382" y="-214" type="curve"/>
      <point x="545" y="430" type="line" smooth="yes"/>
      <point x="553" y="463"/>
      <point x="562" y="497"/>
      <point x="570" y="530" type="curve"/>
      <point x="546" y="530"/>
      <point x="522" y="530"/>
      <point x="498" y="530" type="curve" smooth="yes"/>
      <point x="494" y="530"/>
      <point x="491" y="529"/>
      <point x="489" y="527" type="curve" smooth="yes"/>
      <point x="487" y="525"/>
      <point x="485" y="523"/>
      <point x="484" y="519" type="curve" smooth="yes"/>
      <point x="302" y="-203" type="line" smooth="yes"/>
      <point x="300" y="-210"/>
      <point x="305" y="-214"/>
      <point x="311" y="-214" type="curve" smooth="yes"/>
      <point x="335" y="-214"/>
      <point x="359" y="-214"/>
    </contour>
  </outline>
</glyph>
<glyph name="r" format="1">
  <advance width="600"/>
  <unicode hex="0072"/>
  <outline>
    <contour>
      <point x="135" y="530" type="curve"/>
      <point x="129" y="507"/>
      <point x="124" y="489"/>
      <point x="119" y="466" type="curve" smooth="yes"/>
      <point x="117" y="460"/>
      <point x="121" y="455"/>
      <point x="127" y="455" type="curve" smooth="yes"/>
      <point x="185" y="455"/>
      <point x="249" y="455"/>
      <point x="307" y="455" type="curve"/>
      <point x="318" y="496"/>
      <point x="319" y="530"/>
      <point x="311" y="530" type="curve" smooth="yes"/>
      <point x="253" y="530"/>
      <point x="193" y="530"/>
    </contour>
    <contour>
      <point x="217" y="0" type="curve"/>
      <point x="227" y="38"/>
      <point x="234" y="69"/>
      <point x="242" y="99" type="curve" smooth="yes"/>
      <point x="337" y="474" type="line" smooth="yes"/>
      <point x="340" y="485"/>
      <point x="327" y="530"/>
      <point x="311" y="530" type="curve" smooth="yes"/>
      <point x="302" y="530"/>
      <point x="288" y="529"/>
      <point x="269" y="525" type="curve"/>
      <point x="138" y="11" type="line" smooth="yes"/>
      <point x="137" y="5"/>
      <point x="140" y="0"/>
      <point x="146" y="0" type="curve" smooth="yes"/>
      <point x="171" y="0"/>
      <point x="193" y="0"/>
    </contour>
    <contour>
      <point x="275" y="332" type="curve"/>
      <point x="387" y="434"/>
      <point x="443" y="454"/>
      <point x="506" y="454" type="curve" smooth="yes"/>
      <point x="530" y="454"/>
      <point x="553" y="453"/>
      <point x="575" y="451" type="curve"/>
      <point x="586" y="451" type="line"/>
      <point x="592" y="473"/>
      <point x="602" y="514"/>
      <point x="605" y="526" type="curve"/>
      <point x="608" y="533"/>
      <point x="604" y="537"/>
      <point x="597" y="537" type="curve" smooth="yes"/>
      <point x="545" y="537" type="line" smooth="yes"/>
      <point x="450" y="537"/>
      <point x="386" y="506"/>
      <point x="313" y="430" type="curve" smooth="yes"/>
      <point x="294" y="410"/>
      <point x="286" y="387"/>
    </contour>
  </outline>
</glyph>
<glyph name="s" format="1">
  <advance width="600"/>
  <unicode hex="0073"/>
  <outline>
    <contour>
      <point x="376" y="539" type="curve" smooth="yes"/>
      <point x="369" y="539" type="line" smooth="yes"/>
      <point x="234" y="539"/>
      <point x="156" y="491"/>
      <point x="131" y="398" type="curve" smooth="yes"/>
      <point x="121" y="359"/>
      <point x="159" y="342"/>
      <point x="198" y="342" type="curve"/>
      <point x="202" y="359"/>
      <point x="208" y="379"/>
      <point x="211" y="393" type="curve" smooth="yes"/>
      <point x="223" y="440"/>
      <point x="275" y="464"/>
      <point x="360" y="464" type="curve" smooth="yes"/>
      <point x="424" y="464"/>
      <point x="469" y="454"/>
      <point x="514" y="434" type="curve"/>
      <point x="529" y="434" type="line"/>
      <point x="535" y="454"/>
      <point x="539" y="470"/>
      <point x="545" y="493" type="curve"/>
      <point x="546" y="497"/>
      <point x="546" y="500"/>
      <point x="544" y="503" type="curve" smooth="yes"/>
      <point x="535" y="512"/>
      <point x="469" y="539"/>
    </contour>
    <contour>
      <point x="367" y="295" type="curve" smooth="yes"/>
      <point x="282" y="313" type="line" smooth="yes"/>
      <point x="213" y="330"/>
      <point x="201" y="352"/>
      <point x="211" y="393" type="curve" smooth="yes"/>
      <point x="214" y="408"/>
      <point x="220" y="428"/>
      <point x="226" y="451" type="curve"/>
      <point x="180" y="451"/>
      <point x="138" y="429"/>
      <point x="131" y="398" type="curve"/>
      <point x="112" y="324"/>
      <point x="148" y="269"/>
      <point x="243" y="249" type="curve" smooth="yes"/>
      <point x="327" y="230" type="line" smooth="yes"/>
      <point x="401" y="212"/>
      <point x="416" y="187"/>
      <point x="404" y="143" type="curve" smooth="yes"/>
      <point x="400" y="125"/>
      <point x="392" y="101"/>
      <point x="388" y="84" type="curve"/>
      <point x="441" y="84"/>
      <point x="477" y="113"/>
      <point x="483" y="136" type="curve" smooth="yes"/>
      <point x="502" y="211"/>
      <point x="471" y="273"/>
    </contour>
    <contour>
      <point x="253" y="66" type="curve" smooth="yes"/>
      <point x="163" y="66"/>
      <point x="111" y="86"/>
      <point x="60" y="122" type="curve"/>
      <point x="45" y="122" type="line"/>
      <point x="41" y="103"/>
      <point x="36" y="85"/>
      <point x="29" y="58" type="curve" smooth="yes"/>
      <point x="28" y="54"/>
      <point x="29" y="51"/>
      <point x="31" y="49" type="curve" smooth="yes"/>
      <point x="52" y="27"/>
      <point x="120" y="-8"/>
      <point x="236" y="-8" type="curve" smooth="yes"/>
      <point x="244" y="-8" type="line" smooth="yes"/>
      <point x="379" y="-8"/>
      <point x="456" y="38"/>
      <point x="483" y="136" type="curve" smooth="yes"/>
      <point x="492" y="169"/>
      <point x="464" y="199"/>
      <point x="420" y="199" type="curve"/>
      <point x="414" y="177"/>
      <point x="410" y="162"/>
      <point x="404" y="143" type="curve" smooth="yes"/>
      <point x="392" y="99"/>
      <point x="346" y="66"/>
    </contour>
    <contour>
      <point x="380" y="541" type="move" name="top"/>
    </contour>
    <contour>
      <point x="238" y="-1" type="move" name="bottom"/>
    </contour>
  </outline>
</glyph>
<glyph name="t" format="1">
  <advance width="600"/>
  <unicode hex="0074"/>
  <outline>
    <contour>
      <point x="314" y="700" type="curve"/>
      <point x="189" y="197" type="line" smooth="yes"/>
      <point x="164" y="98"/>
      <point x="202" y="54"/>
      <point x="267" y="61" type="curve"/>
      <point x="253" y="107"/>
      <point x="252" y="124"/>
      <point x="272" y="207" type="curve" smooth="yes"/>
      <point x="393" y="689" type="line" smooth="yes"/>
      <point x="395" y="695"/>
      <point x="391" y="700"/>
      <point x="385" y="700" type="curve" smooth="yes"/>
      <point x="362" y="700"/>
      <point x="338" y="700"/>
    </contour>
    <contour>
      <point x="452" y="76" type="curve"/>
      <point x="439" y="76" type="line"/>
      <point x="411" y="76"/>
      <point x="396" y="76"/>
      <point x="360" y="76" type="curve" smooth="yes"/>
      <point x="267" y="76"/>
      <point x="247" y="106"/>
      <point x="272" y="207" type="curve"/>
      <point x="214" y="224"/>
      <point x="192" y="214"/>
      <point x="189" y="197" type="curve" smooth="yes"/>
      <point x="152" y="49"/>
      <point x="230" y="0"/>
      <point x="341" y="0" type="curve" smooth="yes"/>
      <point x="422" y="0" type="line" smooth="yes"/>
      <point x="426" y="0"/>
      <point x="429" y="0"/>
      <point x="432" y="3" type="curve" smooth="yes"/>
      <point x="434" y="5"/>
      <point x="435" y="7"/>
      <point x="436" y="11" type="curve" smooth="yes"/>
      <point x="442" y="34"/>
      <point x="446" y="53"/>
    </contour>
    <contour>
      <point x="142" y="530" type="line"/>
      <point x="136" y="508"/>
      <point x="131" y="490"/>
      <point x="126" y="467" type="curve" smooth="yes"/>
      <point x="125" y="464"/>
      <point x="125" y="461"/>
      <point x="127" y="459" type="curve" smooth="yes"/>
      <point x="128" y="457"/>
      <point x="131" y="456"/>
      <point x="134" y="456" type="curve" smooth="yes"/>
      <point x="548" y="456" type="line"/>
      <point x="554" y="479"/>
      <point x="558" y="497"/>
      <point x="563" y="519" type="curve" smooth="yes"/>
      <point x="565" y="525"/>
      <point x="561" y="530"/>
      <point x="555" y="530" type="curve" smooth="yes"/>
    </contour>
    <contour>
      <point x="546" y="700" type="move" name="caronslovak"/>
    </contour>
    <contour>
      <point x="303" y="-1" type="move" name="bottom"/>
    </contour>
  </outline>
</glyph>
<glyph name="v" format="1">
  <advance width="600"/>
  <unicode hex="0076"/>
  <outline>
    <contour>
      <point x="605" y="530" type="curve" smooth="yes"/>
      <point x="530" y="530" type="line"/>
      <point x="434" y="370"/>
      <point x="337" y="210"/>
      <point x="241" y="49" type="curve"/>
      <point x="224" y="18"/>
      <point x="216" y="9"/>
      <point x="195" y="0" type="curve"/>
      <point x="295" y="0" type="line"/>
      <point x="401" y="173"/>
      <point x="506" y="344"/>
      <point x="611" y="517" type="curve"/>
      <point x="616" y="525"/>
      <point x="612" y="530"/>
    </contour>
    <contour>
      <point x="188" y="530" type="curve" smooth="yes"/>
      <point x="114" y="530" type="line"/>
      <point x="133" y="357"/>
      <point x="150" y="185"/>
      <point x="169" y="12" type="curve"/>
      <point x="169" y="4"/>
      <point x="174" y="0"/>
      <point x="183" y="0" type="curve" smooth="yes"/>
      <point x="201" y="0" type="line" smooth="yes"/>
      <point x="236" y="0"/>
      <point x="300" y="19"/>
      <point x="316" y="75" type="curve"/>
      <point x="292" y="75"/>
      <point x="270" y="75"/>
      <point x="250" y="75" type="curve" smooth="yes"/>
      <point x="244" y="75"/>
      <point x="243" y="78"/>
      <point x="242" y="84" type="curve"/>
      <point x="228" y="230"/>
      <point x="214" y="370"/>
      <point x="200" y="517" type="curve"/>
      <point x="199" y="526"/>
      <point x="196" y="530"/>
    </contour>
  </outline>
</glyph>
<glyph name="w" format="1">
  <advance width="600"/>
  <unicode hex="0077"/>
  <outline>
    <contour>
      <point x="108" y="530" type="curve"/>
      <point x="90" y="358"/>
      <point x="72" y="185"/>
      <point x="54" y="12" type="curve" smooth="yes"/>
      <point x="52" y="4"/>
      <point x="58" y="0"/>
      <point x="66" y="0" type="curve" smooth="yes"/>
      <point x="88" y="0" type="line" smooth="yes"/>
      <point x="99" y="0"/>
      <point x="112" y="12"/>
      <point x="119" y="28" type="curve" smooth="yes"/>
      <point x="140" y="192"/>
      <point x="162" y="355"/>
      <point x="183" y="517" type="curve"/>
      <point x="184" y="524"/>
      <point x="183" y="527"/>
      <point x="182" y="528" type="curve" smooth="yes"/>
      <point x="181" y="529"/>
      <point x="179" y="530"/>
      <point x="175" y="530" type="curve"/>
      <point x="152" y="530"/>
      <point x="131" y="530"/>
    </contour>
    <contour>
      <point x="348" y="424" type="curve" smooth="yes"/>
      <point x="304" y="424" type="line"/>
      <point x="241" y="300"/>
      <point x="177" y="175"/>
      <point x="113" y="49" type="curve"/>
      <point x="97" y="18"/>
      <point x="92" y="9"/>
      <point x="78" y="0" type="curve"/>
      <point x="150" y="0" type="line"/>
      <point x="217" y="135"/>
      <point x="284" y="270"/>
      <point x="352" y="405" type="curve" smooth="yes"/>
      <point x="358" y="418"/>
      <point x="356" y="424"/>
    </contour>
    <contour>
      <point x="364" y="424" type="curve" smooth="yes"/>
      <point x="319" y="424" type="line"/>
      <point x="317" y="288"/>
      <point x="315" y="150"/>
      <point x="313" y="12" type="curve" smooth="yes"/>
      <point x="313" y="4"/>
      <point x="319" y="0"/>
      <point x="326" y="0" type="curve" smooth="yes"/>
      <point x="345" y="0" type="line" smooth="yes"/>
      <point x="355" y="0"/>
      <point x="366" y="10"/>
      <point x="368" y="25" type="curve" smooth="yes"/>
      <point x="370" y="162"/>
      <point x="371" y="288"/>
      <point x="372" y="414" type="curve" smooth="yes"/>
      <point x="372" y="423"/>
      <point x="369" y="424"/>
    </contour>
    <contour>
      <point x="542" y="530" type="curve"/>
      <point x="483" y="370"/>
      <point x="421" y="210"/>
      <point x="361" y="49" type="curve"/>
      <point x="349" y="19"/>
      <point x="345" y="9"/>
      <point x="336" y="0" type="curve"/>
      <point x="409" y="0" type="line"/>
      <point x="480" y="172"/>
      <point x="550" y="346"/>
      <point x="619" y="518" type="curve"/>
      <point x="622" y="525"/>
      <point x="622" y="527"/>
      <point x="620" y="529" type="curve" smooth="yes"/>
      <point x="619" y="530"/>
      <point x="617" y="530"/>
      <point x="614" y="530" type="curve"/>
      <point x="590" y="530"/>
      <point x="566" y="530"/>
    </contour>
    <contour>
      <point x="367" y="541" type="move" name="top"/>
    </contour>
  </outline>
</glyph>
<glyph name="x" format="1">
  <advance width="600"/>
  <unicode hex="0078"/>
  <outline>
    <contour>
      <point x="389" y="0" type="curve" smooth="yes"/>
      <point x="416" y="0"/>
      <point x="437" y="0"/>
      <point x="464" y="0" type="curve"/>
      <point x="424" y="95"/>
      <point x="382" y="189"/>
      <point x="341" y="284" type="curve" smooth="yes"/>
      <point x="337" y="293"/>
      <point x="329" y="299"/>
      <point x="326" y="308" type="curve" smooth="yes"/>
      <point x="295" y="378"/>
      <point x="265" y="448"/>
      <point x="235" y="518" type="curve" smooth="yes"/>
      <point x="231" y="527"/>
      <point x="226" y="530"/>
      <point x="217" y="530" type="curve" smooth="yes"/>
      <point x="189" y="530"/>
      <point x="169" y="530"/>
      <point x="141" y="530" type="curve"/>
      <point x="181" y="438"/>
      <point x="220" y="346"/>
      <point x="260" y="254" type="curve" smooth="yes"/>
      <point x="264" y="244"/>
      <point x="272" y="239"/>
      <point x="276" y="230" type="curve" smooth="yes"/>
      <point x="307" y="157"/>
      <point x="339" y="85"/>
      <point x="371" y="12" type="curve" smooth="yes"/>
      <point x="374" y="5"/>
      <point x="379" y="0"/>
    </contour>
    <contour>
      <point x="581" y="530" type="curve" smooth="yes"/>
      <point x="497" y="530" type="line"/>
      <point x="430" y="455"/>
      <point x="364" y="380"/>
      <point x="296" y="304" type="curve" smooth="yes"/>
      <point x="286" y="293"/>
      <point x="274" y="303"/>
      <point x="263" y="292" type="curve" smooth="yes"/>
      <point x="181" y="204"/>
      <point x="99" y="116"/>
      <point x="17" y="27" type="curve" smooth="yes"/>
      <point x="7" y="16"/>
      <point x="5" y="13"/>
      <point x="5" y="8" type="curve" smooth="yes"/>
      <point x="4" y="3"/>
      <point x="7" y="0"/>
      <point x="15" y="0" type="curve" smooth="yes"/>
      <point x="99" y="0" type="line"/>
      <point x="168" y="77"/>
      <point x="237" y="155"/>
      <point x="306" y="232" type="curve" smooth="yes"/>
      <point x="317" y="245"/>
      <point x="328" y="235"/>
      <point x="339" y="247" type="curve" smooth="yes"/>
      <point x="421" y="334"/>
      <point x="503" y="423"/>
      <point x="584" y="510" type="curve" smooth="yes"/>
      <point x="588" y="514"/>
      <point x="591" y="518"/>
      <point x="591" y="522" type="curve" smooth="yes"/>
      <point x="591" y="528"/>
      <point x="587" y="530"/>
    </contour>
  </outline>
</glyph>
<glyph name="y" format="1">
  <advance width="600"/>
  <unicode hex="0079"/>
  <outline>
    <contour>
      <point x="165" y="530" type="curve"/>
      <point x="156" y="498"/>
      <point x="148" y="465"/>
      <point x="140" y="434" type="curve" smooth="yes"/>
      <point x="69" y="149" type="line"/>
      <point x="60" y="117"/>
      <point x="93" y="81"/>
      <point x="145" y="94" type="curve"/>
      <point x="145" y="118"/>
      <point x="147" y="131"/>
      <point x="157" y="171" type="curve" smooth="yes"/>
      <point x="246" y="519" type="line" smooth="yes"/>
      <point x="247" y="525"/>
      <point x="244" y="530"/>
      <point x="238" y="530" type="curve" smooth="yes"/>
      <point x="213" y="530"/>
      <point x="189" y="530"/>
    </contour>
    <contour>
      <point x="179" y="-5" type="curve" smooth="yes"/>
      <point x="253" y="-5"/>
      <point x="317" y="33"/>
      <point x="387" y="105" type="curve" smooth="yes"/>
      <point x="414" y="132"/>
      <point x="427" y="172"/>
      <point x="425" y="216" type="curve"/>
      <point x="336" y="117"/>
      <point x="269" y="76"/>
      <point x="211" y="76" type="curve" smooth="yes"/>
      <point x="159" y="76"/>
      <point x="139" y="101"/>
      <point x="157" y="171" type="curve"/>
      <point x="87" y="170"/>
      <point x="72" y="163"/>
      <point x="69" y="149" type="curve" smooth="yes"/>
      <point x="49" y="68"/>
      <point x="82" y="-5"/>
    </contour>
    <contour>
      <point x="438" y="-12" type="curve" smooth="yes"/>
      <point x="574" y="519" type="line" smooth="yes"/>
      <point x="576" y="526"/>
      <point x="572" y="530"/>
      <point x="566" y="530" type="curve" smooth="yes"/>
      <point x="541" y="530"/>
      <point x="518" y="530"/>
      <point x="494" y="530" type="curve"/>
      <point x="360" y="0" type="line" smooth="yes"/>
      <point x="336" y="-93"/>
      <point x="307" y="-138"/>
      <point x="246" y="-185" type="curve"/>
      <point x="317" y="-201"/>
      <point x="409" y="-127"/>
    </contour>
    <contour>
      <point x="153" y="-172" type="curve" smooth="yes"/>
      <point x="85" y="-172"/>
      <point x="48" y="-158"/>
      <point x="12" y="-140" type="curve"/>
      <point x="-3" y="-140" type="line"/>
      <point x="-9" y="-163"/>
      <point x="-14" y="-181"/>
      <point x="-19" y="-202" type="curve" smooth="yes"/>
      <point x="-21" y="-207"/>
      <point x="-20" y="-210"/>
      <point x="-18" y="-212" type="curve" smooth="yes"/>
      <point x="-7" y="-227"/>
      <point x="52" y="-250"/>
      <point x="141" y="-250" type="curve" smooth="yes"/>
      <point x="298" y="-250"/>
      <point x="392" y="-190"/>
      <point x="438" y="-12" type="curve" smooth="yes"/>
      <point x="442" y="3"/>
      <point x="415" y="9"/>
      <point x="360" y="0" type="curve"/>
      <point x="327" y="-131"/>
      <point x="252" y="-172"/>
    </contour>
  </outline>
</glyph>
<glyph name="z" format="1">
  <advance width="600"/>
  <unicode hex="007A"/>
  <outline>
    <contour>
      <point x="147" y="530" type="line"/>
      <point x="141" y="509"/>
      <point x="136" y="489"/>
      <point x="130" y="467" type="curve" smooth="yes"/>
      <point x="129" y="463"/>
      <point x="129" y="460"/>
      <point x="131" y="458" type="curve" smooth="yes"/>
      <point x="133" y="456"/>
      <point x="136" y="456"/>
      <point x="139" y="456" type="curve" smooth="yes"/>
      <point x="481" y="456" type="line" smooth="yes"/>
      <point x="507" y="456"/>
      <point x="553" y="457"/>
      <point x="576" y="460" type="curve"/>
      <point x="590" y="519" type="line" smooth="yes"/>
      <point x="591" y="523"/>
      <point x="591" y="526"/>
      <point x="589" y="528" type="curve" smooth="yes"/>
      <point x="587" y="530"/>
      <point x="585" y="530"/>
      <point x="582" y="530" type="curve" smooth="yes"/>
    </contour>
    <contour>
      <point x="500" y="489" type="curve"/>
      <point x="340" y="347"/>
      <point x="187" y="211"/>
      <point x="30" y="70" type="curve"/>
      <point x="17" y="20"/>
      <point x="89" y="27"/>
      <point x="120" y="51" type="curve" smooth="yes"/>
      <point x="280" y="195"/>
      <point x="575" y="459"/>
      <point x="576" y="460" type="curve"/>
      <point x="581" y="481"/>
      <point x="554" y="489"/>
    </contour>
    <contour>
      <point x="458" y="0" type="line"/>
      <point x="463" y="22"/>
      <point x="469" y="42"/>
      <point x="474" y="63" type="curve"/>
      <point x="476" y="70"/>
      <point x="473" y="74"/>
      <point x="466" y="74" type="curve" smooth="yes"/>
      <point x="126" y="74" type="line" smooth="yes"/>
      <point x="95" y="74"/>
      <point x="63" y="74"/>
      <point x="30" y="70" type="curve"/>
      <point x="15" y="11" type="line" smooth="yes"/>
      <point x="14" y="7"/>
      <point x="14" y="4"/>
      <point x="16" y="2" type="curve" smooth="yes"/>
      <point x="17" y="0"/>
      <point x="20" y="0"/>
      <point x="23" y="0" type="curve" smooth="yes"/>
    </contour>
    <contour>
      <point x="369" y="541" type="move" name="top"/>
    </contour>
  </outline>
</glyph>
<glyph name="braceleft" format="1">
  <advance width="600"/>
  <unicode hex="007B"/>
  <outline>
    <contour>
      <point x="459" y="681" type="curve" smooth="yes"/>
      <point x="517" y="681"/>
      <point x="543" y="681"/>
      <point x="597" y="681" type="curve"/>
      <point x="617" y="681" type="line"/>
      <point x="623" y="704"/>
      <point x="628" y="726"/>
      <point x="634" y="749" type="curve"/>
      <point x="636" y="756"/>
      <point x="633" y="760"/>
      <point x="626" y="760" type="curve" smooth="yes"/>
      <point x="456" y="760" type="line" smooth="yes"/>
      <point x="377" y="760"/>
      <point x="335" y="700"/>
      <point x="326" y="664" type="curve" smooth="yes"/>
      <point x="325" y="660" type="line" smooth="yes"/>
      <point x="322" y="650"/>
      <point x="330" y="648"/>
      <point x="396" y="633" type="curve"/>
      <point x="410" y="667"/>
      <point x="427" y="681"/>
    </contour>
    <contour>
      <point x="424" y="447" type="curve" smooth="yes"/>
      <point x="446" y="533"/>
      <point x="382" y="564"/>
      <point x="394" y="614" type="curve" smooth="yes"/>
      <point x="398" y="629"/>
      <point x="406" y="662"/>
      <point x="412" y="683" type="curve"/>
      <point x="332" y="674"/>
      <point x="327" y="670"/>
      <point x="326" y="664" type="curve" smooth="yes"/>
      <point x="313" y="614" type="line" smooth="yes"/>
      <point x="294" y="536"/>
      <point x="359" y="513"/>
      <point x="343" y="445" type="curve" smooth="yes"/>
      <point x="326" y="379"/>
      <point x="242" y="339"/>
      <point x="121" y="339" type="curve" smooth="yes"/>
      <point x="89" y="339" type="line"/>
      <point x="76" y="288" type="line" smooth="yes"/>
      <point x="74" y="280"/>
      <point x="80" y="274"/>
      <point x="88" y="274" type="curve" smooth="yes"/>
      <point x="105" y="274" type="line" smooth="yes"/>
      <point x="282" y="274"/>
      <point x="399" y="347"/>
    </contour>
    <contour>
      <point x="350" y="152" type="curve" smooth="yes"/>
      <point x="376" y="253"/>
      <point x="299" y="326"/>
      <point x="118" y="326" type="curve" smooth="yes"/>
      <point x="107" y="326"/>
      <point x="97" y="326"/>
      <point x="86" y="326" type="curve"/>
      <point x="72" y="272" type="line" smooth="yes"/>
      <point x="70" y="265"/>
      <point x="73" y="261"/>
      <point x="80" y="261" type="curve" smooth="yes"/>
      <point x="101" y="261" type="line" smooth="yes"/>
      <point x="222" y="261"/>
      <point x="286" y="218"/>
      <point x="269" y="153" type="curve" smooth="yes"/>
      <point x="253" y="85"/>
      <point x="175" y="63"/>
      <point x="156" y="-15" type="curve" smooth="yes"/>
      <point x="143" y="-65" type="line" smooth="yes"/>
      <point x="142" y="-70"/>
      <point x="146" y="-75"/>
      <point x="221" y="-81" type="curve"/>
      <point x="226" y="-59"/>
      <point x="232" y="-37"/>
      <point x="237" y="-15" type="curve" smooth="yes"/>
      <point x="250" y="35"/>
      <point x="329" y="66"/>
    </contour>
    <contour>
      <point x="268" y="-82" type="curve" smooth="yes"/>
      <point x="236" y="-82"/>
      <point x="226" y="-68"/>
      <point x="230" y="-34" type="curve"/>
      <point x="156" y="-49"/>
      <point x="147" y="-51"/>
      <point x="144" y="-61" type="curve" smooth="yes"/>
      <point x="143" y="-65" type="line" smooth="yes"/>
      <point x="134" y="-101"/>
      <point x="146" y="-161"/>
      <point x="225" y="-161" type="curve" smooth="yes"/>
      <point x="396" y="-161" type="line" smooth="yes"/>
      <point x="403" y="-161"/>
      <point x="408" y="-157"/>
      <point x="409" y="-150" type="curve"/>
      <point x="426" y="-82" type="line"/>
      <point x="406" y="-82" type="line"/>
      <point x="352" y="-82"/>
      <point x="326" y="-82"/>
    </contour>
  </outline>
</glyph>
<glyph name="bar" format="1">
  <advance width="600"/>
  <unicode hex="007C"/>
  <outline>
    <contour>
      <point x="382" y="760" type="curve"/>
      <point x="373" y="726"/>
      <point x="365" y="692"/>
      <point x="356" y="658" type="curve" smooth="yes"/>
      <point x="154" y="-150" type="line" smooth="yes"/>
      <point x="153" y="-156"/>
      <point x="156" y="-161"/>
      <point x="162" y="-161" type="curve" smooth="yes"/>
      <point x="187" y="-161"/>
      <point x="211" y="-161"/>
      <point x="236" y="-161" type="curve"/>
      <point x="463" y="749" type="line" smooth="yes"/>
      <point x="464" y="752"/>
      <point x="464" y="755"/>
      <point x="462" y="757" type="curve" smooth="yes"/>
      <point x="461" y="759"/>
      <point x="458" y="760"/>
      <point x="455" y="760" type="curve" smooth="yes"/>
      <point x="430" y="760"/>
      <point x="406" y="760"/>
    </contour>
  </outline>
</glyph>
<glyph name="braceright" format="1">
  <advance width="600"/>
  <unicode hex="007D"/>
  <outline>
    <contour>
      <point x="158" y="-82" type="curve" smooth="yes"/>
      <point x="100" y="-82"/>
      <point x="74" y="-82"/>
      <point x="20" y="-82" type="curve"/>
      <point x="0" y="-82" type="line"/>
      <point x="-6" y="-105"/>
      <point x="-11" y="-127"/>
      <point x="-17" y="-150" type="curve"/>
      <point x="-19" y="-157"/>
      <point x="-16" y="-161"/>
      <point x="-9" y="-161" type="curve" smooth="yes"/>
      <point x="161" y="-161" type="line" smooth="yes"/>
      <point x="240" y="-161"/>
      <point x="283" y="-101"/>
      <point x="292" y="-65" type="curve" smooth="yes"/>
      <point x="293" y="-61" type="line" smooth="yes"/>
      <point x="295" y="-51"/>
      <point x="287" y="-49"/>
      <point x="221" y="-34" type="curve"/>
      <point x="207" y="-68"/>
      <point x="190" y="-82"/>
    </contour>
    <contour>
      <point x="193" y="152" type="curve" smooth="yes"/>
      <point x="171" y="66"/>
      <point x="235" y="35"/>
      <point x="223" y="-15" type="curve" smooth="yes"/>
      <point x="219" y="-30"/>
      <point x="211" y="-63"/>
      <point x="206" y="-84" type="curve"/>
      <point x="285" y="-75"/>
      <point x="290" y="-71"/>
      <point x="292" y="-65" type="curve" smooth="yes"/>
      <point x="304" y="-15" type="line" smooth="yes"/>
      <point x="323" y="63"/>
      <point x="258" y="86"/>
      <point x="275" y="154" type="curve" smooth="yes"/>
      <point x="291" y="220"/>
      <point x="375" y="260"/>
      <point x="496" y="260" type="curve" smooth="yes"/>
      <point x="528" y="260" type="line"/>
      <point x="541" y="311" type="line" smooth="yes"/>
      <point x="543" y="319"/>
      <point x="537" y="325"/>
      <point x="529" y="325" type="curve" smooth="yes"/>
      <point x="513" y="325" type="line" smooth="yes"/>
      <point x="335" y="325"/>
      <point x="218" y="252"/>
    </contour>
    <contour>
      <point x="267" y="447" type="curve" smooth="yes"/>
      <point x="241" y="346"/>
      <point x="318" y="273"/>
      <point x="500" y="273" type="curve" smooth="yes"/>
      <point x="511" y="273"/>
      <point x="521" y="273"/>
      <point x="532" y="273" type="curve"/>
      <point x="545" y="327" type="line" smooth="yes"/>
      <point x="547" y="334"/>
      <point x="544" y="338"/>
      <point x="537" y="338" type="curve" smooth="yes"/>
      <point x="516" y="338" type="line" smooth="yes"/>
      <point x="395" y="338"/>
      <point x="331" y="381"/>
      <point x="348" y="446" type="curve" smooth="yes"/>
      <point x="365" y="514"/>
      <point x="442" y="536"/>
      <point x="461" y="614" type="curve" smooth="yes"/>
      <point x="474" y="664" type="line" smooth="yes"/>
      <point x="475" y="669"/>
      <point x="471" y="674"/>
      <point x="397" y="680" type="curve"/>
      <point x="391" y="658"/>
      <point x="386" y="636"/>
      <point x="380" y="614" type="curve" smooth="yes"/>
      <point x="368" y="564"/>
      <point x="288" y="533"/>
    </contour>
    <contour>
      <point x="349" y="681" type="curve" smooth="yes"/>
      <point x="381" y="681"/>
      <point x="391" y="667"/>
      <point x="387" y="633" type="curve"/>
      <point x="461" y="648"/>
      <point x="470" y="650"/>
      <point x="473" y="660" type="curve" smooth="yes"/>
      <point x="474" y="664" type="line" smooth="yes"/>
      <point x="483" y="700"/>
      <point x="471" y="760"/>
      <point x="392" y="760" type="curve" smooth="yes"/>
      <point x="222" y="760" type="line" smooth="yes"/>
      <point x="215" y="760"/>
      <point x="210" y="756"/>
      <point x="208" y="749" type="curve"/>
      <point x="191" y="681" type="line"/>
      <point x="211" y="681" type="line"/>
      <point x="265" y="681"/>
      <point x="291" y="681"/>
    </contour>
  </outline>
</glyph>
<glyph name="asciitilde" format="1">
  <advance width="600"/>
  <unicode hex="007E"/>
  <outline>
    <contour>
      <point x="432" y="289" type="curve" smooth="yes"/>
      <point x="349" y="289"/>
      <point x="307" y="389"/>
      <point x="207" y="389" type="curve" smooth="yes"/>
      <point x="154" y="389"/>
      <point x="116" y="372"/>
      <point x="85" y="346" type="curve" smooth="yes"/>
      <point x="75" y="337"/>
      <point x="74" y="332"/>
      <point x="72" y="326" type="curve" smooth="yes"/>
      <point x="67" y="305"/>
      <point x="61" y="282"/>
      <point x="56" y="261" type="curve"/>
      <point x="70" y="261" type="line"/>
      <point x="112" y="298"/>
      <point x="143" y="312"/>
      <point x="186" y="312" type="curve" smooth="yes"/>
      <point x="268" y="312"/>
      <point x="311" y="212"/>
      <point x="411" y="212" type="curve" smooth="yes"/>
      <point x="464" y="212"/>
      <point x="501" y="230"/>
      <point x="533" y="256" type="curve" smooth="yes"/>
      <point x="543" y="264"/>
      <point x="544" y="269"/>
      <point x="546" y="276" type="curve" smooth="yes"/>
      <point x="551" y="296"/>
      <point x="557" y="320"/>
      <point x="562" y="341" type="curve"/>
      <point x="548" y="341" type="line"/>
      <point x="506" y="304"/>
      <point x="475" y="289"/>
    </contour>
  </outline>
</glyph>
<glyph name="exclamdown" format="1">
  <advance width="600"/>
  <unicode hex="00A1"/>
  <outline>
    <contour>
      <point x="270" y="275" type="line"/>
      <point x="243" y="193"/>
      <point x="216" y="110"/>
      <point x="189" y="28" type="curve"/>
      <point x="142" y="-159" type="line" smooth="yes"/>
      <point x="140" y="-166"/>
      <point x="144" y="-170"/>
      <point x="150" y="-170" type="curve" smooth="yes"/>
      <point x="186" y="-170"/>
      <point x="217" y="-170"/>
      <point x="243" y="-170" type="curve"/>
      <point x="253" y="-132"/>
      <point x="262" y="-97"/>
      <point x="271" y="-60" type="curve" smooth="yes"/>
      <point x="293" y="28" type="line"/>
      <point x="334" y="262"/>
      <point x="335" y="268"/>
      <point x="332" y="272" type="curve" smooth="yes"/>
      <point x="330" y="274"/>
      <point x="328" y="275"/>
      <point x="324" y="275" type="curve"/>
    </contour>
    <contour>
      <point x="294" y="537" type="curve"/>
      <point x="261" y="403" type="line" smooth="yes"/>
      <point x="259" y="397"/>
      <point x="263" y="392"/>
      <point x="269" y="392" type="curve" smooth="yes"/>
      <point x="309" y="392"/>
      <point x="365" y="392"/>
      <point x="406" y="392" type="curve"/>
      <point x="439" y="526" type="line" smooth="yes"/>
      <point x="441" y="532"/>
      <point x="437" y="537"/>
      <point x="431" y="537" type="curve" smooth="yes"/>
      <point x="391" y="537"/>
      <point x="334" y="537"/>
    </contour>
  </outline>
</glyph>
<glyph name="cent" format="1">
  <advance width="600"/>
  <unicode hex="00A2"/>
  <outline>
    <contour>
      <point x="397" y="397" type="line"/>
      <point x="524" y="757" type="line" smooth="yes"/>
      <point x="527" y="766"/>
      <point x="523" y="770"/>
      <point x="517" y="770" type="curve" smooth="yes"/>
      <point x="485" y="770"/>
      <point x="471" y="770"/>
      <point x="439" y="770" type="curve"/>
      <point x="432" y="741"/>
      <point x="425" y="711"/>
      <point x="417" y="681" type="curve"/>
      <point x="352" y="420" type="line" smooth="yes"/>
      <point x="350" y="412"/>
      <point x="353" y="408"/>
      <point x="359" y="407" type="curve" smooth="yes"/>
    </contour>
    <contour>
      <point x="323" y="303" type="line"/>
      <point x="196" y="-57" type="line" smooth="yes"/>
      <point x="193" y="-66"/>
      <point x="197" y="-70"/>
      <point x="203" y="-70" type="curve" smooth="yes"/>
      <point x="235" y="-70"/>
      <point x="249" y="-70"/>
      <point x="281" y="-70" type="curve"/>
      <point x="288" y="-40"/>
      <point x="295" y="-11"/>
      <point x="303" y="19" type="curve"/>
      <point x="368" y="280" type="line" smooth="yes"/>
      <point x="370" y="288"/>
      <point x="367" y="292"/>
      <point x="361" y="294" type="curve" smooth="yes"/>
    </contour>
    <contour>
      <point x="430" y="627" type="curve" smooth="yes"/>
      <point x="285" y="627"/>
      <point x="159" y="543"/>
      <point x="120" y="391" type="curve" smooth="yes"/>
      <point x="99" y="307" type="line" smooth="yes"/>
      <point x="62" y="158"/>
      <point x="129" y="76"/>
      <point x="290" y="76" type="curve" smooth="yes"/>
      <point x="298" y="76"/>
      <point x="312" y="95"/>
      <point x="308" y="155" type="curve"/>
      <point x="197" y="155"/>
      <point x="158" y="208"/>
      <point x="184" y="314" type="curve" smooth="yes"/>
      <point x="202" y="384" type="line" smooth="yes"/>
      <point x="229" y="495"/>
      <point x="300" y="548"/>
      <point x="410" y="548" type="curve" smooth="yes"/>
      <point x="472" y="548"/>
      <point x="512" y="532"/>
      <point x="551" y="506" type="curve"/>
      <point x="565" y="506" type="line"/>
      <point x="570" y="526"/>
      <point x="576" y="548"/>
      <point x="582" y="573" type="curve" smooth="yes"/>
      <point x="583" y="577"/>
      <point x="583" y="580"/>
      <point x="580" y="584" type="curve" smooth="yes"/>
      <point x="568" y="600"/>
      <point x="518" y="627"/>
    </contour>
    <contour>
      <point x="141" y="236" type="curve"/>
      <point x="98" y="146"/>
      <point x="158" y="76"/>
      <point x="290" y="76" type="curve" smooth="yes"/>
      <point x="370" y="76"/>
      <point x="439" y="98"/>
      <point x="465" y="119" type="curve" smooth="yes"/>
      <point x="468" y="121"/>
      <point x="470" y="124"/>
      <point x="470" y="127" type="curve"/>
      <point x="476" y="150"/>
      <point x="482" y="173"/>
      <point x="488" y="196" type="curve"/>
      <point x="473" y="196" type="line"/>
      <point x="418" y="170"/>
      <point x="373" y="155"/>
      <point x="308" y="155" type="curve" smooth="yes"/>
      <point x="218" y="155"/>
      <point x="179" y="182"/>
    </contour>
  </outline>
</glyph>
<glyph name="sterling" format="1">
  <advance width="600"/>
  <unicode hex="00A3"/>
  <outline>
    <contour>
      <point x="458" y="641" type="curve" smooth="yes"/>
      <point x="517" y="641"/>
      <point x="548" y="625"/>
      <point x="587" y="592" type="curve"/>
      <point x="601" y="592" type="line"/>
      <point x="605" y="609"/>
      <point x="611" y="634"/>
      <point x="619" y="665" type="curve" smooth="yes"/>
      <point x="620" y="669"/>
      <point x="620" y="671"/>
      <point x="618" y="673" type="curve" smooth="yes"/>
      <point x="601" y="696"/>
      <point x="552" y="720"/>
      <point x="477" y="720" type="curve" smooth="yes"/>
      <point x="344" y="720"/>
      <point x="253" y="639"/>
      <point x="229" y="544" type="curve" smooth="yes"/>
      <point x="224" y="525" type="line" smooth="yes"/>
      <point x="220" y="509"/>
      <point x="232" y="509"/>
      <point x="307" y="531" type="curve"/>
      <point x="325" y="603"/>
      <point x="376" y="641"/>
    </contour>
    <contour>
      <point x="224" y="525" type="curve" smooth="yes"/>
      <point x="194" y="404"/>
      <point x="169" y="306"/>
      <point x="137" y="178" type="curve" smooth="yes"/>
      <point x="121" y="111"/>
      <point x="71" y="74"/>
      <point x="16" y="74" type="curve" smooth="yes"/>
      <point x="11" y="74"/>
      <point x="7" y="74"/>
      <point x="3" y="74" type="curve"/>
      <point x="-1" y="74" type="line"/>
      <point x="-6" y="53"/>
      <point x="-10" y="36"/>
      <point x="-17" y="11" type="curve" smooth="yes"/>
      <point x="-19" y="3"/>
      <point x="-15" y="0"/>
      <point x="-8" y="0" type="curve" smooth="yes"/>
      <point x="-3" y="0" type="line" smooth="yes"/>
      <point x="95" y="0"/>
      <point x="188" y="56"/>
      <point x="222" y="191" type="curve" smooth="yes"/>
      <point x="252" y="311"/>
      <point x="279" y="419"/>
      <point x="307" y="531" type="curve" smooth="yes"/>
      <point x="313" y="556"/>
      <point x="319" y="580"/>
      <point x="325" y="604" type="curve"/>
      <point x="280" y="604"/>
      <point x="237" y="575"/>
    </contour>
    <contour>
      <point x="-3" y="0" type="curve"/>
      <point x="169" y="0"/>
      <point x="271" y="0"/>
      <point x="401" y="0" type="curve" smooth="yes"/>
      <point x="466" y="0" type="line" smooth="yes"/>
      <point x="474" y="0"/>
      <point x="478" y="3"/>
      <point x="480" y="11" type="curve"/>
      <point x="485" y="32"/>
      <point x="490" y="53"/>
      <point x="495" y="74" type="curve"/>
      <point x="475" y="74" type="line"/>
      <point x="451" y="74"/>
      <point x="433" y="74"/>
      <point x="403" y="74" type="curve" smooth="yes"/>
      <point x="304" y="74"/>
      <point x="233" y="74"/>
      <point x="83" y="74" type="curve"/>
      <point x="-7" y="6"/>
      <point x="-8" y="0"/>
    </contour>
    <contour>
      <point x="96" y="383" type="line"/>
      <point x="91" y="361"/>
      <point x="88" y="352"/>
      <point x="83" y="330" type="curve" smooth="yes"/>
      <point x="82" y="327"/>
      <point x="82" y="324"/>
      <point x="84" y="322" type="curve" smooth="yes"/>
      <point x="85" y="320"/>
      <point x="88" y="319"/>
      <point x="91" y="319" type="curve" smooth="yes"/>
      <point x="463" y="319" type="line"/>
      <point x="469" y="341"/>
      <point x="471" y="350"/>
      <point x="477" y="372" type="curve" smooth="yes"/>
      <point x="478" y="378"/>
      <point x="474" y="383"/>
      <point x="468" y="383" type="curve" smooth="yes"/>
    </contour>
  </outline>
</glyph>
<glyph name="currency" format="1">
  <advance width="600"/>
  <unicode hex="00A4"/>
  <outline>
    <contour>
      <point x="267" y="421" type="curve"/>
      <point x="247" y="447"/>
      <point x="223" y="479"/>
      <point x="203" y="507" type="curve" smooth="yes"/>
      <point x="201" y="509"/>
      <point x="200" y="510"/>
      <point x="198" y="510" type="curve" smooth="yes"/>
      <point x="196" y="510"/>
      <point x="193" y="509"/>
      <point x="191" y="507" type="curve" smooth="yes"/>
      <point x="171" y="491"/>
      <point x="152" y="475"/>
      <point x="136" y="462" type="curve"/>
      <point x="155" y="436"/>
      <point x="180" y="403"/>
      <point x="200" y="377" type="curve" smooth="yes"/>
      <point x="203" y="373"/>
      <point x="207" y="373"/>
      <point x="212" y="377" type="curve" smooth="yes"/>
      <point x="230" y="392"/>
      <point x="250" y="408"/>
    </contour>
    <contour>
      <point x="409" y="421" type="curve"/>
      <point x="416" y="413"/>
      <point x="435" y="387"/>
      <point x="442" y="377" type="curve" smooth="yes"/>
      <point x="445" y="373"/>
      <point x="449" y="373"/>
      <point x="454" y="377" type="curve" smooth="yes"/>
      <point x="487" y="403"/>
      <point x="528" y="436"/>
      <point x="561" y="462" type="curve"/>
      <point x="550" y="477"/>
      <point x="540" y="491"/>
      <point x="528" y="507" type="curve" smooth="yes"/>
      <point x="526" y="509"/>
      <point x="525" y="510"/>
      <point x="523" y="510" type="curve" smooth="yes"/>
      <point x="521" y="510"/>
      <point x="518" y="509"/>
      <point x="516" y="507" type="curve" smooth="yes"/>
      <point x="482" y="479"/>
      <point x="442" y="447"/>
    </contour>
    <contour>
      <point x="348" y="178" type="curve"/>
      <point x="368" y="152"/>
      <point x="392" y="120"/>
      <point x="412" y="93" type="curve" smooth="yes"/>
      <point x="414" y="91"/>
      <point x="416" y="90"/>
      <point x="418" y="90" type="curve" smooth="yes"/>
      <point x="420" y="90"/>
      <point x="422" y="91"/>
      <point x="424" y="93" type="curve" smooth="yes"/>
      <point x="444" y="109"/>
      <point x="463" y="124"/>
      <point x="479" y="137" type="curve"/>
      <point x="460" y="163"/>
      <point x="435" y="196"/>
      <point x="415" y="222" type="curve" smooth="yes"/>
      <point x="412" y="226"/>
      <point x="408" y="226"/>
      <point x="403" y="222" type="curve" smooth="yes"/>
      <point x="386" y="208"/>
      <point x="365" y="191"/>
    </contour>
    <contour>
      <point x="206" y="178" type="curve"/>
      <point x="200" y="186"/>
      <point x="180" y="213"/>
      <point x="173" y="222" type="curve" smooth="yes"/>
      <point x="170" y="226"/>
      <point x="166" y="226"/>
      <point x="161" y="222" type="curve" smooth="yes"/>
      <point x="128" y="196"/>
      <point x="87" y="163"/>
      <point x="54" y="137" type="curve"/>
      <point x="65" y="123"/>
      <point x="76" y="109"/>
      <point x="87" y="93" type="curve" smooth="yes"/>
      <point x="89" y="91"/>
      <point x="91" y="90"/>
      <point x="93" y="90" type="curve" smooth="yes"/>
      <point x="95" y="90"/>
      <point x="97" y="91"/>
      <point x="99" y="93" type="curve" smooth="yes"/>
      <point x="133" y="120"/>
      <point x="173" y="152"/>
    </contour>
    <contour>
      <point x="282" y="195" type="curve"/>
      <point x="217" y="195"/>
      <point x="189" y="227"/>
      <point x="203" y="280" type="curve" smooth="yes"/>
      <point x="213" y="321" type="line" smooth="yes"/>
      <point x="226" y="375"/>
      <point x="272" y="407"/>
      <point x="336" y="407" type="curve" smooth="yes"/>
      <point x="377" y="407"/>
      <point x="396" y="403"/>
      <point x="421" y="389" type="curve"/>
      <point x="443" y="429"/>
      <point x="413" y="471"/>
      <point x="351" y="471" type="curve"/>
      <point x="249" y="471"/>
      <point x="170" y="414"/>
      <point x="147" y="324" type="curve" smooth="yes"/>
      <point x="136" y="278" type="line" smooth="yes"/>
      <point x="113" y="188"/>
      <point x="164" y="131"/>
      <point x="266" y="131" type="curve"/>
      <point x="275" y="131"/>
      <point x="282" y="159"/>
    </contour>
    <contour>
      <point x="336" y="407" type="curve"/>
      <point x="401" y="407"/>
      <point x="429" y="375"/>
      <point x="415" y="321" type="curve" smooth="yes"/>
      <point x="405" y="280" type="line" smooth="yes"/>
      <point x="391" y="227"/>
      <point x="346" y="195"/>
      <point x="282" y="195" type="curve" smooth="yes"/>
      <point x="241" y="195"/>
      <point x="223" y="199"/>
      <point x="197" y="212" type="curve"/>
      <point x="175" y="173"/>
      <point x="205" y="131"/>
      <point x="266" y="131" type="curve"/>
      <point x="369" y="131"/>
      <point x="448" y="188"/>
      <point x="471" y="278" type="curve" smooth="yes"/>
      <point x="482" y="324" type="line" smooth="yes"/>
      <point x="505" y="414"/>
      <point x="453" y="471"/>
      <point x="351" y="471" type="curve"/>
      <point x="339" y="471"/>
      <point x="333" y="445"/>
    </contour>
  </outline>
</glyph>
<glyph name="yen" format="1">
  <advance width="600"/>
  <unicode hex="00A5"/>
  <outline>
    <contour>
      <point x="89" y="456" type="line"/>
      <point x="84" y="434"/>
      <point x="81" y="424"/>
      <point x="76" y="403" type="curve" smooth="yes"/>
      <point x="75" y="400"/>
      <point x="75" y="397"/>
      <point x="77" y="395" type="curve" smooth="yes"/>
      <point x="78" y="393"/>
      <point x="81" y="392"/>
      <point x="84" y="392" type="curve"/>
      <point x="251" y="392" type="line"/>
      <point x="257" y="413"/>
      <point x="259" y="423"/>
      <point x="264" y="445" type="curve" smooth="yes"/>
      <point x="266" y="451"/>
      <point x="262" y="456"/>
      <point x="256" y="456" type="curve"/>
    </contour>
    <contour>
      <point x="428" y="456" type="line"/>
      <point x="423" y="434"/>
      <point x="420" y="424"/>
      <point x="415" y="403" type="curve" smooth="yes"/>
      <point x="413" y="397"/>
      <point x="417" y="392"/>
      <point x="423" y="392" type="curve"/>
      <point x="590" y="392" type="line"/>
      <point x="595" y="413"/>
      <point x="598" y="423"/>
      <point x="603" y="445" type="curve" smooth="yes"/>
      <point x="605" y="451"/>
      <point x="601" y="456"/>
      <point x="595" y="456" type="curve"/>
    </contour>
    <contour>
      <point x="529" y="149" type="line"/>
      <point x="535" y="170"/>
      <point x="537" y="180"/>
      <point x="542" y="202" type="curve" smooth="yes"/>
      <point x="543" y="205"/>
      <point x="543" y="208"/>
      <point x="541" y="210" type="curve" smooth="yes"/>
      <point x="540" y="212"/>
      <point x="537" y="213"/>
      <point x="534" y="213" type="curve"/>
      <point x="28" y="213" type="line"/>
      <point x="23" y="191"/>
      <point x="21" y="181"/>
      <point x="15" y="160" type="curve" smooth="yes"/>
      <point x="14" y="154"/>
      <point x="17" y="149"/>
      <point x="23" y="149" type="curve"/>
    </contour>
    <contour>
      <point x="142" y="700" type="line"/>
      <point x="182" y="556"/>
      <point x="223" y="412"/>
      <point x="262" y="268" type="curve"/>
      <point x="264" y="263"/>
      <point x="271" y="261"/>
      <point x="277" y="261" type="curve"/>
      <point x="305" y="261"/>
      <point x="329" y="299"/>
      <point x="331" y="327" type="curve"/>
      <point x="300" y="447"/>
      <point x="268" y="568"/>
      <point x="236" y="688" type="curve"/>
      <point x="235" y="695"/>
      <point x="233" y="700"/>
      <point x="222" y="700" type="curve" smooth="yes"/>
    </contour>
    <contour>
      <point x="586" y="700" type="line"/>
      <point x="491" y="575"/>
      <point x="397" y="450"/>
      <point x="302" y="325" type="curve"/>
      <point x="279" y="292"/>
      <point x="280" y="269"/>
      <point x="277" y="261" type="curve"/>
      <point x="334" y="261" type="line"/>
      <point x="444" y="402"/>
      <point x="556" y="544"/>
      <point x="667" y="685" type="curve"/>
      <point x="672" y="693"/>
      <point x="668" y="700"/>
      <point x="662" y="700" type="curve"/>
    </contour>
    <contour>
      <point x="276" y="0" type="curve"/>
      <point x="284" y="32"/>
      <point x="292" y="66"/>
      <point x="301" y="100" type="curve" smooth="yes"/>
      <point x="352" y="303" type="line" smooth="yes"/>
      <point x="353" y="309"/>
      <point x="349" y="314"/>
      <point x="270" y="314" type="curve"/>
      <point x="194" y="11" type="line" smooth="yes"/>
      <point x="193" y="8"/>
      <point x="194" y="5"/>
      <point x="195" y="3" type="curve" smooth="yes"/>
      <point x="197" y="1"/>
      <point x="199" y="0"/>
      <point x="202" y="0" type="curve" smooth="yes"/>
      <point x="227" y="0"/>
      <point x="251" y="0"/>
    </contour>
  </outline>
</glyph>
<glyph name="brokenbar" format="1">
  <advance width="600"/>
  <unicode hex="00A6"/>
  <outline>
    <contour>
      <point x="382" y="760" type="curve"/>
      <point x="373" y="727"/>
      <point x="365" y="694"/>
      <point x="357" y="661" type="curve" smooth="yes"/>
      <point x="287" y="380" type="line" smooth="yes"/>
      <point x="285" y="374"/>
      <point x="289" y="369"/>
      <point x="295" y="369" type="curve" smooth="yes"/>
      <point x="319" y="369"/>
      <point x="343" y="369"/>
      <point x="368" y="369" type="curve"/>
      <point x="463" y="749" type="line" smooth="yes"/>
      <point x="464" y="752"/>
      <point x="464" y="755"/>
      <point x="462" y="757" type="curve" smooth="yes"/>
      <point x="461" y="759"/>
      <point x="458" y="760"/>
      <point x="455" y="760" type="curve" smooth="yes"/>
      <point x="430" y="760"/>
      <point x="406" y="760"/>
    </contour>
    <contour>
      <point x="249" y="231" type="curve"/>
      <point x="154" y="-149" type="line"/>
      <point x="153" y="-155"/>
      <point x="156" y="-160"/>
      <point x="162" y="-160" type="curve" smooth="yes"/>
      <point x="187" y="-160"/>
      <point x="211" y="-160"/>
      <point x="236" y="-160" type="curve"/>
      <point x="331" y="220" type="line" smooth="yes"/>
      <point x="333" y="227"/>
      <point x="330" y="231"/>
      <point x="323" y="231" type="curve" smooth="yes"/>
      <point x="298" y="231"/>
      <point x="274" y="231"/>
    </contour>
  </outline>
</glyph>
